<svg width="50" height="37" viewBox="0 0 50 37" fill="none" xmlns="http://www.w3.org/2000/svg">
<path d="M49.2645 33.5205C49.2645 34.8998 49.2645 36.015 49.2645 36.015H24.6825C24.6825 36.015 24.6825 34.8978 24.6825 33.5197C24.6825 32.1416 24.6825 31.0244 24.6825 31.0244H49.2645C49.2645 31.0244 49.2645 32.1396 49.2645 33.5189V33.5205Z" fill="white"/>
<path d="M49.2643 18.46C49.2643 19.8393 49.2626 20.9544 49.2626 20.9544H0.0978088C0.0978088 20.9544 0.0977783 19.8372 0.0977783 18.4592C0.0977783 17.081 0.0977992 15.9639 0.0977992 15.9639H49.2626C49.2626 15.9639 49.2626 17.0824 49.2626 18.4583L49.2643 18.46Z" fill="white"/>
<path d="M49.265 5.89584C49.265 5.89584 49.265 4.77866 49.265 3.40056C49.265 2.02246 49.265 0.905273 49.265 0.905273H14.8474C14.8474 0.905273 14.8474 2.02244 14.8474 3.40056C14.8474 4.77866 14.8474 5.89584 14.8474 5.89584H49.265Z" fill="white"/>
</svg>
