<svg width="59" height="67" viewBox="0 0 59 67" fill="none" xmlns="http://www.w3.org/2000/svg">
<path d="M56.4781 21.8303C52.0869 21.8303 4.56004 21.8303 2.52172 21.8303C1.28012 21.8303 0.27356 22.8077 0.27356 24.0133C0.27356 25.2189 1.28012 26.1963 2.52172 26.1963H4.8731C5.6759 34.8049 11.1761 42.1165 18.8593 45.6872L16.0728 53.8498C12.4811 53.8178 9.44704 56.5541 9.27386 60.0854C9.09705 63.6925 11.9751 66.7668 15.69 66.9386C19.4106 67.1088 22.571 64.3115 22.7477 60.7084C22.7904 59.8372 22.6534 58.9829 22.3709 58.2073L39.9457 58.2135L42.5879 65.5391C42.9992 66.6773 44.2825 67.2751 45.4536 66.8762C46.6253 66.477 47.2417 65.2311 46.8305 64.0935L40.1734 45.6725C47.8395 42.0961 53.325 34.7926 54.1267 26.1963H56.4781C57.7197 26.1963 58.7263 25.2189 58.7263 24.0133C58.7266 22.8078 57.7197 21.8303 56.4781 21.8303ZM15.9038 62.5775C14.6626 62.5202 13.7059 61.4986 13.7651 60.2934C13.8173 59.228 14.651 58.2194 16.1523 58.2199C17.3849 58.295 18.3145 59.3133 18.2562 60.5009C18.1967 61.7155 17.1327 62.637 15.9038 62.5775ZM20.808 53.8553L23.0787 47.204C25.1273 47.7393 27.2795 48.0266 29.4999 48.0266C31.7336 48.0266 33.8983 47.7358 35.9579 47.1944L38.3675 53.8616L20.808 53.8553ZM29.5 43.6605C19.1031 43.6605 10.5125 35.9915 9.39044 26.1818H49.6097C48.4873 35.9916 39.8967 43.6605 29.5 43.6605Z" fill="#505769"/>
<path d="M21.8561 6.9858C20.8093 6.22354 20.808 4.69288 21.8561 3.92958C22.8493 3.20619 23.0508 1.8378 22.3056 0.873369C21.5608 -0.091194 20.1517 -0.286698 19.1582 0.436823C15.7186 2.9416 15.7147 7.97117 19.1582 10.4787C20.2049 11.2409 20.2063 12.7716 19.1582 13.5349C18.165 14.2584 17.9635 15.6267 18.7086 16.5911C19.4533 17.5556 20.8626 17.7512 21.8561 17.0277C25.2957 14.5229 25.2996 9.49345 21.8561 6.9858Z" fill="#505769"/>
<path d="M30.8487 6.9858C29.802 6.22354 29.8007 4.69288 30.8487 3.92958C31.842 3.20619 32.0434 1.8378 31.2983 0.873369C30.5535 -0.091194 29.1444 -0.286698 28.1509 0.436823C24.7113 2.9416 24.7074 7.97117 28.1509 10.4787C29.1976 11.2409 29.199 12.7716 28.1509 13.5349C27.1577 14.2584 26.9562 15.6267 27.7013 16.5911C28.446 17.5556 29.8553 17.7512 30.8487 17.0277C34.2884 14.5229 34.2923 9.49345 30.8487 6.9858Z" fill="#505769"/>
<path d="M39.8415 6.9858C38.7948 6.22354 38.7935 4.69288 39.8415 3.92958C40.8348 3.20619 41.0362 1.8378 40.2911 0.873369C39.5463 -0.091194 38.1372 -0.286698 37.1437 0.436823C33.7041 2.9416 33.7002 7.97117 37.1437 10.4787C38.1904 11.2409 38.1917 12.7716 37.1437 13.5349C36.1505 14.2584 35.949 15.6267 36.6941 16.5911C37.4388 17.5556 38.8481 17.7512 39.8415 17.0277C43.2812 14.5229 43.2849 9.49345 39.8415 6.9858Z" fill="#505769"/>
</svg>
