<svg width="40" height="44" viewBox="0 0 40 44" fill="none" xmlns="http://www.w3.org/2000/svg">
<path d="M4.54428 23.9096C4.00041 26.6265 5.74021 29.2901 8.46771 29.8758C11.2237 30.4711 13.9504 28.724 14.5458 25.9817L15.3847 18.3267C12.6287 16.8386 13.6386 23.0065 8.87841 21.9843C5.60892 21.2801 4.71769 23.3618 4.54428 23.9096Z" fill="#1D1D1D"/>
<path d="M39.9365 33.1006C39.7209 32.4576 39.02 32.1023 38.3751 32.3213L34.9419 33.4571L32.7828 26.9954C34.5562 26.1294 36.0099 24.7504 36.9104 22.9609C37.999 20.7992 38.1757 18.3452 37.3703 15.9501L31.7297 2.97729L16.7312 7.94301L17.7329 11.9996L4.91425 9.24211L0.687261 22.8489C0.174122 25.213 0.616075 27.6337 1.93316 29.6655C3.02173 31.3468 4.61686 32.5612 6.47374 33.2301L5.02683 39.886L1.4958 39.1278C0.831617 38.9948 0.172345 39.4059 0.0281977 40.0703C-0.116054 40.734 0.307293 41.3868 0.974928 41.5307L5.70189 42.5469C5.70534 42.5469 5.70711 42.5499 5.70952 42.5499C5.71485 42.5516 5.72112 42.5499 5.72656 42.5516L10.455 43.5678C10.5434 43.5869 10.6302 43.5952 10.7172 43.5952C11.2861 43.5952 11.7977 43.2017 11.9228 42.6256C12.066 41.9615 11.6432 41.3088 10.9755 41.1648L7.442 40.4046L8.88368 33.776C9.12034 33.7951 9.35658 33.8146 9.59334 33.8146C13.8377 33.8146 17.5714 30.8129 18.4858 26.5794L19.4881 19.1044L20.1461 21.7667C21.3841 25.4723 24.8511 27.9619 28.772 27.9619C29.3351 27.9619 29.8925 27.8945 30.4444 27.7907L32.5977 34.2337L29.1712 35.3669C28.523 35.5809 28.1724 36.277 28.3876 36.92C28.5601 37.4353 29.0423 37.7618 29.5599 37.7618C29.6886 37.7618 29.8208 37.7425 29.9497 37.699L39.1528 34.6545C39.8014 34.4397 40.152 33.7436 39.9365 33.1006ZM16.0552 26.1582C15.3033 29.6318 11.7057 31.9632 8.17998 31.2044H8.178C6.44771 30.8333 4.96704 29.8143 4.0086 28.3343C3.05048 26.8543 2.72717 25.0911 3.07431 23.472L6.60492 12.1204L17.6149 14.489L16.0552 26.1582ZM22.5178 21.0857L19.6734 9.55903L30.3632 6.02046L35.0647 16.8261C35.6242 18.498 35.4935 20.2859 34.703 21.8603C33.9099 23.4345 32.5486 24.6082 30.8675 25.1633C30.1881 25.3906 29.482 25.5041 28.7726 25.5041C25.9167 25.5041 23.3927 23.6912 22.5178 21.0857Z" fill="#1D1D1D"/>
<path d="M33.6925 17.5195C33.4546 16.9947 32.3483 15.0194 29.1741 16.069C24.5494 17.5995 24.8838 11.3582 22.3083 13.1333L23.9707 20.6505C24.8615 23.3113 27.7624 24.7582 30.4345 23.8721C33.0846 22.9945 34.5255 20.1595 33.6925 17.5195Z" fill="#1D1D1D"/>
<path d="M12.4126 2.77856C13.1815 2.73706 13.7732 2.08189 13.7318 1.31564C13.6903 0.548139 13.0307 -0.039525 12.2619 0.00207957C11.4897 0.0435801 10.8982 0.698748 10.9401 1.46594C10.9822 2.2324 11.6416 2.82006 12.4126 2.77856Z" fill="#1D1D1D"/>
<path d="M17.8127 5.20674C18.5812 5.16524 19.1733 4.51007 19.1315 3.74298C19.0896 2.97652 18.4301 2.38855 17.6616 2.43005C16.8898 2.47176 16.2982 3.12672 16.3397 3.89307C16.3814 4.66016 17.0407 5.24834 17.8127 5.20674Z" fill="#1D1D1D"/>
<path d="M11.6349 6.37403C11.6765 7.14132 12.3358 7.7293 13.1047 7.68748C13.8768 7.64609 14.4685 6.99092 14.4269 6.22384C14.3848 5.45748 13.7254 4.8695 12.9534 4.911C12.1848 4.9525 11.5935 5.60767 11.6349 6.37403Z" fill="#1D1D1D"/>
</svg>
