<svg width="63" height="63" viewBox="0 0 63 63" fill="none" xmlns="http://www.w3.org/2000/svg">
<path d="M62.0302 55.3726H58.5537V0.969593C58.5537 0.565806 58.2188 0.230957 57.815 0.230957H5.18475C4.78096 0.230957 4.44611 0.565806 4.44611 0.969593V55.3726H0.969593C0.565806 55.3726 0.230957 55.7075 0.230957 56.1113V62.0203C0.230957 62.4241 0.565806 62.759 0.969593 62.759H62.0302C62.434 62.759 62.7688 62.4241 62.7688 62.0203V56.1113C62.7688 55.7075 62.434 55.3726 62.0302 55.3726V55.3726ZM5.92338 1.70823H57.0666V55.3726H5.92338V1.70823ZM61.2916 61.2916H1.70823V56.8597H5.18475H57.8052H61.2817V61.2916H61.2916Z" fill="#505769"/>
<path d="M29.5302 5.15515H10.109C9.70521 5.15515 9.37036 5.49 9.37036 5.89379V51.187C9.37036 51.5908 9.70521 51.9256 10.109 51.9256H29.5302C29.934 51.9256 30.2688 51.5908 30.2688 51.187V5.89379C30.2688 5.49 29.934 5.15515 29.5302 5.15515ZM28.7916 50.4483H10.8476V6.63242H28.7916V50.4483Z" fill="#505769"/>
<path d="M52.8908 5.15515H33.4696C33.0658 5.15515 32.731 5.49 32.731 5.89379V51.187C32.731 51.5908 33.0658 51.9256 33.4696 51.9256H52.8908C53.2946 51.9256 53.6294 51.5908 53.6294 51.187V5.89379C53.6294 5.49 53.2946 5.15515 52.8908 5.15515ZM52.1522 50.4483H34.2082V6.63242H52.1522V50.4483Z" fill="#505769"/>
<path d="M24.7142 32.4256C25.118 32.4256 25.4529 32.0908 25.4529 31.687V24.4188C25.4529 24.015 25.118 23.6802 24.7142 23.6802C24.3104 23.6802 23.9756 24.015 23.9756 24.4188V31.687C23.9756 32.0908 24.3104 32.4256 24.7142 32.4256Z" fill="#505769"/>
<path d="M38.2855 23.6802C37.8817 23.6802 37.5469 24.015 37.5469 24.4188V31.687C37.5469 32.0908 37.8817 32.4256 38.2855 32.4256C38.6893 32.4256 39.0241 32.0908 39.0241 31.687V24.4188C39.0241 24.0052 38.6893 23.6802 38.2855 23.6802Z" fill="#505769"/>
<path d="M14.0582 13.6347C14.2453 13.6347 14.4324 13.5658 14.5802 13.4181L17.643 10.3552C17.9287 10.0696 17.9287 9.59686 17.643 9.31125C17.3574 9.02564 16.8847 9.02564 16.5991 9.31125L13.5362 12.3741C13.2506 12.6597 13.2506 13.1325 13.5362 13.4181C13.6741 13.5658 13.8612 13.6347 14.0582 13.6347V13.6347Z" fill="#505769"/>
<path d="M14.0287 17.0817C14.1764 17.2294 14.3636 17.2984 14.5507 17.2984C14.7378 17.2984 14.9249 17.2294 15.0727 17.0817L21.3067 10.8476C21.5924 10.562 21.5924 10.0893 21.3067 9.80368C21.0211 9.51808 20.5484 9.51808 20.2628 9.80368L14.0287 16.0378C13.7333 16.3234 13.7333 16.7961 14.0287 17.0817V17.0817Z" fill="#505769"/>
<path d="M37.409 13.6347C37.5961 13.6347 37.7833 13.5658 37.931 13.4181L40.9939 10.3552C41.2795 10.0696 41.2795 9.59686 40.9939 9.31125C40.7083 9.02564 40.2355 9.02564 39.9499 9.31125L36.8871 12.3741C36.6015 12.6597 36.6015 13.1325 36.8871 13.4181C37.0348 13.5658 37.2219 13.6347 37.409 13.6347Z" fill="#505769"/>
<path d="M37.3795 17.0817C37.5272 17.2294 37.7143 17.2984 37.9015 17.2984C38.0886 17.2984 38.2757 17.2294 38.4234 17.0817L44.6575 10.8476C44.9431 10.562 44.9431 10.0893 44.6575 9.80368C44.3719 9.51808 43.8992 9.51808 43.6136 9.80368L37.3795 16.0378C37.0939 16.3234 37.0939 16.7961 37.3795 17.0817V17.0817Z" fill="#505769"/>
</svg>
