<svg width="51" height="50" viewBox="0 0 51 50" fill="none" xmlns="http://www.w3.org/2000/svg">
<path d="M45.4565 0H5.54346C2.48685 0 0 2.43809 0 5.43477V44.5652C0 47.5619 2.48685 50 5.54346 50H45.4565C48.5132 50 51 47.5619 51 44.5652V5.43477C51 2.43809 48.5132 0 45.4565 0ZM3.32606 5.43477C3.32606 4.23604 4.32076 3.26084 5.54346 3.26084H23.8369V10.4899L10.6998 23.3695H3.32606V5.43477ZM23.8369 46.7392H5.54346C4.32076 46.7392 3.32606 45.764 3.32606 44.5652V26.6305H10.6997L23.8369 39.5101V46.7392ZM13.7405 25L25.5 13.4711L37.2595 25L25.5 36.5289L13.7405 25ZM47.6739 44.5652C47.6739 45.764 46.6792 46.7392 45.4565 46.7392H27.1631V39.5101L40.3003 26.6305H47.6739V44.5652V44.5652ZM47.6739 23.3695H40.3003L27.1631 10.49V3.26084H45.4565C46.6792 3.26084 47.6739 4.23604 47.6739 5.43477V23.3695V23.3695Z" fill="#505769"/>
</svg>
