<svg width="51" height="67" viewBox="0 0 51 67" fill="none" xmlns="http://www.w3.org/2000/svg">
<path d="M49.7656 0H1.01562C0.746264 0 0.487936 0.110295 0.29747 0.306623C0.107003 0.50295 0 0.769226 0 1.04688V65.9531C0 66.2308 0.107003 66.4971 0.29747 66.6934C0.487936 66.8897 0.746264 67 1.01562 67H49.7656C50.035 67 50.2933 66.8897 50.4838 66.6934C50.6742 66.4971 50.7812 66.2308 50.7812 65.9531V1.04688C50.7812 0.769226 50.6742 0.50295 50.4838 0.306623C50.2933 0.110295 50.035 0 49.7656 0V0ZM48.75 64.9062H2.03125V2.09375H48.75V64.9062Z" fill="#505769"/>
<path d="M4.0625 23.0312H46.7188C46.9881 23.0312 47.2464 22.921 47.4369 22.7246C47.6274 22.5283 47.7344 22.262 47.7344 21.9844V4.1875C47.7344 3.90985 47.6274 3.64357 47.4369 3.44725C47.2464 3.25092 46.9881 3.14063 46.7188 3.14062H4.0625C3.79314 3.14063 3.53481 3.25092 3.34434 3.44725C3.15388 3.64357 3.04688 3.90985 3.04688 4.1875V21.9844C3.04688 22.262 3.15388 22.5283 3.34434 22.7246C3.53481 22.921 3.79314 23.0312 4.0625 23.0312ZM5.07812 5.23438H45.7031V20.9375H5.07812V5.23438Z" fill="#505769"/>
<path d="M4.0625 63.8594H23.3594C23.6287 63.8594 23.8871 63.7491 24.0775 63.5528C24.268 63.3564 24.375 63.0901 24.375 62.8125V25.125C24.375 24.8474 24.268 24.5811 24.0775 24.3847C23.8871 24.1884 23.6287 24.0781 23.3594 24.0781H4.0625C3.79314 24.0781 3.53481 24.1884 3.34434 24.3847C3.15388 24.5811 3.04688 24.8474 3.04688 25.125V62.8125C3.04688 63.0901 3.15388 63.3564 3.34434 63.5528C3.53481 63.7491 3.79314 63.8594 4.0625 63.8594ZM5.07812 61.7656V53.824L22.3438 36.0272V39.3478L13.5007 48.463L14.9368 49.9433L22.3438 42.3084V61.7656H5.07812ZM22.3438 26.1719V33.0666L5.07812 50.8635V47.5428L14.9368 37.3808L13.5007 35.9005L5.07812 44.5822V26.1719H22.3438Z" fill="#505769"/>
<path d="M46.7188 24.0781H27.4219C27.1525 24.0781 26.8942 24.1884 26.7037 24.3847C26.5133 24.5811 26.4062 24.8474 26.4062 25.125V62.8125C26.4062 63.0901 26.5133 63.3564 26.7037 63.5528C26.8942 63.7491 27.1525 63.8594 27.4219 63.8594H46.7188C46.9881 63.8594 47.2464 63.7491 47.4369 63.5528C47.6274 63.3564 47.7344 63.0901 47.7344 62.8125V25.125C47.7344 24.8474 47.6274 24.5811 47.4369 24.3847C47.2464 24.1884 46.9881 24.0781 46.7188 24.0781ZM45.7031 26.1719V33.0666L28.4375 50.8635V47.5428L38.2962 37.3808L36.8601 35.9005L28.4375 44.5822V26.1719H45.7031ZM28.4375 61.7656V53.824L45.7031 36.0272V39.3478L36.8601 48.463L38.2962 49.9433L45.7031 42.3084V61.7656H28.4375Z" fill="#505769"/>
</svg>
