<svg width="28" height="37" viewBox="0 0 28 37" fill="none" xmlns="http://www.w3.org/2000/svg">
<path fill-rule="evenodd" clip-rule="evenodd" d="M7.12494 36.1587V22.4909C6.26023 22.4345 5.42936 22.2543 4.64966 21.9677V24.2494C4.64966 24.39 4.68716 24.5282 4.75902 24.6496C4.90773 24.9019 5.17839 25.3603 5.37483 25.6934C5.52065 25.9402 5.52065 26.2468 5.37483 26.4936C5.22613 26.7459 5.03441 27.0706 4.88597 27.3227C4.74014 27.5695 4.74014 27.8761 4.88597 28.1229C5.03441 28.3752 5.22587 28.6993 5.37483 28.9516C5.52065 29.1987 5.52065 29.505 5.37483 29.7521C5.17865 30.0846 4.908 30.5436 4.75902 30.7959C4.68742 30.9168 4.64966 31.0553 4.64966 31.1961V32.9371C4.64966 33.2274 4.75667 33.5078 4.94996 33.7239L7.12471 36.1589L7.12494 36.1587ZM8.2999 22.4909V36.1587L10.4744 33.7238C10.6679 33.5077 10.7747 33.2271 10.7747 32.937V21.9675C9.99498 22.2542 9.16411 22.4344 8.29995 22.4908L8.2999 22.4909Z" fill="#505769"/>
<path fill-rule="evenodd" clip-rule="evenodd" d="M27.9998 11.211C27.9998 10.6322 27.7871 10.0733 27.4021 9.64049C26.3866 8.49883 24.3598 6.22048 23.6026 5.36947C23.5281 5.28554 23.4209 5.23755 23.3086 5.23755C23.1961 5.23755 23.0893 5.28581 23.0146 5.36947C22.2575 6.22054 20.2306 8.49883 19.2151 9.64049C18.8301 10.0732 18.6179 10.6322 18.6179 11.211V21.7158C18.6179 23.1935 19.8157 24.3912 21.2928 24.3912H25.3244C26.802 24.3912 27.9998 23.1935 27.9998 21.7158V11.211H27.9998ZM21.9251 18.998C21.9251 18.2342 22.5451 17.6147 23.3083 17.6147C24.0721 17.6147 24.6916 18.2342 24.6916 18.998C24.6916 19.3219 24.9549 19.5854 25.2791 19.5854C25.6032 19.5854 25.8665 19.3219 25.8665 18.998C25.8665 17.5862 24.7202 16.4398 23.3083 16.4398C21.8966 16.4398 20.7501 17.5861 20.7501 18.998C20.7501 19.3219 21.0135 19.5854 21.3376 19.5854C21.6618 19.5854 21.9251 19.3219 21.9251 18.998ZM23.3083 12.948C23.9087 12.948 24.396 13.4353 24.396 14.0351C24.396 14.6354 23.9087 15.1227 23.3083 15.1227C22.7083 15.1227 22.2213 14.6354 22.2213 14.0351C22.2213 13.435 22.7086 12.948 23.3083 12.948Z" fill="#505769"/>
<path fill-rule="evenodd" clip-rule="evenodd" d="M22.2863 4.44075C22.569 4.19789 22.9315 4.06204 23.3087 4.06204C23.3569 4.06204 23.4049 4.0644 23.4524 4.0686C21.8728 1.62111 19.1215 0 15.9944 0C11.1891 0 7.27078 3.8291 7.12844 8.60006C7.11874 8.92396 7.37392 9.19489 7.69783 9.20485C8.02199 9.21455 8.29318 8.95937 8.30288 8.63546C8.42694 4.49637 11.826 1.17478 15.9945 1.17478C18.5931 1.17478 20.8926 2.4657 22.2864 4.44031L22.2863 4.44075Z" fill="#505769"/>
<path fill-rule="evenodd" clip-rule="evenodd" d="M10.0177 6.26301C13.1494 7.24441 15.4236 10.1705 15.4236 13.6237C15.4236 17.8798 11.9679 21.3354 7.71179 21.3354C3.4552 21.3354 0 17.8798 0 13.6237C0 9.36706 3.45567 5.91187 7.71179 5.91187C8.1023 5.91187 8.48652 5.94124 8.8613 5.99736C8.57071 6.77552 8.3706 7.60169 8.31028 8.45532C8.30294 8.55944 8.20459 8.7404 8.15082 8.72912C8.00893 8.6987 7.86206 8.68296 7.71178 8.68296C6.55179 8.68296 5.61021 9.62448 5.61021 10.7845C5.61021 11.9443 6.55172 12.8861 7.71178 12.8861C8.8715 12.8861 9.81308 11.9443 9.81308 10.7845C9.81308 10.382 9.69978 10.0051 9.50282 9.68565C9.40919 8.48396 9.59881 7.32048 10.0174 6.26328L10.0177 6.26301Z" fill="#505769"/>
</svg>
