<svg width="26" height="37" viewBox="0 0 26 37" fill="none" xmlns="http://www.w3.org/2000/svg">
<path d="M17.5221 18.5855C17.4436 18.4703 17.287 18.5472 17.287 18.6624C17.2085 19.8913 16.6597 20.4672 16.2285 20.8127C15.7188 21.2351 15.4052 20.7744 16.0718 18.8158C16.8167 16.5886 15.9542 15.1679 15.0527 14.2848C14.9742 14.2079 14.8175 14.2848 14.8175 14.3999C15.1312 16.2047 13.916 17.1265 13.916 17.1265C13.916 17.1265 14.1512 16.1665 13.3672 14.5537C12.936 13.7089 12.7793 12.5185 12.8969 11.5585C12.8969 11.4433 12.7793 11.3664 12.7008 11.4433C10.6232 13.2481 10.8193 16.3968 10.8193 16.3968C10.2705 15.9743 9.64324 15.2447 9.13385 14.2078C9.09475 14.0926 8.93779 14.0926 8.89869 14.2078C8.27143 15.7437 8.78111 18.1247 9.05537 19.1613C9.3299 20.2365 9.25143 20.6206 8.66326 20.2365C7.99689 19.8141 7.56566 18.931 7.36966 18.47C7.33056 18.3548 7.1736 18.3548 7.1345 18.47C6.74239 19.5834 6.74239 20.6972 6.89934 21.7341C7.25208 24.1917 9.4472 26.0348 11.9954 26.0348H13.0145C16.66 26.0348 19.2867 22.3869 17.7969 19.1612C17.7182 18.9309 17.6006 18.7774 17.5221 18.5853L17.5221 18.5855Z" fill="#505769"/>
<path d="M18.9726 5.4144H18.659L18.6592 2.5344H20.1096C20.815 2.5344 21.4032 1.95851 21.4032 1.2672C21.4032 0.576137 20.8153 0 20.1096 0H4.89997C4.19451 0 3.60637 0.57589 3.60637 1.2672C3.60637 1.95826 4.19425 2.5344 4.89997 2.5344H6.3503V5.4144H6.03666C2.70452 5.4144 0 8.06407 0 11.3279V26.0351C0 28.224 1.21513 30.144 3.01847 31.1423C2.70484 31.6798 2.50879 32.2943 2.50879 32.9471C2.50879 34.9054 4.11606 36.4799 6.11519 36.4799H18.9336C20.9327 36.4799 22.54 34.9054 22.54 32.9471C22.54 32.2943 22.3439 31.6799 22.0303 31.1423C23.8336 30.1054 25.0488 28.2239 25.0488 26.0351V11.3279C25.0097 8.064 22.3048 5.4144 18.9727 5.4144H18.9726ZM8.9374 2.5344H16.0718V5.4144H8.9374V2.5344ZM18.9334 33.9456H6.0758C5.52701 33.9456 5.05667 33.4849 5.05667 32.9473C5.05667 32.4097 5.52698 31.9489 6.0758 31.9489H18.8942C19.443 31.9489 19.9133 32.4097 19.9133 32.9473C19.9133 33.4849 19.4821 33.9456 18.9333 33.9456H18.9334ZM22.4222 26.0352C22.4222 27.8783 20.8934 29.4145 18.9725 29.4145H6.03653C4.155 29.4145 2.58686 27.9169 2.58686 26.0352L2.58713 11.328C2.58713 9.48487 4.11593 7.94873 6.0368 7.94873H18.9728C20.8543 7.94873 22.4225 9.48459 22.4225 11.328L22.4222 26.0352Z" fill="#505769"/>
</svg>
