<svg width="29" height="31" viewBox="0 0 29 31" fill="none" xmlns="http://www.w3.org/2000/svg">
<path d="M7.79652 24.5892C7.79562 24.6531 7.79202 24.7161 7.78617 24.7798C7.79945 24.6722 7.81227 24.5646 7.82554 24.457C7.80845 24.5959 7.7774 24.7285 7.73128 24.8589C7.7684 24.762 7.8053 24.6655 7.84242 24.5688C7.79427 24.6945 7.73443 24.8111 7.66131 24.9214C7.71868 24.8396 7.77628 24.7575 7.83365 24.6757C7.74996 24.7952 7.65546 24.8993 7.54702 24.9916C7.62127 24.9283 7.69573 24.8649 7.76998 24.8016C7.66986 24.8822 7.5639 24.9482 7.45005 25.0012C7.53802 24.9603 7.62554 24.9197 7.71328 24.8787C7.59494 24.9293 7.47458 24.9638 7.34859 24.9826C7.44623 24.968 7.54387 24.9539 7.64151 24.9392C7.43588 24.9633 7.2244 24.9506 7.01787 24.9506H5.83269H3.10258C2.8569 24.9506 2.60402 24.9678 2.35903 24.9392C2.45667 24.9539 2.55431 24.968 2.65195 24.9826C2.52596 24.9638 2.4056 24.9296 2.28726 24.8787C2.37522 24.9197 2.46274 24.9603 2.55048 25.0012C2.43642 24.9482 2.33068 24.8822 2.23056 24.8016C2.30481 24.8649 2.37927 24.9283 2.45352 24.9916C2.34508 24.8993 2.25059 24.7952 2.16689 24.6757C2.22426 24.7575 2.28186 24.8396 2.33923 24.9214C2.26611 24.8111 2.20626 24.6943 2.15812 24.5688C2.19524 24.6658 2.23214 24.7622 2.26926 24.8589C2.22336 24.7285 2.19209 24.5959 2.17499 24.457C2.18827 24.5646 2.20109 24.6722 2.21437 24.7798C2.19097 24.5368 2.20402 24.2862 2.20402 24.0425V22.4628V17.242V10.8904V5.4162C2.20402 4.55013 2.20019 3.68437 2.20402 2.8183C2.20424 2.74565 2.20739 2.674 2.21437 2.6016C2.20109 2.7092 2.18827 2.81681 2.17499 2.92441C2.19209 2.78556 2.22314 2.65292 2.26926 2.52251C2.23214 2.61945 2.19524 2.7159 2.15812 2.81259C2.20626 2.68689 2.26611 2.57036 2.33923 2.46002C2.28186 2.54185 2.22426 2.62391 2.16689 2.70573C2.25058 2.58623 2.34508 2.48209 2.45352 2.38986C2.37927 2.45308 2.30481 2.51655 2.23056 2.57978C2.33068 2.4992 2.43664 2.43325 2.55048 2.38019C2.46252 2.4211 2.375 2.46176 2.28726 2.50267C2.4056 2.45209 2.52596 2.41763 2.65195 2.39879C2.55431 2.41341 2.45667 2.42755 2.35903 2.44217C2.56466 2.41812 2.77614 2.43077 2.98266 2.43077H4.16785H6.89796C7.14364 2.43077 7.39651 2.41366 7.64151 2.44217C7.54387 2.42755 7.44623 2.41341 7.34859 2.39879C7.47458 2.41763 7.59494 2.45184 7.71328 2.50267C7.62532 2.46176 7.53779 2.4211 7.45005 2.38019C7.56412 2.43325 7.66986 2.4992 7.76998 2.57978C7.69573 2.51655 7.62127 2.45308 7.54702 2.38986C7.65546 2.48209 7.74995 2.58623 7.83365 2.70573C7.77628 2.62391 7.71868 2.54185 7.66131 2.46002C7.73443 2.57036 7.79428 2.68713 7.84242 2.81259C7.8053 2.71565 7.7684 2.6192 7.73128 2.52251C7.77717 2.65292 7.80844 2.78556 7.82554 2.92441C7.81227 2.81681 7.79945 2.7092 7.78617 2.6016C7.80957 2.84457 7.79652 3.09524 7.79652 3.33895V4.89725V10.1071V16.4075V21.8951C7.79652 22.7802 7.78527 23.6668 7.79652 24.5519V24.5892C7.79652 25.2246 8.30363 25.8338 8.89895 25.8043C9.49603 25.7748 10.0014 25.2705 10.0014 24.5894V23.5079V20.7034V16.8098V12.4434V8.25871V4.90758V3.00616C10.0014 2.7059 9.98809 2.41607 9.926 2.11755C9.66457 0.859285 8.57724 0.00565165 7.43232 0.00165292C6.40955 -0.00206615 5.38655 0.00165292 4.36383 0.00165292H2.8101C2.71785 0.00165292 2.62562 0.000165267 2.53315 0.00165292C1.86879 0.0105783 1.23387 0.292481 0.756463 0.803239C0.249582 1.34548 0.00029998 2.10118 0.00029998 2.87026V3.4249V5.87822V9.56701V13.8642V18.1525V21.7744V24.0834C0.00029998 24.2404 -0.000374974 24.3975 0.00029998 24.5545C0.00367469 25.5559 0.482208 26.5338 1.28991 27.0209C1.83391 27.3492 2.39728 27.3795 2.99252 27.3795H4.68777C5.61447 27.3795 6.54204 27.3926 7.46874 27.3795C8.12837 27.37 8.75137 27.0928 9.23079 26.5932C9.7262 26.0775 9.99123 25.3335 10.0014 24.5894C10.0099 23.9539 9.4884 23.3447 8.89916 23.374C8.29419 23.4043 7.80556 23.9078 7.79652 24.5892Z" fill="#636978"/>
<path d="M8.89892 4.65057H10.735H15.1086H20.4224H24.9893C25.7201 4.65057 26.451 4.64289 27.1817 4.65057C27.2186 4.65082 27.2551 4.65255 27.2922 4.65652C27.1945 4.64189 27.0969 4.62776 26.9993 4.61313C27.0544 4.62255 27.1061 4.63718 27.1585 4.65751C27.0706 4.6166 26.9831 4.57594 26.8953 4.53503C26.9583 4.56454 27.0143 4.59949 27.0692 4.64437C26.995 4.58115 26.9205 4.51768 26.8463 4.45445C26.8879 4.49264 26.9241 4.5328 26.959 4.57867C26.9016 4.49685 26.844 4.41478 26.7866 4.33296C26.8274 4.39346 26.8593 4.4552 26.8859 4.52462C26.8487 4.42768 26.8118 4.33122 26.7747 4.23453C26.7934 4.29255 26.8062 4.34933 26.815 4.41007C26.8017 4.30246 26.7889 4.19486 26.7756 4.08726C26.792 4.2809 26.781 4.47974 26.781 4.67388V6.05115V10.6167V16.1303V20.8874C26.781 21.6494 26.788 22.4115 26.781 23.1734C26.7808 23.2136 26.7792 23.2533 26.7756 23.2939C26.7889 23.1863 26.8017 23.0787 26.815 22.9711C26.8064 23.0319 26.7932 23.0889 26.7747 23.1467C26.8118 23.0497 26.8487 22.9533 26.8859 22.8566C26.8591 22.926 26.8274 22.9877 26.7866 23.0482C26.844 22.9664 26.9016 22.8843 26.959 22.8025C26.9243 22.8484 26.8879 22.8883 26.8463 22.9267C26.9205 22.8635 26.995 22.8 27.0692 22.7368C27.0143 22.7817 26.9583 22.8169 26.8953 22.8462C26.9833 22.8053 27.0708 22.7646 27.1585 22.7237C27.1059 22.7443 27.0544 22.7584 26.9993 22.7681C27.0969 22.7534 27.1945 22.7393 27.2922 22.7247C27.107 22.7438 26.9165 22.7306 26.7306 22.7306H25.4109H21.0578H15.7451H11.16C10.4169 22.7306 9.67316 22.7177 8.93002 22.7306C8.91967 22.7309 8.90932 22.7306 8.89852 22.7306C8.32188 22.7306 7.76937 23.2895 7.7961 23.9455C7.82287 24.6036 8.28048 25.1605 8.89852 25.1605H9.97416H12.732H16.454H20.4832H24.0579H26.5208H27.1084C27.1406 25.1605 27.173 25.1614 27.2054 25.1605C27.9921 25.1371 28.7269 24.5696 28.9251 23.7075C29.0448 23.1869 28.9852 22.5814 28.9852 22.051V18.9494V14.7652V10.3708V6.63785V4.44312C28.9852 4.09923 28.9703 3.77247 28.8448 3.44445C28.5604 2.70139 27.937 2.24147 27.2031 2.22236C27.1682 2.22137 27.1329 2.22236 27.0978 2.22236H25.4303H22.2963H18.3992H14.4564H11.1382H9.16311H8.89853C8.32189 2.22236 7.76939 2.78122 7.79611 3.43728C7.82333 4.09409 8.28072 4.65067 8.89894 4.65067L8.89892 4.65057Z" fill="#636978"/>
<path d="M24.0848 15.0931H22.9507H20.2429H16.9523H14.1205C13.6597 15.0931 13.1969 15.079 12.7364 15.0931C12.7301 15.0934 12.7236 15.0931 12.7173 15.0931C12.8149 15.1077 12.9126 15.1219 13.0102 15.1365C12.996 15.134 12.9821 15.1315 12.9679 15.1288C13.0559 15.1697 13.1434 15.2104 13.2311 15.2513C13.2188 15.2444 13.2068 15.2374 13.1947 15.2305C13.2689 15.2937 13.3434 15.3572 13.4177 15.4204C13.408 15.4097 13.3985 15.3993 13.3886 15.3884C13.446 15.4702 13.5036 15.5523 13.561 15.6341C13.5547 15.6205 13.5484 15.6073 13.5421 15.5939C13.5792 15.6909 13.6161 15.7873 13.6532 15.884C13.651 15.8684 13.6487 15.853 13.6462 15.8374C13.6595 15.945 13.6723 16.0526 13.6856 16.1602V13.2638V8.65316V7.60238C13.6723 7.70999 13.6595 7.81759 13.6462 7.9252C13.6485 7.90958 13.6507 7.8942 13.6532 7.87858C13.6161 7.97552 13.5792 8.07198 13.5421 8.16867C13.5484 8.15503 13.5547 8.14189 13.561 8.1285C13.5036 8.21033 13.446 8.29239 13.3886 8.37421L13.4177 8.34223C13.3434 8.40545 13.2689 8.46892 13.1947 8.53215C13.2071 8.5252 13.219 8.51826 13.2311 8.51132C13.1432 8.55223 13.0557 8.59289 12.9679 8.6338C12.9821 8.63132 12.996 8.62884 13.0102 8.62611C12.9126 8.64074 12.8149 8.65488 12.7173 8.6695H13.8514H16.5593H19.8498H22.6817C23.1424 8.6695 23.6052 8.68364 24.0657 8.6695C24.072 8.66926 24.0785 8.6695 24.0848 8.6695C23.9872 8.65488 23.8896 8.64074 23.7919 8.62611C23.8061 8.62859 23.82 8.63107 23.8342 8.6338C23.7463 8.59289 23.6587 8.55223 23.571 8.51132C23.5834 8.51826 23.5953 8.5252 23.6074 8.53215C23.5332 8.46892 23.4587 8.40545 23.3845 8.34223C23.3942 8.35289 23.4036 8.3633 23.4135 8.37421C23.3561 8.29239 23.2985 8.21033 23.2412 8.1285C23.2475 8.14214 23.2538 8.15528 23.2601 8.16867C23.223 8.07173 23.1861 7.97528 23.1489 7.87858C23.1512 7.8942 23.1534 7.90958 23.1559 7.9252C23.1426 7.81759 23.1298 7.70999 23.1165 7.60238V10.4988V15.1095V16.1602C23.1298 16.0526 23.1426 15.945 23.1559 15.8374C23.1537 15.853 23.1514 15.8684 23.1489 15.884C23.1861 15.7871 23.223 15.6906 23.2601 15.5939C23.2538 15.6076 23.2475 15.6207 23.2412 15.6341C23.2985 15.5523 23.3561 15.4702 23.4135 15.3884C23.4038 15.3991 23.3944 15.4095 23.3845 15.4204C23.4587 15.3572 23.5332 15.2937 23.6074 15.2305C23.5951 15.2374 23.5831 15.2444 23.571 15.2513C23.659 15.2104 23.7465 15.1697 23.8342 15.1288C23.82 15.1313 23.8061 15.1338 23.7919 15.1365C23.5361 15.1819 23.2583 15.4591 23.133 15.6946C22.9946 15.9549 22.9361 16.3387 23.0218 16.6308C23.1082 16.9249 23.2736 17.2085 23.5283 17.357C23.8061 17.5187 24.0691 17.5343 24.3778 17.4795C24.956 17.3768 25.3061 16.7287 25.3202 16.1302C25.3218 16.065 25.3202 15.9993 25.3202 15.9338V15.0983V12.2978C25.3202 10.7472 25.3391 9.19489 25.3202 7.64459C25.3105 6.84701 24.7618 6.2524 24.0437 6.24199C23.9069 6.24001 23.7699 6.24199 23.6333 6.24199H21.8015H16.3359C15.1467 6.24199 13.9561 6.22265 12.767 6.24199C12.0459 6.25389 11.5009 6.83481 11.4817 7.63463C11.4772 7.8186 11.4817 8.00331 11.4817 8.18728V10.683V15.9095C11.4817 15.9799 11.4808 16.0503 11.4817 16.1205C11.4878 16.6161 11.7036 17.1175 12.1188 17.35C12.381 17.4968 12.6336 17.5233 12.9117 17.5233H14.4353H19.7889H23.8727H24.0853C24.6619 17.5233 25.2144 16.9645 25.1877 16.3084C25.1605 15.6499 24.7029 15.0931 24.0849 15.0931L24.0848 15.0931Z" fill="#636978"/>
<path d="M14.0556 18.9402H12.5924C12.0157 18.9402 11.4632 19.499 11.4899 20.1551C11.5167 20.8131 11.9743 21.37 12.5924 21.37H14.0556C14.6323 21.37 15.1848 20.8112 15.158 20.1551C15.1313 19.4968 14.6734 18.9402 14.0556 18.9402Z" fill="#636978"/>
<path d="M19.1411 18.9402H17.6778C17.1012 18.9402 16.5487 19.499 16.5754 20.1551C16.6022 20.8131 17.0598 21.37 17.6778 21.37H19.1411C19.7177 21.37 20.2702 20.8112 20.2435 20.1551C20.2167 19.4968 19.7593 18.9402 19.1411 18.9402Z" fill="#636978"/>
<path d="M24.2265 18.9402H22.7633C22.1866 18.9402 21.6341 19.499 21.6608 20.1551C21.6876 20.8131 22.1452 21.37 22.7633 21.37H24.2265C24.8032 21.37 25.3557 20.8112 25.3289 20.1551C25.3022 19.4968 24.8446 18.9402 24.2265 18.9402Z" fill="#636978"/>
<path d="M3.88818 26.1639V28.771V29.1431C3.88818 29.7786 4.39529 30.3875 4.99061 30.3581C5.58769 30.3285 6.09303 29.8242 6.09303 29.1431V26.5361V26.1639C6.09303 25.5285 5.58592 24.9196 4.99061 24.949C4.39352 24.9785 3.88818 25.4831 3.88818 26.1639V26.1639Z" fill="#636978"/>
</svg>
