<svg width="64" height="42" viewBox="0 0 64 42" fill="none" xmlns="http://www.w3.org/2000/svg">
<path d="M56.5345 9.69188H26.7951C25.4426 9.69188 24.1915 10.0965 23.1753 10.7797C21.6308 8.46166 18.8504 6.91151 15.6831 6.91151C13.8409 6.91151 12.1304 7.43692 10.717 8.33157V4.9265C10.717 2.21002 8.31316 0 5.3584 0C2.40388 0 0 2.21002 0 4.9265V39.282C0 40.2502 0.853753 41.0351 1.90688 41.0351H8.81016C9.86329 41.0351 10.717 40.2502 10.717 39.282V30.4451H53.283V39.282C53.283 40.2502 54.1367 41.0351 55.1898 41.0351H62.0931C63.1462 41.0351 64 40.2502 64 39.282V16.5556C64.0003 12.7708 60.651 9.69188 56.5345 9.69188ZM10.717 14.9835C10.717 12.4659 12.9448 10.4179 15.6831 10.4179C18.4214 10.4179 20.6491 12.4659 20.6491 14.9835V15.3423V20.2014H10.717V14.9835ZM57.097 37.5288V28.6919C57.097 27.7237 56.2432 26.9388 55.1901 26.9388H8.81016C7.75703 26.9388 6.90328 27.7237 6.90328 28.6919V37.5288H3.81389V4.9265C3.81389 4.14343 4.50689 3.50632 5.35852 3.50632C6.21027 3.50632 6.90328 4.14343 6.90328 4.9265V14.9834V21.9545C6.90328 22.9227 7.75703 23.7076 8.81016 23.7076H60.1862V37.5289H57.097V37.5288ZM60.1864 20.2013H24.4632V15.3421C24.4631 14.16 25.5092 13.1982 26.7951 13.1982H56.5345C58.5481 13.1982 60.1864 14.7042 60.1864 16.5556V20.2013Z" fill="#505769"/>
</svg>
