<svg width="40" height="37" viewBox="0 0 40 37" fill="none" xmlns="http://www.w3.org/2000/svg">
<path d="M36.0238 19.2378C36.0175 19.2378 36.0109 19.2378 36.0046 19.2321H35.9983C35.6071 19.0774 32.3561 18.0856 31.3558 17.7876V17.7761C30.4774 16.5266 30.0541 15.9017 30.0027 14.7782C32.0674 13.7062 33.587 11.1956 33.587 9.04601C33.587 8.93712 33.5807 8.83977 33.5741 8.74805C34.4784 7.37219 34.7604 6.22031 34.395 5.32582C34.2282 4.91306 33.9591 4.63227 33.7088 4.44883C34.3245 3.77243 34.6065 3.06175 34.5489 2.33943C34.4334 0.986677 33.1253 0.121196 33.0677 0.0809748C32.9009 -0.0279109 32.6639 -0.0279109 32.4971 0.0865966C32.3303 0.201103 32.2598 0.402013 32.3369 0.57954C32.4203 0.791691 32.5871 1.3305 32.2535 1.65719C32.0354 1.86934 31.2466 2.29363 28.6305 1.66873C26.431 1.13554 24.8986 1.2388 24.0844 1.9726C23.6292 2.37382 23.5008 2.88391 23.4816 3.28514C22.6482 3.19341 21.9362 3.53723 21.5003 4.26537C20.7178 5.56079 20.9681 7.81925 22.3019 8.81668C22.2957 8.89687 22.289 8.97143 22.289 9.04599C22.289 11.1956 23.8023 13.7005 25.8734 14.7726C25.8542 15.8617 25.495 16.389 24.6871 17.5412L24.5203 17.7877C23.334 18.143 20.269 19.0718 19.9354 19.2091C19.9291 19.2091 19.9225 19.2148 19.9162 19.2148C17.4603 20.2409 15.8765 22.4363 15.8765 24.8037V36.2566C15.8765 36.4915 16.0946 36.6865 16.3574 36.6865C16.6268 36.6865 16.8383 36.4915 16.8383 36.2566V24.8037C16.8383 22.9695 17.8965 21.3129 19.6405 20.3326V26.7181C19.6405 26.7755 19.5892 26.8214 19.5187 26.8214C18.9288 26.8214 18.4413 27.2513 18.4413 27.7845V35.7235C18.4413 36.2567 18.9285 36.6866 19.5187 36.6866H36.4154C37.0118 36.6866 37.4927 36.2567 37.4927 35.7235L37.4924 27.7845C37.4924 27.2513 37.0115 26.8214 36.4088 26.8214C36.3512 26.8214 36.2932 26.7755 36.2932 26.7181L36.2936 20.3672C38.0058 21.3532 39.0382 22.9926 39.0382 24.804V36.2569C39.0382 36.4918 39.2563 36.6868 39.5191 36.6868C39.7885 36.6868 40 36.4918 40 36.2569L39.9997 24.804C39.9997 22.4254 38.4738 20.2986 36.0242 19.2382L36.0238 19.2378ZM23.2502 9.04605C23.2502 8.91408 23.2757 8.62767 23.2757 8.61613C23.282 7.67611 23.5898 6.99379 24.122 6.7417C24.744 6.45499 25.7509 6.70146 26.9626 7.44118C28.5784 8.42709 30.0213 7.72197 30.9702 7.26335C31.3869 7.05711 31.8486 6.83342 32.0217 6.91361C32.1114 6.95385 32.413 7.20594 32.6053 8.67919C32.6053 8.67919 32.6245 8.92566 32.6245 9.04609C32.6245 11.4306 30.4188 14.4516 27.937 14.4516C25.4559 14.4516 23.2502 11.4306 23.2502 9.04609L23.2502 9.04605ZM25.5009 18.0001C26.2575 16.9224 26.7193 16.2576 26.8153 15.1569C27.1807 15.2543 27.559 15.3117 27.9373 15.3117C28.3219 15.3117 28.7002 15.2543 29.066 15.1569C29.1941 16.3035 29.7008 17.0428 30.5342 18.235L30.5534 18.2578C30.5084 18.6993 30.188 20.0864 27.9373 20.0864C25.6865 20.0864 25.3658 18.6933 25.3211 18.2578L25.5009 18.0001ZM21.3585 29.8597C21.0957 29.8597 20.8713 29.6647 20.8713 29.4298C20.8713 29.1948 21.0957 28.9942 21.3585 28.9942C21.6213 28.9942 21.8395 29.1948 21.8395 29.4298C21.8395 29.665 21.6213 29.8597 21.3585 29.8597ZM32.6823 26.7186C32.6823 26.776 32.631 26.8218 32.5668 26.8218H23.3656C23.308 26.8218 23.2501 26.776 23.2501 26.7186V19.0772C23.6539 18.9568 24.058 18.8308 24.4301 18.7219C24.6803 19.7021 25.5971 20.946 27.9376 20.946C30.2781 20.946 31.1948 19.7021 31.4451 18.7219C31.8364 18.8364 32.2594 18.9684 32.6827 19.1003L32.6823 26.7186ZM34.5739 29.8597C34.3111 29.8597 34.093 29.6647 34.093 29.4298C34.093 29.1948 34.3111 28.9942 34.5739 28.9942C34.8433 28.9942 35.0611 29.1948 35.0611 29.4298C35.0611 29.665 34.843 29.8597 34.5739 29.8597Z" fill="#505769"/>
<path d="M16.7232 1.21629C16.6269 0.883714 16.332 0.602914 15.9603 0.494028C15.1202 0.253177 14.5046 0.259092 14.1008 0.49965C13.7288 0.184234 13.1327 -0.0391584 12.145 0.00670615C11.5294 0.0294892 11.0613 0.212941 10.7535 0.539894C10.728 0.568595 10.7085 0.597296 10.683 0.631616C10.3368 0.413844 9.83008 0.276258 9.06078 0.310579C8.27203 0.344901 7.7464 0.580131 7.50245 1.00413C7.49616 1.02129 7.48954 1.03283 7.48325 1.04437C7.17543 0.855004 6.84841 0.746118 6.50221 0.717418C5.40567 0.614152 4.50174 1.34233 4.05917 1.78348C3.89235 1.94385 3.81556 2.16191 3.85396 2.37968C3.88606 2.59746 4.03335 2.79244 4.24519 2.90695C7.3039 4.57512 7.66927 8.7767 7.67588 8.82261C7.68217 9.42444 7.86818 9.98039 8.18891 10.4562C8.51593 10.9376 8.97137 11.3332 9.51618 11.6083V35.0989C9.51618 35.9759 10.3112 36.6866 11.2923 36.6866C12.267 36.6866 13.0557 35.9759 13.0557 35.0989L13.0554 11.6091C14.1136 11.0759 14.8315 10.0844 14.8957 8.94372C15.4088 8.3129 17.8389 5.05133 16.7231 1.21681L16.7232 1.21629ZM14.1776 8.35836H8.58618C8.41936 7.21178 7.70148 3.88158 4.88638 2.25364C5.20049 1.96692 5.8032 1.51984 6.40599 1.57162C6.85482 1.61186 7.29069 1.9326 7.69487 2.51755C7.70778 2.52908 8.61169 4.31744 8.81691 5.25745C8.86193 5.46369 9.06052 5.60719 9.28493 5.60719C9.31704 5.60719 9.34914 5.60719 9.38125 5.60157C9.63776 5.5557 9.81087 5.32639 9.75956 5.09708C9.53516 4.07685 8.53491 2.09358 8.51568 2.07047C8.40678 1.88702 8.26545 1.56036 8.36177 1.3997C8.43227 1.27365 8.70169 1.18755 9.1055 1.17039C10.3494 1.12453 10.4073 1.56599 10.4841 2.04178C10.4841 2.04178 10.8111 3.79016 10.8561 4.36326C10.8753 4.5982 11.0998 4.7701 11.3692 4.75886C11.632 4.7417 11.8309 4.53518 11.818 4.30024C11.7667 3.68687 11.4013 1.73228 11.3755 1.62336C11.3692 1.58903 11.3626 1.53725 11.3626 1.48015C11.3626 1.35973 11.388 1.20498 11.4973 1.09047C11.6191 0.952884 11.8564 0.87832 12.1897 0.866783C13.3183 0.820921 13.562 1.1822 13.6388 1.39405C13.6388 1.42837 13.7543 3.58358 13.3247 4.53518C13.2221 4.75295 13.3439 5.00534 13.5875 5.09707C13.6451 5.11423 13.7093 5.12577 13.7669 5.12577C13.9592 5.12577 14.1389 5.02251 14.2157 4.85622C14.6967 3.78426 14.6133 1.34824 14.6133 1.34226C14.607 1.239 14.6262 1.21029 14.6262 1.21029C14.6775 1.16443 15.0174 1.12419 15.6586 1.31356C15.7228 1.33072 15.7741 1.38221 15.7933 1.43398C16.7491 4.71828 14.7228 7.64755 14.1777 8.35828L14.1776 8.35836Z" fill="#505769"/>
<path d="M3.02024 11.2821C3.28305 11.2821 3.50117 11.0871 3.50117 10.8522V9.84325C3.50117 9.60832 3.28305 9.41333 3.02024 9.41333C2.75743 9.41333 2.53931 9.60832 2.53931 9.84325V10.8522C2.53931 11.093 2.75114 11.2821 3.02024 11.2821Z" fill="#505769"/>
<path d="M3.02024 14.8129C3.28305 14.8129 3.50117 14.6179 3.50117 14.383V13.374C3.50117 13.1391 3.28305 12.9441 3.02024 12.9441C2.75743 12.9441 2.53931 13.1391 2.53931 13.374V14.383C2.53931 14.6238 2.75114 14.8129 3.02024 14.8129Z" fill="#505769"/>
<path d="M1.60924 11.6887H0.48093C0.218121 11.6887 0 11.8837 0 12.1186C0 12.3536 0.218121 12.5486 0.48093 12.5486H1.60958C1.87239 12.5486 2.09051 12.3536 2.09051 12.1186C2.09018 11.8837 1.87239 11.6887 1.60925 11.6887H1.60924Z" fill="#505769"/>
<path d="M5.55978 11.6887H4.43113C4.16832 11.6887 3.9502 11.8837 3.9502 12.1186C3.9502 12.3536 4.16832 12.5486 4.43113 12.5486H5.55978C5.82259 12.5486 6.04071 12.3536 6.04071 12.1186C6.04071 11.8837 5.82259 11.6887 5.55978 11.6887Z" fill="#505769"/>
<path d="M4.99533 22.7292C4.73252 22.7292 4.5144 22.9242 4.5144 23.1592V24.1681C4.5144 24.403 4.73252 24.598 4.99533 24.598C5.25814 24.598 5.47626 24.403 5.47626 24.1681V23.1592C5.47626 22.9242 5.25847 22.7292 4.99533 22.7292Z" fill="#505769"/>
<path d="M4.99533 26.2603C4.73252 26.2603 4.5144 26.4552 4.5144 26.6902V27.6991C4.5144 27.9341 4.73252 28.129 4.99533 28.129C5.25814 28.129 5.47626 27.9341 5.47626 27.6991V26.6902C5.47626 26.4552 5.25847 26.2603 4.99533 26.2603Z" fill="#505769"/>
<path d="M3.58434 24.9988H2.45603C2.19322 24.9988 1.9751 25.1938 1.9751 25.4287C1.9751 25.6636 2.19322 25.8586 2.45603 25.8586H3.58468C3.84749 25.8586 4.06561 25.6636 4.06561 25.4287C4.06528 25.1938 3.84716 24.9988 3.58435 24.9988H3.58434Z" fill="#505769"/>
<path d="M7.53463 24.9988H6.40598C6.14317 24.9988 5.92505 25.1938 5.92505 25.4287C5.92505 25.6636 6.14317 25.8586 6.40598 25.8586H7.53463C7.79744 25.8586 8.01556 25.6636 8.01556 25.4287C8.01556 25.1938 7.79744 24.9988 7.53463 24.9988Z" fill="#505769"/>
</svg>
