<svg width="32" height="31" viewBox="0 0 32 31" fill="none" xmlns="http://www.w3.org/2000/svg">
<g clip-path="url(#clip0_2_154)">
<path d="M29.617 16.2815V14.8259C29.617 13.2609 28.3574 11.5928 26.4783 11.5928H5.55567C3.6561 11.5928 2.38289 13.2673 2.38289 14.8259V16.3008C1.18461 16.6744 0.360758 17.7241 0.340332 18.9221V22.4129C0.340332 25.1243 2.1718 27.1531 5.10631 27.9517V29.6262C5.10631 29.9804 5.4127 30.2702 5.78718 30.2702C6.16167 30.2702 6.46806 29.9804 6.46806 29.6262V28.235C6.99912 28.3058 7.53702 28.3381 8.07485 28.3381H23.9591C24.4833 28.3381 25.0144 28.3059 25.5319 28.235V29.6262C25.5319 29.9804 25.8382 30.2702 26.2127 30.2702C26.5872 30.2702 26.8936 29.9804 26.8936 29.6262V27.9645C29.828 27.1659 31.6595 25.1372 31.6595 22.4193V18.9286C31.6595 17.7242 30.7948 16.6808 29.617 16.2815ZM16.6808 12.8809H26.4782C27.5267 12.8809 28.2552 13.9049 28.2552 14.8259V16.1334C26.7506 16.2944 25.5319 17.4987 25.5319 18.9285V21.1312C25.5319 21.144 25.3889 22.5416 23.9591 22.5416H16.6808V12.8809ZM3.74463 14.826C3.74463 13.9114 4.5208 12.881 5.55567 12.881H15.3191V22.5417H8.07485C6.64506 22.5417 6.46806 21.1441 6.46806 21.1312V18.9286C6.46806 17.2927 5.32423 16.1012 3.74463 16.1012V14.826ZM30.2978 22.4193C30.2978 25.2338 27.8127 27.05 23.9591 27.05H8.07485C4.20082 27.05 1.70208 25.2338 1.70208 22.4193V18.9286C1.70208 18.774 1.75652 17.3893 3.74463 17.3893C4.68421 17.3893 5.10631 18.1621 5.10631 18.9285V21.1312C5.10631 21.8525 5.80761 23.8297 8.07485 23.8297H23.9591C26.1582 23.8297 26.8935 21.9749 26.8935 21.1312V18.9285C26.8935 18.0977 27.6765 17.3893 28.5957 17.3893C29.5148 17.3893 30.2978 18.0913 30.2978 18.9285V22.4193V22.4193Z" fill="#505769"/>
<path d="M5.78707 9.66073H26.2126C26.5871 9.66073 26.8935 9.37091 26.8935 9.01666V0.644069C26.8934 0.289822 26.587 0 26.2126 0H5.78707C5.41258 0 5.1062 0.289822 5.1062 0.644069V9.01672C5.1062 9.37091 5.41258 9.66073 5.78707 9.66073ZM6.46788 1.28808H25.5317V8.37259H6.46788V1.28808Z" fill="#505769"/>
</g>
<defs>
<clipPath id="clip0_2_154">
<rect width="32" height="30.2703" fill="white"/>
</clipPath>
</defs>
</svg>
