<svg width="27" height="27" viewBox="0 0 27 27" fill="none" xmlns="http://www.w3.org/2000/svg">
<g clip-path="url(#clip0_2_160)">
<path d="M10.35 0H2.25C1.00789 0.00153809 0.00153809 1.00789 0 2.25V10.35C0.00153809 11.5921 1.00789 12.5985 2.25 12.6H3.15C3.39851 12.6 3.6 12.3985 3.6 12.15C3.6 11.9015 3.6 11.25 3.15 11.25H2.25C1.50447 11.25 1.35 11.0955 1.35 10.35L1.35 2.25C1.35 1.50447 1.50447 1.35 2.25 1.35H10.35C11.0955 1.35 11.25 1.50447 11.25 2.25L11.25 10.35C11.25 11.0955 11.0955 11.25 10.35 11.25H5.85C5.4 11.25 5.4 11.9015 5.4 12.15C5.4 12.3985 5.60149 12.6 5.85 12.6H10.35C11.5921 12.5985 12.5985 11.5921 12.6 10.35V2.25C12.5985 1.00789 11.5921 0.00153809 10.35 0Z" fill="#505769"/>
<path d="M24.7499 0H16.6499C15.4078 0.00153809 14.4014 1.00789 14.3999 2.25V10.35C14.4014 11.5921 15.4078 12.5985 16.6499 12.6H24.7499C25.992 12.5985 26.9984 11.5921 26.9999 10.35V2.25C26.9984 1.00789 25.992 0.00153809 24.7499 0ZM25.6499 10.35C25.6499 11.0955 25.4954 11.25 24.7499 11.25H16.6499C15.9044 11.25 15.7499 11.0955 15.7499 10.35L15.7499 6.3L15.7499 2.25C15.7499 1.50447 15.9044 1.46123 16.6499 1.46123H24.7499C25.4954 1.46123 25.6499 1.50447 25.6499 2.25L25.6499 10.35Z" fill="#505769"/>
<path d="M10.35 14.3999H2.25C1.00789 14.4014 0.0015381 15.4078 0 16.6499V24.7499C0.0015381 25.992 1.00789 26.9984 2.25 26.9999H10.35C11.5921 26.9984 12.5985 25.992 12.6 24.7499V16.6499C12.5985 15.4078 11.5921 14.4014 10.35 14.3999ZM11.25 24.7499C11.25 25.4954 11.0955 25.6499 10.35 25.6499H2.25C1.50447 25.6499 1.35 25.4954 1.35 24.7499L1.35 20.6999L1.35 16.6499C1.35 15.9044 1.50447 15.8611 2.25 15.8611H10.35C11.0955 15.8611 11.25 15.9044 11.25 16.6499L11.25 24.7499Z" fill="#505769"/>
<path d="M24.7499 14.3999H16.6499C15.4078 14.4014 14.4014 15.4078 14.3999 16.6499V24.7499C14.4014 25.992 15.4078 26.9984 16.6499 26.9999H24.7499C25.992 26.9984 26.9984 25.992 26.9999 24.7499V16.6499C26.9984 15.4078 25.992 14.4014 24.7499 14.3999ZM25.6499 24.7499C25.6499 25.4954 25.4954 25.6499 24.7499 25.6499H16.6499C15.9044 25.6499 15.7499 25.4954 15.7499 24.7499L15.7499 20.6999L15.7499 16.6499C15.7499 15.9044 15.9044 15.8611 16.6499 15.8611H24.7499C25.4954 15.8611 25.6499 15.9044 25.6499 16.6499L25.6499 24.7499Z" fill="#505769"/>
</g>
<defs>
<clipPath id="clip0_2_160">
<rect width="27" height="27" fill="white"/>
</clipPath>
</defs>
</svg>
