<svg width="56" height="61" viewBox="0 0 56 61" fill="none" xmlns="http://www.w3.org/2000/svg">
<path d="M53.375 26.6875V6.67188H54.25C54.4821 6.67188 54.7046 6.57146 54.8687 6.39271C55.0328 6.21397 55.125 5.97153 55.125 5.71875V1.90625C55.125 1.65347 55.0328 1.41103 54.8687 1.23229C54.7046 1.05354 54.4821 0.953125 54.25 0.953125H1.75C1.51794 0.953125 1.29538 1.05354 1.13128 1.23229C0.967187 1.41103 0.875 1.65347 0.875 1.90625V5.71875C0.875 5.97153 0.967187 6.21397 1.13128 6.39271C1.29538 6.57146 1.51794 6.67188 1.75 6.67188H2.625V26.6875C2.62724 27.2768 2.79657 27.8509 3.10983 28.3314C3.42308 28.8118 3.86496 29.1751 4.375 29.3715V54.3281H1.75C1.51794 54.3281 1.29538 54.4285 1.13128 54.6073C0.967187 54.786 0.875 55.0285 0.875 55.2812V59.0938C0.875 59.3465 0.967187 59.589 1.13128 59.7677C1.29538 59.9465 1.51794 60.0469 1.75 60.0469H54.25C54.4821 60.0469 54.7046 59.9465 54.8687 59.7677C55.0328 59.589 55.125 59.3465 55.125 59.0938V55.2812C55.125 55.0285 55.0328 54.786 54.8687 54.6073C54.7046 54.4285 54.4821 54.3281 54.25 54.3281H51.625V29.3715C52.135 29.1751 52.5769 28.8118 52.8902 28.3314C53.2034 27.8509 53.3728 27.2768 53.375 26.6875V26.6875ZM50.75 27.6406H5.25C5.01794 27.6406 4.79538 27.5402 4.63128 27.3615C4.46719 27.1827 4.375 26.9403 4.375 26.6875V25.7344H51.625V26.6875C51.625 26.9403 51.5328 27.1827 51.3687 27.3615C51.2046 27.5402 50.9821 27.6406 50.75 27.6406ZM9.625 29.5469H23.7125C23.8857 30.4619 24.3012 31.3016 24.9076 31.9622C25.5141 32.6229 26.285 33.0754 27.125 33.2641V41.1607C26.5412 41.3855 26.0491 41.828 25.7358 42.4098C25.4225 42.9916 25.3081 43.6753 25.4128 44.3401C25.5175 45.0049 25.8346 45.6079 26.308 46.0427C26.7815 46.4775 27.3808 46.7159 28 46.7159C28.6192 46.7159 29.2185 46.4775 29.692 46.0427C30.1654 45.6079 30.4825 45.0049 30.5872 44.3401C30.6919 43.6753 30.5775 42.9916 30.2642 42.4098C29.9509 41.828 29.4588 41.3855 28.875 41.1607V33.2641C29.715 33.0754 30.4859 32.6229 31.0924 31.9622C31.6988 31.3016 32.1143 30.4619 32.2875 29.5469H46.375V50.5156H9.625V29.5469ZM28.875 43.8438C28.875 44.0323 28.8237 44.2165 28.7275 44.3733C28.6314 44.53 28.4947 44.6522 28.3348 44.7243C28.175 44.7965 27.999 44.8153 27.8293 44.7786C27.6596 44.7418 27.5037 44.651 27.3813 44.5177C27.2589 44.3844 27.1756 44.2146 27.1418 44.0297C27.1081 43.8448 27.1254 43.6532 27.1916 43.479C27.2578 43.3048 27.37 43.156 27.5139 43.0513C27.6578 42.9465 27.8269 42.8906 28 42.8906C28.2321 42.8906 28.4546 42.991 28.6187 43.1698C28.7828 43.3485 28.875 43.591 28.875 43.8438ZM28 31.4531C27.459 31.4507 26.9319 31.2662 26.4909 30.925C26.0498 30.5838 25.7163 30.1025 25.536 29.5469H30.464C30.2837 30.1025 29.9502 30.5838 29.5091 30.925C29.0681 31.2662 28.541 31.4507 28 31.4531V31.4531ZM4.375 10.4844H51.625V12.3906H4.375V10.4844ZM4.375 14.2969H51.625V16.2031H4.375V14.2969ZM4.375 18.1094H51.625V20.0156H4.375V18.1094ZM4.375 21.9219H51.625V23.8281H4.375V21.9219ZM2.625 2.85938H53.375V4.76562H2.625V2.85938ZM51.625 6.67188V8.57812H4.375V6.67188H51.625ZM53.375 58.1406H2.625V56.2344H53.375V58.1406ZM6.125 54.3281V29.5469H7.875V51.4688C7.875 51.7215 7.96719 51.964 8.13128 52.1427C8.29538 52.3215 8.51794 52.4219 8.75 52.4219H47.25C47.4821 52.4219 47.7046 52.3215 47.8687 52.1427C48.0328 51.964 48.125 51.7215 48.125 51.4688V29.5469H49.875V54.3281H6.125Z" fill="#505769"/>
</svg>
