<svg width="37" height="37" viewBox="0 0 37 37" fill="none" xmlns="http://www.w3.org/2000/svg">
<path d="M35.0923 9.96736L30.4289 5.32704L31.045 4.71398L32.4302 6.09298C32.909 6.5701 33.6864 6.5701 34.1659 6.09298C34.6461 5.61587 34.6461 4.84301 34.1659 4.36525L31.9122 2.12266C31.4334 1.64555 30.656 1.64555 30.1765 2.12266L28.6925 3.59924L26.2835 1.20215C24.7685 -0.307232 22.4051 -0.408469 21.0152 0.97322L20.135 1.84901C19.5554 1.51955 18.8962 1.3431 18.2088 1.3431C17.1687 1.34374 16.1925 1.74474 15.4603 2.47336L15.3093 2.62356C13.7931 4.1323 13.7931 6.58661 15.3093 8.09536L28.1655 20.8891C28.9237 21.6428 29.9185 22.02 30.914 22.02C31.9095 22.02 32.9058 21.6428 33.6633 20.8891L33.8142 20.7389C35.0786 19.4802 35.2872 17.5639 34.4416 16.0871L35.3231 15.2096C36.7117 13.8271 36.6079 11.4754 35.0923 9.96736ZM32.0791 19.0105L31.9282 19.1607C31.3689 19.7178 30.4611 19.7178 29.9019 19.1613L17.045 6.36756C16.7763 6.10089 16.6286 5.74292 16.6286 5.35977C16.6286 4.97663 16.7762 4.61866 17.045 4.35129L17.1959 4.20109C17.7333 3.66577 18.6835 3.66577 19.2209 4.20109L22.1277 7.09414C22.6072 7.57055 23.3839 7.57189 23.8641 7.09414C24.3436 6.61772 24.3436 5.84416 23.8641 5.36641L21.9681 3.4798L22.7508 2.70095C23.1751 2.28013 23.9984 2.38334 24.5471 2.92988L33.3553 11.6957C33.9039 12.2416 34.0097 13.0602 33.5853 13.4831L32.803 14.2616L26.3905 7.88089C25.9117 7.40377 25.1342 7.40377 24.6548 7.88089C24.1753 8.35801 24.1753 9.13087 24.6548 9.60862L31.9284 16.8462C31.9306 16.8484 31.9324 16.8509 31.9347 16.8532C31.9369 16.8553 31.9393 16.8571 31.9415 16.8593L32.0784 16.9955C32.347 17.2621 32.4947 17.6201 32.4947 18.0032C32.4948 18.3857 32.3471 18.7438 32.0791 19.0105Z" fill="#1D1D1D"/>
<path d="M20.9012 16.6851L15.2496 22.3092L13.8823 20.9486L19.5339 15.324C20.0134 14.8469 20.0134 14.0733 19.5339 13.5962C19.0544 13.1191 18.2776 13.1191 17.7975 13.5962L12.1457 19.2206L8.13608 15.2307C6.61981 13.7227 4.15326 13.7227 2.6377 15.2307L2.48675 15.3809C1.2221 16.6398 1.01366 18.5567 1.8595 20.0333L0.977852 20.9109C-0.411367 22.2932 -0.30764 24.645 1.20792 26.1531L3.61669 28.55L2.13289 30.0268C1.65339 30.5039 1.65339 31.2775 2.13289 31.7545L4.38666 33.9971C4.62609 34.2354 4.93997 34.3545 5.25448 34.3545C5.56899 34.3545 5.88294 34.2354 6.1223 33.9965C6.6018 33.5194 6.6018 32.7465 6.1223 32.2688L4.73712 30.8903L5.35275 30.2777L10.0167 34.9189C10.8181 35.7163 11.8561 36.1206 12.8624 36.1206C13.7595 36.1206 14.6307 35.799 15.2857 35.1466L16.166 34.271C16.761 34.6085 17.4267 34.778 18.0928 34.778C19.0883 34.778 20.0839 34.4008 20.842 33.6457L20.993 33.4955C22.5085 31.9868 22.5085 29.5325 20.993 28.0244L16.9856 24.0368L22.6369 18.4129C23.1164 17.9358 23.1157 17.1622 22.6369 16.6852C22.158 16.2081 21.3807 16.2081 20.9012 16.6851ZM19.6735 30.762C19.6735 31.1444 19.5252 31.5025 19.2572 31.7691L19.1063 31.9193C18.5689 32.4547 17.6173 32.4547 17.0799 31.9193L16.9371 31.7772C16.937 31.7771 16.937 31.7771 16.9369 31.777C16.9369 31.777 16.9369 31.777 16.9368 31.7769L9.65632 24.5332C9.17753 24.0561 8.40011 24.0561 7.92061 24.5332C7.44112 25.0103 7.44112 25.7839 7.92061 26.2609L14.3319 32.6404L13.5493 33.4188C13.1243 33.8397 12.3018 33.7364 11.7524 33.1898L2.94356 24.4246C2.39493 23.8787 2.28986 23.0602 2.71413 22.6373L3.49765 21.8577L5.39416 23.7443C5.87365 24.2215 6.65037 24.2215 7.1305 23.7443C7.61 23.2672 7.61 22.4937 7.1305 22.0166L4.22303 19.1243C3.95502 18.8576 3.8067 18.4996 3.8067 18.1171C3.8067 17.7347 3.95502 17.3766 4.22303 17.11L4.37397 16.9604C4.91062 16.4251 5.86295 16.4251 6.39966 16.9604L11.2724 21.8091C11.2738 21.8105 11.2749 21.8121 11.2763 21.8134C11.2776 21.8148 11.2792 21.816 11.2806 21.8173L14.3712 24.8928C14.3742 24.8959 14.3768 24.8993 14.3798 24.9024C14.383 24.9055 14.3864 24.908 14.3894 24.911L19.2571 29.7548C19.5252 30.0215 19.6735 30.3795 19.6735 30.762Z" fill="#1D1D1D"/>
</svg>
