<svg width="43" height="33" viewBox="0 0 43 33" fill="none" xmlns="http://www.w3.org/2000/svg">
<path d="M40.1903 24.7719V8.10454L35.7044 2.42659H33.6122L32.4539 3.89268C29.4687 1.40473 25.5554 0 21.5 0C17.4446 0 13.5313 1.40473 10.5461 3.89268L9.38786 2.42666H7.29547L2.8097 8.10462V24.772C1.15991 25.4175 0 26.9239 0 28.675C0 31.0124 2.06644 32.9141 4.60654 32.9141H38.3935C40.9335 32.9141 43 31.0125 43 28.675C43 26.9239 41.8401 25.4175 40.1903 24.7719V24.7719ZM23.8201 24.436H19.1799V15.0244C19.1799 13.8472 20.2207 12.8894 21.5 12.8894C22.7793 12.8894 23.8201 13.8472 23.8201 15.0244V24.436ZM22.8453 26.7545V30.5955H20.1547V26.7545H22.8453ZM21.5 10.5708C18.8314 10.5708 16.6604 12.5687 16.6604 15.0244V24.436H13.8737V11.3735C15.4362 8.84709 18.314 7.2956 21.5001 7.2956C24.6863 7.2956 27.5639 8.84709 29.1265 11.3735V24.436H26.3397V15.0244C26.3396 12.5687 24.1685 10.5708 21.5 10.5708V10.5708ZM5.32923 21.8414H11.3541V24.436H5.32923V21.8414ZM11.3541 11.1686V19.5228H5.32923V11.1686H11.3541ZM37.6708 19.5228H31.6459V11.1686H37.6708V19.5228ZM31.6459 21.8414H37.6708V24.436H32.2918H31.6459V21.8414ZM34.6583 5.0453L37.6643 8.8501H31.6524L34.6583 5.0453ZM21.5 2.31854C25.0204 2.31854 28.4145 3.57032 30.9626 5.78036L29.3145 7.86642C28.7696 7.38602 28.172 6.95431 27.5282 6.57979C25.7258 5.53134 23.6413 4.97713 21.5 4.97713C19.3587 4.97713 17.2742 5.53134 15.4718 6.57979C14.8279 6.95431 14.2303 7.3861 13.6854 7.86642L12.0374 5.78036C14.5855 3.57024 17.9796 2.31854 21.5 2.31854V2.31854ZM8.34166 5.0453L11.3476 8.8501H5.3357L8.34166 5.0453ZM2.51953 28.675C2.51953 27.6161 3.4557 26.7545 4.60654 26.7545H17.6352V30.5955H4.60654C3.4557 30.5955 2.51953 29.734 2.51953 28.675V28.675ZM38.3935 30.5955H25.3649V26.7545H38.3935C39.5442 26.7545 40.4805 27.616 40.4805 28.675C40.4805 29.7341 39.5443 30.5955 38.3935 30.5955V30.5955Z" fill="#1D1D1D"/>
<path d="M7.08179 12.7676H9.60132V15.1575H7.08179V12.7676Z" fill="#1D1D1D"/>
<path d="M33.3987 12.7676H35.9182V15.1575H33.3987V12.7676Z" fill="#1D1D1D"/>
</svg>
