<svg width="31" height="27" viewBox="0 0 31 27" fill="none" xmlns="http://www.w3.org/2000/svg">
<path d="M30.4804 14.1587L28.8486 13.2124L25.6831 18.6623L27.3148 19.6086C27.8042 19.9023 28.4571 19.7391 28.718 19.2496L30.8391 15.5946C31.1658 15.0724 30.97 14.4523 30.4803 14.1587L30.4804 14.1587Z" fill="#505769"/>
<path d="M27.5434 9.94869L10.7367 0.158376C10.182 -0.168061 9.49658 0.0279371 9.17035 0.582692L4.9604 7.76226C4.63396 8.31701 4.82996 9.00242 5.38472 9.32865L12.2053 13.31L9.46407 17.1936C9.13764 17.6505 8.61564 17.9115 8.06091 17.9115H3.26343V14.9418C3.26343 13.7343 2.28434 12.7227 1.04441 12.7227H0.587302C0.260865 12.7227 0 12.9838 0 13.31V25.7437C0 26.0702 0.261104 26.331 0.587302 26.331H1.07672C2.28414 26.331 3.29575 25.3519 3.29575 24.112V21.1422H8.093C9.72472 21.1422 11.226 20.3589 12.1723 19.0211L15.0768 14.9092L22.2237 19.0864C22.7784 19.4129 23.4638 19.2169 23.7901 18.6621L27.9998 11.4499C28.2613 10.9607 28.0981 10.2427 27.5434 9.94886L27.5434 9.94869ZM21.5714 13.9629C21.4081 14.224 21.147 14.3544 20.8534 14.3544C20.723 14.3544 20.5597 14.3219 20.4291 14.2565L10.4756 8.44763C10.0841 8.21908 9.9534 7.72967 10.1819 7.33812C10.4105 6.94656 10.8999 6.81592 11.2915 7.04446L21.2776 12.8534C21.6691 13.0492 21.7995 13.5711 21.5712 13.9629H21.5714Z" fill="#505769"/>
</svg>
