<svg width="69" height="49" viewBox="0 0 69 49" fill="none" xmlns="http://www.w3.org/2000/svg">
<path d="M63.232 0.14917H5.76797C2.73574 0.14917 0.269531 2.68686 0.269531 5.80698V28.0638C0.269531 31.1839 2.73574 33.7216 5.76797 33.7216H63.2455C66.2777 33.7216 68.7439 31.1839 68.7439 28.0638V5.80698C68.7305 2.68686 66.2643 0.14917 63.232 0.14917V0.14917ZM64.9301 28.0638C64.9301 29.0207 64.1754 29.7972 63.2455 29.7972H5.76797C4.83809 29.7972 4.0834 29.0207 4.0834 28.0638V5.80698C4.0834 4.85015 4.83809 4.07358 5.76797 4.07358H63.2455C64.1754 4.07358 64.9301 4.85015 64.9301 5.80698V28.0638Z" fill="#505769"/>
<path d="M59.472 22.309H9.52788C8.47671 22.309 7.62769 23.1826 7.62769 24.2642C7.62769 25.3459 8.47671 26.2195 9.52788 26.2195H59.4855C60.5367 26.2195 61.3857 25.3459 61.3857 24.2642C61.3857 23.1826 60.5232 22.309 59.472 22.309Z" fill="#505769"/>
<path d="M59.6473 7.44336C58.5961 7.44336 57.7471 8.31699 57.7471 9.39863V10.0504C57.7471 11.132 58.5961 12.0057 59.6473 12.0057C60.6984 12.0057 61.5475 11.132 61.5475 10.0504V9.39863C61.5475 8.31699 60.6984 7.44336 59.6473 7.44336Z" fill="#505769"/>
<path d="M59.6473 14.8484C58.5961 14.8484 57.7471 15.722 57.7471 16.8037V17.4554C57.7471 18.5371 58.5961 19.4107 59.6473 19.4107C60.6984 19.4107 61.5475 18.5371 61.5475 17.4554V16.8037C61.5475 15.7359 60.6984 14.8484 59.6473 14.8484Z" fill="#505769"/>
<path d="M14.4064 36.717C13.3822 36.4535 12.3579 37.0914 12.1019 38.1453L10.6869 43.9418C10.4308 44.9957 11.0507 46.0634 12.0749 46.3131C13.2474 46.5904 14.1638 45.7722 14.3794 44.8847L15.7945 39.0883C16.0505 38.0482 15.4306 36.9804 14.4064 36.717V36.717Z" fill="#505769"/>
<path d="M27.8021 38.9773C26.7509 38.8802 25.8345 39.6845 25.7536 40.7662L25.282 46.7291C25.2011 47.8107 25.9693 48.7814 27.0204 48.8369C28.112 48.9062 28.988 48.0742 29.0689 47.048L29.5406 41.0851C29.6349 40.0173 28.8532 39.0744 27.8021 38.9773Z" fill="#505769"/>
<path d="M56.898 38.1453C56.6419 37.0914 55.6042 36.4674 54.5935 36.717C53.5693 36.9804 52.9494 38.0482 53.2054 39.0883L54.6204 44.8847C54.8361 45.7722 55.766 46.5904 56.9249 46.3131C57.9492 46.0634 58.5691 44.9818 58.313 43.9418L56.898 38.1453Z" fill="#505769"/>
<path d="M41.1979 38.9773C40.1467 39.0605 39.365 40.0035 39.4594 41.0851L39.9311 47.048C40.0119 48.0742 40.9014 48.9062 41.9795 48.8369C43.0307 48.7675 43.7988 47.8107 43.718 46.7291L43.2463 40.7662C43.152 39.6984 42.249 38.8802 41.1979 38.9773Z" fill="#505769"/>
</svg>
