<svg width="44" height="40" viewBox="0 0 44 40" fill="none" xmlns="http://www.w3.org/2000/svg">
<path d="M41.8871 26.349H38.6126V15.5675C38.6126 14.6106 37.7569 13.8321 36.705 13.8321H29.2238V12.419H32.9019C33.3584 12.419 33.7592 12.1686 33.923 11.7809C34.0868 11.3934 33.9738 10.9631 33.6349 10.6849L29.3152 7.13767C28.8973 6.79452 28.267 6.79437 27.849 7.13767L23.5293 10.6849C23.1904 10.9631 23.0774 11.3934 23.2412 11.7809C23.405 12.1685 23.8058 12.419 24.2623 12.419H27.9403V13.8321H6.02104V9.15388C6.02104 8.89504 6.25251 8.68447 6.53694 8.68447H18.1485C18.433 8.68447 18.6644 8.89504 18.6644 9.15388V11.6893C18.6644 12.0118 18.9517 12.2732 19.3062 12.2732C19.6607 12.2732 19.948 12.0118 19.948 11.6893V9.15388C19.948 8.25118 19.1407 7.51678 18.1485 7.51678H6.53702C5.54477 7.51678 4.7376 8.25118 4.7376 9.15388V13.8321H0.641765C0.287254 13.8321 0 14.0935 0 14.416V38.7663C0 39.0887 0.287254 39.3501 0.641765 39.3501C0.996277 39.3501 1.28353 39.0887 1.28353 38.7663V20.1459H37.3291V38.7663C37.3291 39.0887 37.6164 39.3501 37.9709 39.3501C38.3254 39.3501 38.6126 39.0887 38.6126 38.7663V30.8478H42.5277V38.7663C42.5277 39.0887 42.8149 39.3501 43.1694 39.3501C43.5239 39.3501 43.8112 39.0887 43.8112 38.7663V28.0996C43.8112 27.1343 42.9481 26.349 41.8871 26.349ZM28.5821 8.10872L32.4092 11.2514H24.755L28.5821 8.10872ZM32.5805 14.9998V18.9782H29.2238V14.9998H32.5805ZM27.9402 18.9782H24.5836V14.9998H27.9402V18.9782ZM15.3023 14.9998H18.6591V18.9782H15.3023V14.9998ZM14.0188 18.9782H10.6614V14.9998H14.0188V18.9782ZM19.9426 14.9998H23.3001V18.9782H19.9426V14.9998ZM1.28353 14.9998H4.73751V18.9782H1.28353V14.9998ZM6.02104 14.9998H9.37782V18.9782H6.02104V14.9998ZM33.8641 18.9782V14.9998H36.705C37.0491 14.9998 37.3291 15.2544 37.3291 15.5675V18.9782H33.8641ZM38.6126 29.6801V27.5167H41.8871C42.2403 27.5167 42.5277 27.7781 42.5277 28.0995V29.6801H38.6126Z" fill="#1D1D1D"/>
<path d="M15.4169 24.0813H6.68254C6.32803 24.0813 6.04077 24.3427 6.04077 24.6651V27.439C6.04077 27.7614 6.32803 28.0228 6.68254 28.0228H7.25833V35.6484C7.25833 35.9709 7.54558 36.2323 7.90009 36.2323H14.1992C14.5537 36.2323 14.841 35.9709 14.841 35.6484V28.0228H15.4168C15.7713 28.0228 16.0586 27.7614 16.0586 27.439V24.6651C16.0586 24.3427 15.7713 24.0813 15.4169 24.0813V24.0813ZM7.3243 25.249H14.7751V26.8551H7.3243V25.249ZM8.54186 35.0645V32.9065H13.5575V35.0645H8.54186ZM13.5575 31.7389H8.54186V28.0228H13.5575V31.7389Z" fill="#1D1D1D"/>
<path d="M31.9439 24.0813H23.2096C22.8551 24.0813 22.5679 24.3427 22.5679 24.6651V27.439C22.5679 27.7614 22.8551 28.0228 23.2096 28.0228H30.0847V31.7389H25.069V30.1693C25.069 29.8469 24.7817 29.5855 24.4272 29.5855C24.0727 29.5855 23.7854 29.8469 23.7854 30.1693V35.6484C23.7854 35.9708 24.0727 36.2322 24.4272 36.2322H30.7264C31.0809 36.2322 31.3682 35.9708 31.3682 35.6484V28.0227H31.944C32.2985 28.0227 32.5857 27.7613 32.5857 27.4389V24.6651C32.5857 24.3427 32.2984 24.0813 31.9439 24.0813V24.0813ZM25.069 35.0645V32.9065H30.0847V35.0645H25.069ZM23.8514 26.8551V25.249H31.3021V26.8551H23.8514Z" fill="#1D1D1D"/>
<path d="M8.07731 10.1663C7.7228 10.1663 7.43555 10.4277 7.43555 10.7501C7.43555 11.0725 7.7228 11.3339 8.07731 11.3339H11.484C11.8385 11.3339 12.1257 11.0725 12.1257 10.7501C12.1257 10.4277 11.8385 10.1663 11.484 10.1663H8.07731Z" fill="#1D1D1D"/>
<path d="M34.1457 2.76112C34.4642 2.90264 34.8484 2.78245 35.004 2.49278C35.4429 1.6754 36.3363 1.16769 37.3355 1.16769C38.7653 1.16769 39.9286 2.22593 39.9286 3.52673C39.9286 4.82754 38.7653 5.88578 37.3355 5.88578C36.3549 5.88578 35.469 5.39161 35.0233 4.5961C34.8624 4.30885 34.476 4.19465 34.1601 4.341C33.8444 4.48743 33.7188 4.83898 33.8797 5.12631C34.5456 6.3151 35.8698 7.05355 37.3355 7.05355C39.473 7.05355 41.2121 5.47148 41.2121 3.52681C41.2121 1.58214 39.4731 0 37.3355 0C35.842 0 34.5066 0.758843 33.8506 1.98025C33.6951 2.26999 33.8272 2.6196 34.1457 2.76112V2.76112Z" fill="#1D1D1D"/>
</svg>
