<svg width="56" height="63" viewBox="0 0 56 63" fill="none" xmlns="http://www.w3.org/2000/svg">
<path d="M12.0625 44.1025V63H16.0469V44.1025C18.3656 43.3406 20.0312 41.289 20.0312 38.8828C20.0312 36.4766 18.3656 34.4251 16.0469 33.6632V9.22852C16.0469 6.17535 18.728 3.69141 22.0234 3.69141H29.9922C33.2877 3.69141 35.9688 6.17535 35.9688 9.22852V11.0742H29.9922C26.6967 11.0742 24.0156 13.5582 24.0156 16.6113V18.457H20.0312V22.1484H55.8906V18.457H51.9062V16.6113C51.9062 13.5582 49.2252 11.0742 45.9297 11.0742H39.9531V9.22852C39.9531 4.13991 35.4846 0 29.9922 0H22.0234C16.531 0 12.0625 4.13991 12.0625 9.22852V33.6632C10.3673 34.2202 9.02202 35.4665 8.42078 37.0371H0.109375V40.7285H8.42078C9.02202 42.2991 10.3673 43.5454 12.0625 44.1025V44.1025ZM47.9219 16.6113V18.457H28V16.6113C28 15.5936 28.8937 14.7656 29.9922 14.7656H45.9297C47.0282 14.7656 47.9219 15.5936 47.9219 16.6113ZM14.0547 37.0371C15.1532 37.0371 16.0469 37.8651 16.0469 38.8828C16.0469 39.9005 15.1532 40.7285 14.0547 40.7285C12.9562 40.7285 12.0625 39.9005 12.0625 38.8828C12.0625 37.8651 12.9562 37.0371 14.0547 37.0371Z" fill="#505769"/>
<path d="M24.0156 25.8398H28V33.3457H24.0156V25.8398Z" fill="#505769"/>
<path d="M31.9844 25.8398H35.9688V33.3457H31.9844V25.8398Z" fill="#505769"/>
<path d="M39.9531 25.8398H43.9375V33.3457H39.9531V25.8398Z" fill="#505769"/>
<path d="M47.9219 25.8398H51.9062V33.3457H47.9219V25.8398Z" fill="#505769"/>
<path d="M24.0156 37.0371H28V44.4199H24.0156V37.0371Z" fill="#505769"/>
<path d="M31.9844 37.0371H35.9688V44.4199H31.9844V37.0371Z" fill="#505769"/>
<path d="M39.9531 37.0371H43.9375V44.4199H39.9531V37.0371Z" fill="#505769"/>
<path d="M47.9219 37.0371H51.9062V44.4199H47.9219V37.0371Z" fill="#505769"/>
<path d="M24.0156 48.1113H28V55.4941H24.0156V48.1113Z" fill="#505769"/>
<path d="M31.9844 48.1113H35.9688V55.4941H31.9844V48.1113Z" fill="#505769"/>
<path d="M39.9531 48.1113H43.9375V55.4941H39.9531V48.1113Z" fill="#505769"/>
<path d="M47.9219 48.1113H51.9062V55.4941H47.9219V48.1113Z" fill="#505769"/>
</svg>
