<svg width="44" height="43" viewBox="0 0 44 43" fill="none" xmlns="http://www.w3.org/2000/svg">
<path fill-rule="evenodd" clip-rule="evenodd" d="M22 0C9.86595 0 0 9.57755 0 21.3569C0 33.1362 9.86595 42.7138 22 42.7138C34.134 42.7138 44 33.1362 44 21.3569C44 9.57755 34.134 0 22 0ZM22 2.613C32.6796 2.613 41.3085 10.9893 41.3085 21.3571C41.3085 31.7248 32.68 40.1011 22 40.1011C11.32 40.1011 2.69151 31.7248 2.69151 21.3571C2.69151 10.9893 11.32 2.613 22 2.613V2.613Z" fill="#1D1D1D"/>
<path fill-rule="evenodd" clip-rule="evenodd" d="M13.7378 11.5741C12.7427 11.5741 11.9236 12.3693 11.9236 13.3353V29.3775C11.9236 30.3435 12.7427 31.1387 13.7378 31.1387H30.2631C31.2582 31.1387 32.0773 30.3435 32.0773 29.3775V13.3353C32.0773 12.3693 31.2582 11.5741 30.2631 11.5741H13.7378ZM13.7378 12.7132H30.2631C30.6283 12.7132 30.9039 12.9807 30.9039 13.3353V29.3775C30.9039 29.7321 30.6283 29.9995 30.2631 29.9995L13.7378 29.9992C13.3726 29.9992 13.097 29.7317 13.097 29.3772V13.3349C13.097 12.9804 13.3726 12.7129 13.7378 12.7129V12.7132ZM16.3101 13.6177L16.3098 13.6173C15.7754 13.6173 15.2629 13.8236 14.8847 14.1904C14.5068 14.5575 14.2944 15.0551 14.2944 15.5738C14.2944 16.0929 14.5068 16.5905 14.8847 16.9573C15.2629 17.3244 15.7754 17.5303 16.3098 17.5303C16.8442 17.5303 17.3571 17.3244 17.7349 16.9573C18.1128 16.5905 18.3252 16.0929 18.3252 15.5738C18.3252 15.0551 18.1128 14.5575 17.7349 14.1904C17.3571 13.8236 16.8442 13.6173 16.3098 13.6173L16.3101 13.6177ZM27.0587 13.6177L27.0584 13.6173C26.524 13.6173 26.0114 13.8236 25.6333 14.1904C25.2554 14.5575 25.0433 15.0551 25.0433 15.5738C25.0433 16.0929 25.2554 16.5905 25.6333 16.9573C26.0114 17.3244 26.524 17.5303 27.0584 17.5303C27.5931 17.5303 28.1056 17.3244 28.4835 16.9573C28.8617 16.5905 29.0738 16.0929 29.0738 15.5738C29.0738 15.0551 28.8617 14.5575 28.4835 14.1904C28.1056 13.8236 27.5931 13.6173 27.0584 13.6173L27.0587 13.6177ZM21.6842 19.2697V19.2694C21.1495 19.2694 20.637 19.4756 20.2591 19.8424C19.8813 20.2096 19.6688 20.7071 19.6688 21.2259C19.6688 21.745 19.8813 22.2425 20.2591 22.6093C20.637 22.9761 21.1495 23.1824 21.6842 23.1824C22.2186 23.1824 22.7312 22.9761 23.1094 22.6093C23.4872 22.2425 23.6997 21.745 23.6997 21.2259C23.6997 20.7071 23.4872 20.2096 23.1094 19.8424C22.7312 19.4756 22.2186 19.2694 21.6842 19.2694V19.2697ZM16.3098 24.9217V24.9214C15.7754 24.9214 15.2629 25.1276 14.8847 25.4944C14.5068 25.8616 14.2944 26.3591 14.2944 26.8779C14.2944 27.397 14.5068 27.8946 14.8847 28.2614C15.2629 28.6282 15.7754 28.8344 16.3098 28.8344C16.8442 28.8344 17.3571 28.6282 17.7349 28.2614C18.1128 27.8945 18.3252 27.397 18.3252 26.8779C18.3252 26.3591 18.1128 25.8616 17.7349 25.4944C17.3571 25.1276 16.8442 24.9214 16.3098 24.9214V24.9217ZM27.0584 24.9217V24.9214C26.524 24.9214 26.0114 25.1276 25.6332 25.4944C25.2554 25.8616 25.0433 26.3591 25.0433 26.8779C25.0433 27.397 25.2554 27.8946 25.6332 28.2614C26.0114 28.6282 26.524 28.8344 27.0584 28.8344C27.5931 28.8344 28.1056 28.6282 28.4835 28.2614C28.8617 27.8945 29.0738 27.397 29.0738 26.8779C29.0738 26.3591 28.8617 25.8616 28.4835 25.4944C28.1056 25.1276 27.5931 24.9214 27.0584 24.9214V24.9217Z" fill="#1D1D1D"/>
</svg>
