<svg width="50" height="36" viewBox="0 0 50 36" fill="none" xmlns="http://www.w3.org/2000/svg">
<path d="M49.9994 32.6576C49.9994 34.0387 49.9994 35.1553 49.9994 35.1553H25.001C25.001 35.1553 25.0011 34.0366 25.0011 32.6567C25.0011 31.2768 25.001 30.1582 25.001 30.1582H49.9994C49.9994 30.1582 49.9994 31.2748 49.9994 32.6559V32.6576Z" fill="#214A4D"/>
<path d="M49.9992 17.5775C49.9992 18.9585 49.9975 20.0751 49.9975 20.0751H3.1012e-05C3.1012e-05 20.0751 0 18.9565 0 17.5766C0 16.1967 2.11869e-05 15.0781 2.11869e-05 15.0781H49.9975C49.9975 15.0781 49.9975 16.198 49.9975 17.5758L49.9992 17.5775Z" fill="#214A4D"/>
<path d="M50 4.99705C50 4.99705 50 3.87841 50 2.49852C50 1.11864 50 0 50 0H14.9995C14.9995 0 14.9995 1.11862 14.9995 2.49852C14.9995 3.87841 14.9995 4.99705 14.9995 4.99705H50Z" fill="#214A4D"/>
</svg>
