<svg width="31" height="30" viewBox="0 0 31 30" fill="none" xmlns="http://www.w3.org/2000/svg">
<path d="M2.0337 21.2277C4.12244 19.143 7.52064 19.143 9.60938 21.2274C9.60961 21.2277 9.60961 21.2277 9.60984 21.2279C12.6205 24.2324 17.494 24.2334 20.5058 21.2281C20.506 21.2279 20.5062 21.2277 20.5067 21.2272C22.5952 19.143 25.9934 19.143 28.0819 21.2277C28.5405 21.6852 29.284 21.6852 29.7425 21.2277C30.2009 20.7699 30.2009 20.0281 29.7425 19.5703C27.3407 17.1733 23.7349 16.6931 20.8502 18.1286V3.47626C20.8502 2.85164 21.3593 2.34352 21.9852 2.34352C22.611 2.34352 23.1201 2.85187 23.1201 3.47626C23.1201 4.12354 23.6457 4.64814 24.2943 4.64814C24.9426 4.64814 25.4682 4.12354 25.4682 3.47626C25.4682 1.5596 23.9058 0 21.9852 0C20.0645 0 18.5019 1.5596 18.5019 3.47626V6.91361H11.6139V3.47626C11.6139 2.85164 12.1231 2.34352 12.7487 2.34352C13.3747 2.34352 13.8836 2.85187 13.8836 3.47626C13.8836 4.12354 14.4095 4.64814 15.0578 4.64814C15.7063 4.64814 16.232 4.12354 16.232 3.47626C16.232 1.5596 14.6695 0 12.7487 0C10.8283 0 9.26561 1.5596 9.26561 3.47626V18.1286C6.38087 16.6931 2.77512 17.1735 0.373353 19.5703C-0.085307 20.0281 -0.085307 20.7699 0.373353 21.2277C0.831783 21.6852 1.57527 21.6852 2.0337 21.2277V21.2277ZM11.6139 19.8839V16.171H18.5019V19.8839C16.5455 21.5291 13.6302 21.5792 11.6139 19.8839ZM18.5019 9.25737V13.8272H11.6139V9.25737H18.5019ZM29.7425 26.0887C30.2009 26.5464 30.2009 27.2882 29.7425 27.7458C29.284 28.2035 28.5405 28.2035 28.0819 27.7458C25.9934 25.6613 22.5947 25.6613 20.5062 27.7458C17.4947 30.7517 12.6207 30.7512 9.60961 27.7458C7.52087 25.6613 4.12244 25.6613 2.0337 27.7458C1.57527 28.2035 0.831783 28.2035 0.373353 27.7458C-0.0850777 27.2882 -0.085307 26.5462 0.373353 26.0887C3.37757 23.0903 8.26574 23.0903 11.27 26.0887C13.3637 28.1784 16.7525 28.1781 18.8459 26.0887C21.8501 23.0903 26.7382 23.0903 29.7425 26.0887Z" fill="#85644F"/>
</svg>
