<svg width="50" height="43" viewBox="0 0 50 43" fill="none" xmlns="http://www.w3.org/2000/svg">
<path d="M49.979 30.5102L48.4061 17.9754C48.0186 14.885 45.8801 12.4791 43.2457 11.9725L41.8791 6.78822C40.8093 2.72739 37.5906 0 33.8697 0H15.7094C12.2699 0 9.22196 2.35013 7.94488 5.98744L5.73656 12.275C3.58553 13.1351 1.92929 15.2943 1.59283 17.9742L0.0209625 30.509C-0.0644537 31.19 0.11367 31.8792 0.509502 32.3989C0.905333 32.9185 1.47929 33.2174 2.08345 33.2174H4.16677V40.3355C4.16677 41.6452 5.1001 42.7081 6.2501 42.7081H15.625C16.775 42.7081 17.7084 41.6452 17.7084 40.3355V33.2174H32.2916V40.3355C32.2916 41.6452 33.225 42.7081 34.375 42.7081H43.7499C44.8999 42.7081 45.8332 41.6452 45.8332 40.3355V33.2174H47.9165C48.5207 33.2174 49.0947 32.9197 49.4905 32.4C49.8863 31.8804 50.0645 31.19 49.979 30.5102ZM11.8136 7.74915C12.4553 5.92457 13.9834 4.74535 15.7094 4.74535H33.8697C35.7374 4.74535 37.352 6.11438 37.8885 8.15132L38.8676 11.8634H10.3688L11.8136 7.74915ZM13.5417 37.9628H8.33342V33.2174H13.5417V37.9628ZM41.6666 37.9628H36.4583V33.2174H41.6666V37.9628ZM43.7499 28.4721H34.375H15.625H6.2501H4.48552L4.9324 24.9131H10.4167C11.5667 24.9131 12.5001 23.8501 12.5001 22.5404C12.5001 21.2307 11.5667 20.1677 10.4167 20.1677H5.52718L5.71781 18.6457C5.86364 17.4842 6.75009 16.6087 7.7803 16.6087H41.6666H42.2197C43.2489 16.6087 44.1353 17.4842 44.2811 18.6457L44.4728 20.1677H39.5833C38.4333 20.1677 37.4999 21.2307 37.4999 22.5404C37.4999 23.8501 38.4333 24.9131 39.5833 24.9131H45.0686L45.5155 28.4721H43.7499Z" fill="#85644F"/>
</svg>
