<svg width="26" height="28" viewBox="0 0 26 28" fill="none" xmlns="http://www.w3.org/2000/svg">
<path d="M3.12252 15.3561C2.77494 17.1011 3.88682 18.8118 5.62993 19.188C7.3912 19.5703 9.13384 18.4482 9.51435 16.687L10.0505 11.7703C8.28918 10.8146 8.93457 14.776 5.8924 14.1195C3.80291 13.6672 3.23335 15.0042 3.12252 15.3561Z" fill="#85644F"/>
<path d="M25.741 21.2597C25.6033 20.8467 25.1554 20.6185 24.7432 20.7592L22.5491 21.4887L21.1693 17.3385C22.3026 16.7823 23.2316 15.8966 23.8071 14.7473C24.5028 13.3589 24.6157 11.7827 24.101 10.2444L20.4962 1.91235L10.9109 5.10169L11.5511 7.7071L3.35888 5.93607L0.657479 14.6753C0.32954 16.1937 0.611986 17.7485 1.45371 19.0534C2.1494 20.1333 3.16883 20.9132 4.35553 21.3429L3.43083 25.6177L1.17421 25.1308C0.749735 25.0454 0.328405 25.3094 0.236282 25.7361C0.144093 26.1624 0.414648 26.5817 0.841323 26.6741L3.86225 27.3268C3.86445 27.3268 3.86559 27.3287 3.86713 27.3287C3.87053 27.3298 3.87454 27.3287 3.87801 27.3298L6.89988 27.9825C6.95639 27.9948 7.01184 28.0001 7.06749 28.0001C7.43103 28.0001 7.75797 27.7474 7.83793 27.3774C7.92945 26.9508 7.65923 26.5316 7.23256 26.4391L4.97433 25.9508L5.89568 21.6935C6.04693 21.7058 6.1979 21.7183 6.34921 21.7183C9.06171 21.7183 11.4479 19.7904 12.0323 17.0713L12.6728 12.2703L13.0933 13.9803C13.8845 16.3602 16.1002 17.9592 18.606 17.9592C18.9659 17.9592 19.3221 17.916 19.6748 17.8493L21.051 21.9874L18.8611 22.7153C18.4469 22.8527 18.2228 23.2998 18.3603 23.7128C18.4706 24.0438 18.7788 24.2535 19.1095 24.2535C19.1918 24.2535 19.2762 24.2411 19.3586 24.2131L25.2402 22.2577C25.6547 22.1198 25.8788 21.6727 25.741 21.2597ZM10.4789 16.8008C9.99836 19.0318 7.69918 20.5292 5.44596 20.0419H5.44469C4.33889 19.8035 3.39262 19.149 2.7801 18.1985C2.16778 17.2479 1.96115 16.1154 2.18301 15.0755L4.43936 7.78472L11.4757 9.30598L10.4789 16.8008ZM14.609 13.5429L12.7912 6.13962L19.6229 3.86689L22.6276 10.8071C22.9851 11.8809 22.9016 13.0292 22.3964 14.0403C21.8895 15.0514 21.0196 15.8053 19.9452 16.1618C19.511 16.3078 19.0597 16.3807 18.6064 16.3807C16.7812 16.3807 15.1682 15.2163 14.609 13.5429Z" fill="#85644F"/>
<path d="M21.7508 11.2524C21.5988 10.9153 20.8918 9.64668 18.8632 10.3208C15.9076 11.3038 16.1213 7.29519 14.4754 8.43526L15.5378 13.2634C16.1071 14.9723 17.961 15.9016 19.6687 15.3325C21.3623 14.7688 22.2832 12.948 21.7508 11.2524Z" fill="#85644F"/>
<path d="M8.15126 1.78459C8.64267 1.75794 9.02078 1.33714 8.99433 0.844998C8.96781 0.352055 8.54627 -0.0253858 8.05493 0.00133565C7.56146 0.0279903 7.18341 0.448786 7.2102 0.94153C7.23712 1.43381 7.65852 1.81125 8.15126 1.78459Z" fill="#85644F"/>
<path d="M11.6023 3.34404C12.0934 3.31739 12.4718 2.89659 12.4451 2.40392C12.4183 1.91164 11.9968 1.534 11.5057 1.56065C11.0124 1.58744 10.6343 2.00811 10.6609 2.50031C10.6875 2.99299 11.1088 3.37077 11.6023 3.34404Z" fill="#85644F"/>
<path d="M7.65408 4.09358C7.68067 4.58639 8.10206 4.96403 8.59341 4.93717C9.08688 4.91058 9.46499 4.48979 9.4384 3.99711C9.41155 3.5049 8.99008 3.12726 8.49674 3.15392C8.00553 3.18057 7.62763 3.60137 7.65408 4.09358Z" fill="#85644F"/>
</svg>
