<svg width="30" height="30" viewBox="0 0 30 30" fill="none" xmlns="http://www.w3.org/2000/svg">
<path d="M20.625 15C20.625 16.3008 20.5547 17.5547 20.4316 18.75H9.56836C9.43945 17.5547 9.375 16.3008 9.375 15C9.375 13.6992 9.44531 12.4453 9.56836 11.25H20.4316C20.5605 12.4453 20.625 13.6992 20.625 15ZM22.3125 11.25H29.5254C29.8359 12.4512 30 13.7051 30 15C30 16.2949 29.8359 17.5488 29.5254 18.75H22.3125C22.4355 17.543 22.5 16.2891 22.5 15C22.5 13.7109 22.4355 12.457 22.3125 11.25ZM28.9102 9.375H22.0723C21.4863 5.63086 20.3262 2.49609 18.832 0.492187C23.4199 1.70508 27.1523 5.0332 28.9043 9.375H28.9102ZM20.1738 9.375H9.82617C10.1836 7.24219 10.7344 5.35547 11.4082 3.82617C12.0234 2.44336 12.709 1.44141 13.3711 0.808594C14.0273 0.1875 14.5723 0 15 0C15.4277 0 15.9727 0.1875 16.6289 0.808594C17.291 1.44141 17.9766 2.44336 18.5918 3.82617C19.2715 5.34961 19.8223 7.23633 20.1738 9.375V9.375ZM7.92773 9.375H1.08984C2.84766 5.0332 6.57422 1.70508 11.168 0.492187C9.67383 2.49609 8.51367 5.63086 7.92773 9.375V9.375ZM0.474609 11.25H7.6875C7.56445 12.457 7.5 13.7109 7.5 15C7.5 16.2891 7.56445 17.543 7.6875 18.75H0.474609C0.164063 17.5488 0 16.2949 0 15C0 13.7051 0.164063 12.4512 0.474609 11.25ZM11.4082 26.168C10.7285 24.6445 10.1836 22.7578 9.82617 20.625H20.1738C19.8164 22.7578 19.2656 24.6445 18.5918 26.168C17.9766 27.5508 17.291 28.5527 16.6289 29.1855C15.9727 29.8125 15.4277 30 15 30C14.5723 30 14.0273 29.8125 13.3711 29.1914C12.709 28.5586 12.0234 27.5566 11.4082 26.1738V26.168ZM7.92773 20.625C8.51367 24.3691 9.67383 27.5039 11.168 29.5078C6.57422 28.2949 2.84766 24.9668 1.08984 20.625H7.92773ZM28.9102 20.625C27.1523 24.9668 23.4258 28.2949 18.8379 29.5078C20.332 27.5039 21.4863 24.3691 22.0781 20.625H28.9102V20.625Z" fill="white"/>
</svg>
