<svg width="32" height="31" viewBox="0 0 32 31" fill="none" xmlns="http://www.w3.org/2000/svg">
<g clip-path="url(#clip0_30_661)">
<path d="M29.617 16.2816V14.826C29.617 13.2609 28.3575 11.5928 26.4783 11.5928H5.55574C3.65617 11.5928 2.38295 13.2673 2.38295 14.826V16.3009C1.18468 16.6744 0.360826 17.7242 0.340401 18.9221V22.4129C0.340401 25.1244 2.17187 27.1531 5.10638 27.9517V29.6262C5.10638 29.9805 5.41276 30.2703 5.78725 30.2703C6.16174 30.2703 6.46813 29.9805 6.46813 29.6262V28.2351C6.99919 28.3059 7.53708 28.3381 8.07491 28.3381H23.9592C24.4834 28.3381 25.0145 28.306 25.5319 28.2351V29.6262C25.5319 29.9805 25.8383 30.2703 26.2128 30.2703C26.5873 30.2703 26.8937 29.9805 26.8937 29.6262V27.9646C29.8281 27.166 31.6596 25.1372 31.6596 22.4194V18.9287C31.6596 17.7243 30.7949 16.6809 29.617 16.2816ZM16.6808 12.881H26.4783C27.5268 12.881 28.2553 13.905 28.2553 14.826V16.1334C26.7506 16.2945 25.5319 17.4988 25.5319 18.9286V21.1312C25.5319 21.1441 25.3889 22.5417 23.9592 22.5417H16.6808V12.881ZM3.7447 14.826C3.7447 13.9115 4.52087 12.881 5.55574 12.881H15.3192V22.5418H8.07491C6.64513 22.5418 6.46813 21.1442 6.46813 21.1313V18.9287C6.46813 17.2928 5.3243 16.1013 3.7447 16.1013V14.826ZM30.2979 22.4194C30.2979 25.2339 27.8128 27.0501 23.9592 27.0501H8.07491C4.20089 27.0501 1.70215 25.2339 1.70215 22.4194V18.9287C1.70215 18.7741 1.75659 17.3894 3.7447 17.3894C4.68427 17.3893 5.10638 18.1622 5.10638 18.9286V21.1312C5.10638 21.8526 5.80768 23.8298 8.07491 23.8298H23.9592C26.1583 23.8298 26.8936 21.9749 26.8936 21.1312V18.9286C26.8936 18.0978 27.6766 17.3893 28.5958 17.3893C29.5149 17.3893 30.2979 18.0914 30.2979 18.9286V22.4194V22.4194Z" fill="#85644F"/>
<path d="M5.78726 9.66073H26.2128C26.5873 9.66073 26.8937 9.37091 26.8937 9.01666V0.644069C26.8936 0.289822 26.5872 0 26.2128 0H5.78726C5.41277 0 5.10638 0.289822 5.10638 0.644069V9.01672C5.10638 9.37091 5.41277 9.66073 5.78726 9.66073ZM6.46807 1.28808H25.5319V8.37259H6.46807V1.28808Z" fill="#85644F"/>
</g>
<defs>
<clipPath id="clip0_30_661">
<rect width="32" height="30.2703" fill="white"/>
</clipPath>
</defs>
</svg>
