<svg width="45" height="45" viewBox="0 0 45 45" fill="none" xmlns="http://www.w3.org/2000/svg">
<path d="M23.9674 0H21.0326V7.82597H23.9674V0Z" fill="#F8E99B"/>
<path d="M5.55262 7.62757L11.0864 13.1614L13.1615 11.0863L7.62773 5.55246L5.55262 7.62757Z" fill="#F8E99B"/>
<path d="M7.82606 21.0327H0V23.9675H7.82606V21.0327Z" fill="#F8E99B"/>
<path d="M13.1625 33.9137L11.0874 31.8386L5.55361 37.3724L7.62872 39.4475L13.1625 33.9137Z" fill="#F8E99B"/>
<path d="M23.9674 37.1741H21.0326V45H23.9674V37.1741Z" fill="#F5DC60"/>
<path d="M39.4484 37.3724L33.9146 31.8386L31.8395 33.9138L37.3733 39.4476L39.4484 37.3724Z" fill="#F5DC60"/>
<path d="M45 21.0327H37.174V23.9675H45V21.0327Z" fill="#F5DC60"/>
<path d="M31.8385 11.0862L33.9137 13.1614L39.4475 7.62757L37.3723 5.5524L31.8385 11.0862Z" fill="#F5DC60"/>
<path d="M22.5 33.2608C28.4431 33.2608 33.261 28.443 33.261 22.4999C33.261 16.5568 28.4431 11.739 22.5 11.739C16.557 11.739 11.7391 16.5568 11.7391 22.4999C11.7391 28.443 16.557 33.2608 22.5 33.2608Z" fill="#F8E99B"/>
<path d="M22.5001 11.7393V33.2611C28.4431 33.2611 33.261 28.4433 33.261 22.5002C33.261 16.557 28.4432 11.7393 22.5001 11.7393Z" fill="#F5DC60"/>
</svg>
