<svg width="44" height="52" viewBox="0 0 44 52" fill="none" xmlns="http://www.w3.org/2000/svg">
<path d="M42.7135 0H1.28655C0.575988 0 0 0.525166 0 1.17303V50.6749C0 51.3228 0.575988 51.848 1.28655 51.848H42.7135C43.424 51.848 44 51.3228 44 50.6749V1.17303C44 0.525166 43.424 0 42.7135 0ZM31.5205 49.5019H24.4444V32.7276H31.5205V49.5019ZM41.4269 49.5019H34.0936V31.5545C34.0936 30.9067 33.5176 30.3815 32.807 30.3815H23.1579C22.4473 30.3815 21.8713 30.9067 21.8713 31.5545V49.5019H2.5731V2.34606H41.4269V49.5019Z" fill="#85644F"/>
<path d="M6.81872 15.0154H13.2515C13.962 15.0154 14.538 14.4903 14.538 13.8424V6.21771C14.538 5.56984 13.962 5.04468 13.2515 5.04468H6.81872C6.10815 5.04468 5.53217 5.56984 5.53217 6.21771V13.8424C5.53217 14.4903 6.10815 15.0154 6.81872 15.0154ZM8.10527 7.39074H11.9649V12.6694H8.10527V7.39074Z" fill="#85644F"/>
<path d="M18.7834 15.0154H25.2162C25.9267 15.0154 26.5027 14.4903 26.5027 13.8424V6.21771C26.5027 5.56984 25.9267 5.04468 25.2162 5.04468H18.7834C18.0728 5.04468 17.4969 5.56984 17.4969 6.21771V13.8424C17.4969 14.4903 18.0728 15.0154 18.7834 15.0154ZM20.07 7.39074H23.9296V12.6694H20.07V7.39074Z" fill="#85644F"/>
<path d="M30.7486 15.0154H37.1814C37.892 15.0154 38.4679 14.4903 38.4679 13.8424V6.21771C38.4679 5.56984 37.892 5.04468 37.1814 5.04468H30.7486C30.0381 5.04468 29.4621 5.56984 29.4621 6.21771V13.8424C29.4621 14.4903 30.0381 15.0154 30.7486 15.0154ZM32.0352 7.39074H35.8948V12.6694H32.0352V7.39074Z" fill="#85644F"/>
<path d="M6.81872 27.6841H13.2515C13.962 27.6841 14.538 27.159 14.538 26.5111V18.8864C14.538 18.2385 13.962 17.7134 13.2515 17.7134H6.81872C6.10815 17.7134 5.53217 18.2385 5.53217 18.8864V26.5111C5.53217 27.159 6.10815 27.6841 6.81872 27.6841ZM8.10527 20.0594H11.9649V25.3381H8.10527V20.0594Z" fill="#85644F"/>
<path d="M18.7834 27.6841H25.2162C25.9267 27.6841 26.5027 27.159 26.5027 26.5111V18.8864C26.5027 18.2385 25.9267 17.7134 25.2162 17.7134H18.7834C18.0728 17.7134 17.4969 18.2385 17.4969 18.8864V26.5111C17.4969 27.159 18.0728 27.6841 18.7834 27.6841ZM20.07 20.0594H23.9296V25.3381H20.07V20.0594Z" fill="#85644F"/>
<path d="M30.7486 27.6841H37.1814C37.892 27.6841 38.4679 27.159 38.4679 26.5111V18.8864C38.4679 18.2385 37.892 17.7134 37.1814 17.7134H30.7486C30.0381 17.7134 29.4621 18.2385 29.4621 18.8864V26.5111C29.4621 27.159 30.0381 27.6841 30.7486 27.6841ZM32.0352 20.0594H35.8948V25.3381H32.0352V20.0594Z" fill="#85644F"/>
<path d="M6.81872 40.3528H13.2515C13.962 40.3528 14.538 39.8277 14.538 39.1798V31.5551C14.538 30.9072 13.962 30.3821 13.2515 30.3821H6.81872C6.10815 30.3821 5.53217 30.9072 5.53217 31.5551V39.1798C5.53217 39.8277 6.10815 40.3528 6.81872 40.3528ZM8.10527 32.7281H11.9649V38.0068H8.10527V32.7281Z" fill="#85644F"/>
</svg>
