<svg width="53" height="53" viewBox="0 0 53 53" fill="none" xmlns="http://www.w3.org/2000/svg">
<path d="M26.5 53C11.8643 53 0 41.1357 0 26.5C0 11.8643 11.8643 0 26.5 0C41.1357 0 53 11.8643 53 26.5C52.9826 41.1285 41.1285 52.9826 26.5 53ZM26.5 3.3125C13.694 3.3125 3.3125 13.694 3.3125 26.5C3.3125 39.306 13.694 49.6875 26.5 49.6875C39.306 49.6875 49.6875 39.306 49.6875 26.5C49.6738 13.6996 39.3004 3.32625 26.5 3.3125Z" fill="#85644F"/>
<path d="M38.0938 23.1875C37.1791 23.1875 36.4375 22.4459 36.4375 21.5312V16.5625H31.4688C30.5541 16.5625 29.8125 15.8209 29.8125 14.9062C29.8125 13.9916 30.5541 13.25 31.4688 13.25H38.0938C39.0084 13.25 39.75 13.9916 39.75 14.9062V21.5312C39.75 22.4459 39.0084 23.1875 38.0938 23.1875Z" fill="#85644F"/>
<path d="M29.8125 24.8424C29.1429 24.8424 28.5388 24.4389 28.2829 23.8198C28.0265 23.2012 28.168 22.4891 28.6415 22.0152L36.9228 13.7339C37.5726 13.1064 38.6057 13.1152 39.2446 13.7541C39.8835 14.393 39.8924 15.4262 39.2648 16.076L30.9836 24.3572C30.673 24.6678 30.2517 24.8424 29.8125 24.8424V24.8424Z" fill="#85644F"/>
<path d="M14.9062 23.1875C13.9916 23.1875 13.25 22.4459 13.25 21.5312V14.9062C13.25 13.9916 13.9916 13.25 14.9062 13.25H21.5312C22.4459 13.25 23.1875 13.9916 23.1875 14.9062C23.1875 15.8209 22.4459 16.5625 21.5312 16.5625H16.5625V21.5312C16.5625 22.4459 15.8209 23.1875 14.9062 23.1875Z" fill="#85644F"/>
<path d="M23.1876 24.8424C22.7485 24.8424 22.3271 24.6678 22.0166 24.3572L13.7353 16.076C13.1078 15.4262 13.1167 14.393 13.7556 13.7541C14.3945 13.1152 15.4276 13.1064 16.0774 13.7339L24.3586 22.0152C24.8321 22.4891 24.9737 23.2012 24.7173 23.8198C24.4613 24.4389 23.8572 24.8424 23.1876 24.8424Z" fill="#85644F"/>
<path d="M21.5312 39.75H14.9062C13.9916 39.75 13.25 39.0084 13.25 38.0938V31.4688C13.25 30.5541 13.9916 29.8125 14.9062 29.8125C15.8209 29.8125 16.5625 30.5541 16.5625 31.4688V36.4375H21.5312C22.4459 36.4375 23.1875 37.1791 23.1875 38.0938C23.1875 39.0084 22.4459 39.75 21.5312 39.75Z" fill="#85644F"/>
<path d="M14.9063 39.7487C14.2366 39.7487 13.6325 39.3451 13.3766 38.7261C13.1202 38.1074 13.2617 37.3953 13.7352 36.9214L22.0165 28.6402C22.6663 28.0126 23.6994 28.0215 24.3383 28.6604C24.9772 29.2993 24.9861 30.3324 24.3585 30.9822L16.0773 39.2635C15.7667 39.574 15.3454 39.7487 14.9063 39.7487Z" fill="#85644F"/>
<path d="M38.0938 39.75H31.4688C30.5541 39.75 29.8125 39.0084 29.8125 38.0938C29.8125 37.1791 30.5541 36.4375 31.4688 36.4375H36.4375V31.4688C36.4375 30.5541 37.1791 29.8125 38.0938 29.8125C39.0084 29.8125 39.75 30.5541 39.75 31.4688V38.0938C39.75 39.0084 39.0084 39.75 38.0938 39.75Z" fill="#85644F"/>
<path d="M38.0939 39.7487C37.6547 39.7487 37.2334 39.574 36.9228 39.2635L28.6416 30.9822C28.014 30.3324 28.0229 29.2993 28.6618 28.6604C29.3007 28.0215 30.3338 28.0126 30.9836 28.6402L39.2649 36.9214C39.7384 37.3953 39.8799 38.1074 39.6236 38.7261C39.3676 39.3451 38.7635 39.7487 38.0939 39.7487Z" fill="#85644F"/>
</svg>
