<svg width="27" height="27" viewBox="0 0 27 27" fill="none" xmlns="http://www.w3.org/2000/svg">
<path d="M22.956 3.82535C20.4308 1.35738 17.0679 0 13.494 0C6.11719 0 0.114509 5.85261 0.114509 13.045C0.114509 15.3425 0.729241 17.5872 1.89844 19.5675L0 26.325L7.09353 24.5093C9.04621 25.5494 11.246 26.0958 13.4879 26.0958H13.494C20.8647 26.0958 27 20.2432 27 13.0509C27 9.56632 25.4813 6.29332 22.956 3.82535V3.82535ZM13.494 23.8982C11.4931 23.8982 9.53437 23.3752 7.82879 22.388L7.425 22.153L3.2183 23.2283L4.33929 19.2267L4.07411 18.8153C2.95915 17.0878 2.37455 15.0957 2.37455 13.045C2.37455 7.06897 7.36473 2.20354 13.5 2.20354C16.4712 2.20354 19.2616 3.33176 21.3589 5.38252C23.4563 7.43329 24.746 10.1539 24.74 13.0509C24.74 19.0327 19.6232 23.8982 13.494 23.8982V23.8982ZM19.5931 15.7774C19.2616 15.6128 17.6163 14.8254 17.3089 14.7197C17.0016 14.608 16.7786 14.5551 16.5556 14.8842C16.3326 15.2133 15.6938 15.9419 15.4949 16.1652C15.302 16.3826 15.1031 16.412 14.7717 16.2475C12.8069 15.2897 11.5172 14.5375 10.2214 12.3692C9.8779 11.7934 10.565 11.8345 11.2038 10.5888C11.3123 10.3713 11.258 10.1833 11.1737 10.0188C11.0893 9.85425 10.4203 8.25007 10.1431 7.59782C9.87188 6.9632 9.59464 7.05134 9.38973 7.03959C9.19688 7.02784 8.97388 7.02784 8.75089 7.02784C8.5279 7.02784 8.16629 7.1101 7.85893 7.43329C7.55156 7.76235 6.68973 8.54975 6.68973 10.1539C6.68973 11.7581 7.88906 13.3094 8.05179 13.5268C8.22054 13.7442 10.4083 17.0349 13.7652 18.451C15.8866 19.3442 16.7183 19.4206 17.779 19.2678C18.4239 19.1738 19.7558 18.4804 20.033 17.7165C20.3103 16.9526 20.3103 16.3004 20.2259 16.1652C20.1475 16.0183 19.9246 15.936 19.5931 15.7774Z" fill="#214A4D"/>
</svg>
