<svg width="28" height="23" viewBox="0 0 28 23" fill="none" xmlns="http://www.w3.org/2000/svg">
<path d="M26.4946 20.8359V3.12536C26.4946 1.40202 25.279 0 23.7849 0H20.172C18.6779 0 17.4623 1.40202 17.4623 3.12536V5.59636C15.6955 5.75039 14.1242 6.36502 12.6828 7.46565C11.2239 8.5796 10.0757 10.0412 8.96501 11.4546C6.99173 13.9661 5.12787 16.3382 1.66698 16.6365C0.732264 16.7171 0 17.6294 0 18.7136V22.9194H0.903217C3.77644 22.9194 6.28763 22.0683 8.58045 20.3174C10.4171 18.9148 11.7789 17.1818 12.9808 15.6522C14.8834 13.2306 15.8749 12.1478 17.4624 11.8775V20.8359H15.957V22.9194H28V20.8359H26.4946V20.8359ZM17.4623 9.77801C16.4188 9.91079 15.5283 10.2901 14.6575 10.9605C13.6535 11.7334 12.7366 12.8602 11.6418 14.2535C10.5117 15.6917 9.23085 17.3219 7.58317 18.5801C5.83755 19.9132 3.93952 20.6446 1.80485 20.803L1.80173 18.7143C5.98209 18.3541 8.17905 15.558 10.3037 12.8538C12.2442 10.3841 14.0853 8.04048 17.4623 7.68598V9.77801ZM24.6881 20.8359H19.2688V18.7523H24.6881V20.8359ZM24.6881 16.6686H19.2688V14.5851H24.6881V16.6686ZM24.6881 12.5015H19.2688V11.807V10.4179H24.6881V12.5015ZM24.6881 8.33429H19.2688V6.25072H24.6881V8.33429ZM24.6881 4.16715H19.2688V3.12536C19.2688 2.55091 19.674 2.08357 20.172 2.08357H23.7849C24.283 2.08357 24.6881 2.55091 24.6881 3.12536V4.16715V4.16715Z" fill="#85644F"/>
</svg>
