<svg width="35" height="35" viewBox="0 0 35 35" fill="none" xmlns="http://www.w3.org/2000/svg">
<path d="M29.7578 4.95879C26.4844 1.75957 22.125 0 17.4922 0C7.92969 0 0.148437 7.58672 0.148437 16.9102C0.148437 19.8885 0.945313 22.7982 2.46094 25.3652L0 34.125L9.19531 31.7713C11.7266 33.1195 14.5781 33.8279 17.4844 33.8279H17.4922C27.0469 33.8279 35 26.2412 35 16.9178C35 12.4008 33.0312 8.15801 29.7578 4.95879V4.95879ZM17.4922 30.9791C14.8984 30.9791 12.3594 30.3012 10.1484 29.0215L9.625 28.7168L4.17188 30.1107L5.625 24.9234L5.28125 24.3902C3.83594 22.1508 3.07813 19.5686 3.07813 16.9102C3.07813 9.16348 9.54687 2.85645 17.5 2.85645C21.3516 2.85645 24.9687 4.31895 27.6875 6.97734C30.4062 9.63574 32.0781 13.1625 32.0703 16.9178C32.0703 24.6721 25.4375 30.9791 17.4922 30.9791V30.9791ZM25.3984 20.4522C24.9688 20.2389 22.8359 19.2182 22.4375 19.0811C22.0391 18.9363 21.75 18.8678 21.4609 19.2943C21.1719 19.7209 20.3438 20.6654 20.0859 20.9549C19.8359 21.2367 19.5781 21.2748 19.1484 21.0615C16.6016 19.8199 14.9297 18.8449 13.25 16.0342C12.8047 15.2877 13.6953 15.341 14.5234 13.7262C14.6641 13.4443 14.5937 13.2006 14.4844 12.9873C14.375 12.774 13.5078 10.6945 13.1484 9.84903C12.7969 9.02637 12.4375 9.14063 12.1719 9.12539C11.9219 9.11016 11.6328 9.11016 11.3437 9.11016C11.0547 9.11016 10.5859 9.2168 10.1875 9.63574C9.78906 10.0623 8.67188 11.083 8.67188 13.1625C8.67188 15.242 10.2266 17.2529 10.4375 17.5348C10.6563 17.8166 13.4922 22.0822 17.8437 23.918C20.5937 25.0758 21.6719 25.1748 23.0469 24.9768C23.8828 24.8549 25.6094 23.9561 25.9687 22.9658C26.3281 21.9756 26.3281 21.1301 26.2188 20.9549C26.1172 20.7645 25.8281 20.6578 25.3984 20.4522Z" fill="white"/>
</svg>
