<svg width="27" height="27" viewBox="0 0 27 27" fill="none" xmlns="http://www.w3.org/2000/svg">
<g clip-path="url(#clip0_30_667)">
<path d="M10.35 0H2.25C1.00789 0.00153809 0.00153809 1.00789 0 2.25V10.35C0.00153809 11.5921 1.00789 12.5985 2.25 12.6H3.15C3.39851 12.6 3.6 12.3985 3.6 12.15C3.6 11.9015 3.6 11.25 3.15 11.25H2.25C1.50447 11.25 1.35 11.0955 1.35 10.35L1.35 2.25C1.35 1.50447 1.50447 1.35 2.25 1.35H10.35C11.0955 1.35 11.25 1.50447 11.25 2.25L11.25 10.35C11.25 11.0955 11.0955 11.25 10.35 11.25H5.85C5.4 11.25 5.4 11.9015 5.4 12.15C5.4 12.3985 5.60149 12.6 5.85 12.6H10.35C11.5921 12.5985 12.5985 11.5921 12.6 10.35V2.25C12.5985 1.00789 11.5921 0.00153809 10.35 0Z" fill="#85644F"/>
<path d="M24.75 0H16.65C15.4079 0.00153809 14.4015 1.00789 14.4 2.25V10.35C14.4015 11.5921 15.4079 12.5985 16.65 12.6H24.75C25.9921 12.5985 26.9985 11.5921 27 10.35V2.25C26.9985 1.00789 25.9921 0.00153809 24.75 0ZM25.65 10.35C25.65 11.0955 25.4955 11.25 24.75 11.25H16.65C15.9045 11.25 15.75 11.0955 15.75 10.35L15.75 6.3L15.75 2.25C15.75 1.50447 15.9045 1.46123 16.65 1.46123H24.75C25.4955 1.46123 25.65 1.50447 25.65 2.25L25.65 10.35Z" fill="#85644F"/>
<path d="M10.35 14.4H2.25C1.00789 14.4016 0.0015381 15.4079 0 16.65V24.75C0.0015381 25.9921 1.00789 26.9985 2.25 27H10.35C11.5921 26.9985 12.5985 25.9921 12.6 24.75V16.65C12.5985 15.4079 11.5921 14.4016 10.35 14.4ZM11.25 24.75C11.25 25.4956 11.0955 25.65 10.35 25.65H2.25C1.50447 25.65 1.35 25.4956 1.35 24.75L1.35 20.7L1.35 16.65C1.35 15.9045 1.50447 15.8613 2.25 15.8613H10.35C11.0955 15.8613 11.25 15.9045 11.25 16.65L11.25 24.75Z" fill="#85644F"/>
<path d="M24.75 14.4H16.65C15.4079 14.4016 14.4015 15.4079 14.4 16.65V24.75C14.4015 25.9921 15.4079 26.9985 16.65 27H24.75C25.9921 26.9985 26.9985 25.9921 27 24.75V16.65C26.9985 15.4079 25.9921 14.4016 24.75 14.4ZM25.65 24.75C25.65 25.4956 25.4955 25.65 24.75 25.65H16.65C15.9045 25.65 15.75 25.4956 15.75 24.75L15.75 20.7L15.75 16.65C15.75 15.9045 15.9045 15.8613 16.65 15.8613H24.75C25.4955 15.8613 25.65 15.9045 25.65 16.65L25.65 24.75Z" fill="#85644F"/>
</g>
<defs>
<clipPath id="clip0_30_667">
<rect width="27" height="27" fill="white"/>
</clipPath>
</defs>
</svg>
