<svg width="35" height="32" viewBox="0 0 35 32" fill="none" xmlns="http://www.w3.org/2000/svg">
<g clip-path="url(#clip0_30_689)">
<path d="M26.091 18.5744C26.3945 18.5744 26.6632 18.3956 26.7568 18.1319L31.7682 4.03312C31.9146 3.6211 31.5783 3.19562 31.1024 3.19562H8.90886C8.60534 3.19562 8.33669 3.37437 8.24304 3.63812L3.2323 17.7369C3.08595 18.1489 3.42219 18.5744 3.89812 18.5744H26.091ZM10.6154 17.2944L11.8186 13.9087H15.7921L14.5888 17.2944H10.6154ZM7.75888 9.14187H12.0407L10.8016 12.6287H6.5197L7.75888 9.14187ZM13.5129 9.14187H17.4863L16.2471 12.6287H12.2735L13.5129 9.14187ZM19.1446 4.47562L17.9412 7.86187H13.9678L15.1713 4.47562H19.1446ZM24.5902 4.47562L23.3867 7.86187H19.4133L20.6168 4.47562H24.5902ZM27.2408 12.6287H23.1645L24.4039 9.14187H28.48L27.2408 12.6287ZM21.6926 12.6287H17.719L18.9584 9.14187H22.9318L21.6926 12.6287ZM17.2641 13.9087H21.2376L20.0343 17.2944H16.061L17.2641 13.9087ZM25.5824 17.2944H21.5065L22.7096 13.9087H26.7857L25.5824 17.2944ZM28.9351 7.86187H24.8588L26.0623 4.47562H30.1385L28.9351 7.86187ZM9.41745 4.47562H13.6991L12.4957 7.86187H8.21398L9.41745 4.47562ZM6.0646 13.9087H10.3466L9.14334 17.2944H4.8613L6.0646 13.9087Z" fill="#85644F"/>
<path d="M33.6003 30.08H21.4373C21.2419 28.2844 19.9284 26.7895 18.1456 26.1761V21.1306H26.091C27.4404 21.1306 28.6504 20.2769 29.1022 19.0063L34.113 4.90751C34.8536 2.82524 33.3128 0.640015 31.1024 0.640015H8.90886C7.56013 0.640015 6.35017 1.49314 5.89831 2.76376L0.886888 16.8625C0.146715 18.9436 1.6877 21.1306 3.89812 21.1306H12.5182V26.177C10.7368 26.7911 9.42446 28.2853 9.2293 30.08H1.40027C1.01336 30.08 0.700268 30.3663 0.700268 30.72C0.700268 31.0738 1.01336 31.36 1.40027 31.36H9.90349H20.7631H33.6003C33.9872 31.36 34.3003 31.0738 34.3003 30.72C34.3003 30.3663 33.9872 30.08 33.6003 30.08V30.08ZM2.21853 17.2581L7.22995 3.15939C7.49314 2.41814 8.16785 1.92001 8.90886 1.92001H31.1024C32.3861 1.92001 33.2151 3.29206 32.7813 4.51189L27.7706 18.6113C27.5074 19.3525 26.832 19.8506 26.091 19.8506C17.9828 19.8506 11.7635 19.8506 3.89813 19.8506C2.60623 19.8506 1.78722 18.471 2.21853 17.2581V17.2581ZM13.9182 21.1306H16.7456V25.892C16.6157 25.8828 16.4856 25.8738 16.3532 25.8738H14.3133C14.18 25.8738 14.0491 25.8828 13.9182 25.892V21.1306ZM10.6384 30.08C10.8872 28.4294 12.4403 27.1538 14.3134 27.1538H16.3532C18.2262 27.1538 19.7794 28.4294 20.0282 30.08H10.6384Z" fill="#85644F"/>
</g>
<defs>
<clipPath id="clip0_30_689">
<rect width="35" height="32" fill="white"/>
</clipPath>
</defs>
</svg>
