<svg width="47" height="47" viewBox="0 0 47 47" fill="none" xmlns="http://www.w3.org/2000/svg">
<path d="M46.4165 21.4119V25.5632C46.4165 25.923 46.2854 26.2705 46.0477 26.5407C45.81 26.8108 45.482 26.985 45.1251 27.0308L42.014 27.4297C41.5346 29.6977 40.6403 31.8575 39.3761 33.8004L41.3018 36.2722C41.5235 36.5568 41.6335 36.9126 41.6112 37.2727C41.5889 37.6328 41.4359 37.9723 41.1808 38.2274L38.2454 41.1633C37.991 41.4177 37.6525 41.5707 37.2934 41.5936C36.9343 41.6166 36.5792 41.5079 36.2944 41.2879L33.8111 39.3693C31.869 40.6349 29.7098 41.5306 27.4422 42.0115L27.0566 45.1193C27.0122 45.4774 26.8383 45.807 26.5678 46.046C26.2973 46.2849 25.9488 46.4167 25.5879 46.4166H21.4367C21.0768 46.4166 20.7293 46.2855 20.4592 46.0478C20.1891 45.8101 20.0148 45.4821 19.9691 45.1251L19.5702 42.0141C17.3022 41.5348 15.1424 40.6404 13.1994 39.3762L10.7277 41.3019C10.4431 41.5236 10.0873 41.6336 9.7272 41.6113C9.36711 41.5891 9.02758 41.436 8.77245 41.1809L5.8366 38.2452C5.58217 37.9907 5.42918 37.6523 5.40625 37.2932C5.38332 36.9341 5.49203 36.5789 5.71204 36.2942L7.63059 33.8108C6.36502 31.8688 5.46925 29.7095 4.9884 27.4419L1.88053 27.0564C1.52237 27.0119 1.19282 26.8381 0.953904 26.5676C0.714984 26.2971 0.583164 25.9486 0.583252 25.5876V21.4364C0.583271 21.0766 0.714395 20.7291 0.952088 20.459C1.18978 20.1888 1.51776 20.0146 1.87465 19.9688L4.98574 19.5699C5.46512 17.302 6.35946 15.1421 7.62371 13.1992L5.69836 10.7275C5.47668 10.4429 5.36663 10.087 5.38891 9.72695C5.41119 9.36687 5.56427 9.02734 5.81935 8.77221L8.75473 5.83636C9.00918 5.58193 9.34762 5.42893 9.70671 5.406C10.0658 5.38308 10.421 5.49179 10.7057 5.71179L13.1891 7.63035C15.1311 6.36478 17.2903 5.46901 19.5579 4.98816L19.9435 1.88028C19.988 1.52213 20.1618 1.19258 20.4323 0.95366C20.7028 0.714739 21.0513 0.58292 21.4122 0.583008H25.5636C25.9234 0.58301 26.2709 0.71413 26.541 0.951828C26.8111 1.18953 26.9854 1.51751 27.0311 1.87441L27.4301 4.98549C29.698 5.46487 31.8578 6.35921 33.8008 7.62346L36.2725 5.69775C36.5571 5.47607 36.9129 5.36602 37.273 5.3883C37.6331 5.41058 37.9726 5.56365 38.2278 5.81873L41.1635 8.75449C41.418 9.00893 41.571 9.34737 41.5939 9.70647C41.6168 10.0656 41.5081 10.4207 41.2881 10.7054L39.3695 13.1888C40.6351 15.1309 41.5309 17.2901 42.0117 19.5577L45.1196 19.9432C45.4777 19.9878 45.8071 20.1617 46.0459 20.4322C46.2848 20.7027 46.4166 21.0511 46.4165 21.4119V21.4119Z" fill="#ECECEC"/>
<path d="M46.4165 21.412V25.5634C46.4165 25.9232 46.2854 26.2707 46.0477 26.5408C45.81 26.8109 45.482 26.9851 45.1251 27.0309L42.014 27.4299C41.5346 29.6978 40.6403 31.8576 39.3761 33.8006L41.3018 36.2723C41.5234 36.5569 41.6335 36.9127 41.6112 37.2728C41.5889 37.6329 41.4359 37.9724 41.1808 38.2276L38.2454 41.1634C37.991 41.4178 37.6525 41.5708 37.2934 41.5938C36.9343 41.6167 36.5792 41.508 36.2944 41.288L33.8111 39.3694C31.8691 40.635 29.7098 41.5307 27.4422 42.0116L27.0566 45.1194C27.0122 45.4776 26.8383 45.8071 26.5678 46.0461C26.2973 46.285 25.9488 46.4168 25.5879 46.4168H23.5001V0.583496H25.5635C25.9233 0.583498 26.2708 0.714618 26.5409 0.952317C26.811 1.19002 26.9853 1.518 27.031 1.87489L27.43 4.98598C29.6979 5.46536 31.8577 6.3597 33.8007 7.62395L36.2724 5.69823C36.557 5.47655 36.9128 5.3665 37.2729 5.38879C37.633 5.41107 37.9725 5.56414 38.2277 5.81922L41.1634 8.75461C41.4179 9.00903 41.5709 9.34747 41.5939 9.70657C41.6168 10.0657 41.5081 10.4208 41.2881 10.7056L39.3695 13.189C40.6351 15.131 41.5309 17.2902 42.0117 19.5578L45.1196 19.9434C45.4777 19.988 45.8071 20.1618 46.0459 20.4323C46.2848 20.7028 46.4166 21.0512 46.4165 21.412V21.412Z" fill="#CBC8C8"/>
<path d="M31.6862 13.4628L32.667 12.209C34.2029 13.5486 35.4247 15.2101 36.2457 17.0754C37.0666 18.9407 37.4665 20.9639 37.4169 23.0013C37.3673 25.0387 36.8694 27.0401 35.9586 28.8632C35.0478 30.6864 33.7466 32.2864 32.1473 33.5496L32.8306 34.634L28.7784 34.791L30.6684 31.2033L31.2942 32.1962C32.678 31.0719 33.8005 29.6598 34.5836 28.0579C35.3668 26.4561 35.7917 24.7029 35.829 22.9203C35.8663 21.1377 35.5151 19.3683 34.7996 17.7351C34.0842 16.1019 33.0218 14.6441 31.6861 13.4628H31.6862Z" fill="#997C3D"/>
<path d="M15.066 33.4172L14.1735 34.7351C12.5498 33.5034 11.2174 31.9291 10.2711 30.1242C9.32477 28.3192 8.78777 26.3279 8.69827 24.2919C8.60878 22.2559 8.96899 20.2252 9.75329 18.3441C10.5376 16.4631 11.7267 14.778 13.2361 13.4086L12.4804 12.3734L16.5123 11.9404L14.8712 15.6487L14.1792 14.7008C12.8752 15.9168 11.8515 17.4022 11.1794 19.0537C10.5073 20.7052 10.2029 22.4833 10.2872 24.2643C10.3716 26.0454 10.8427 27.7867 11.668 29.3673C12.4932 30.9479 13.6526 32.3299 15.0658 33.4172H15.066Z" fill="#CBB152"/>
<path d="M21.1972 9.19922H29.1334C29.18 9.19922 29.2259 9.2104 29.2672 9.23182C29.3086 9.25324 29.3442 9.28428 29.3711 9.32232C29.398 9.36037 29.4153 9.40431 29.4217 9.45046C29.4281 9.49661 29.4233 9.54361 29.4078 9.58752L25.0228 21.9628C25.0015 22.0229 24.995 22.0871 25.0037 22.1502C25.0124 22.2133 25.0361 22.2734 25.0729 22.3254C25.1097 22.3774 25.1584 22.4199 25.2149 22.4492C25.2715 22.4784 25.3343 22.4937 25.398 22.4937H28.9057C28.9616 22.4937 29.0163 22.5098 29.0633 22.54C29.1102 22.5702 29.1475 22.6134 29.1707 22.6642C29.1938 22.7151 29.2018 22.7715 29.1938 22.8268C29.1857 22.8821 29.1619 22.9339 29.1252 22.976L18.0877 37.6987C18.0428 37.7502 17.9811 37.7843 17.9135 37.795C17.8459 37.8056 17.7767 37.7921 17.7181 37.7568C17.6595 37.7215 17.6152 37.6666 17.593 37.6019C17.5708 37.5372 17.5721 37.4668 17.5966 37.4029L21.5421 25.8203C21.5591 25.7762 21.5651 25.7287 21.5596 25.6818C21.5541 25.6349 21.5372 25.59 21.5105 25.551C21.4837 25.5121 21.4479 25.4803 21.4061 25.4583C21.3643 25.4363 21.3178 25.4248 21.2705 25.4248H18.3651C18.2616 25.4248 18.1595 25.4016 18.0661 25.3571C17.9727 25.3125 17.8904 25.2476 17.8253 25.1672C17.7602 25.0867 17.7139 24.9927 17.6898 24.8921C17.6656 24.7915 17.6643 24.6867 17.6858 24.5855L20.9125 9.42981C20.9264 9.36459 20.9622 9.30611 21.014 9.26414C21.0658 9.22217 21.1305 9.19925 21.1972 9.19922V9.19922Z" fill="#FFDF40"/>
<path d="M25.0228 21.9628C25.0015 22.0229 24.995 22.0871 25.0037 22.1502C25.0124 22.2133 25.0361 22.2734 25.0729 22.3254C25.1097 22.3774 25.1584 22.4199 25.2149 22.4492C25.2715 22.4784 25.3343 22.4937 25.398 22.4937H28.9057C28.9616 22.4937 29.0163 22.5098 29.0632 22.54C29.1102 22.5702 29.1475 22.6134 29.1707 22.6642C29.1938 22.7151 29.2018 22.7715 29.1938 22.8268C29.1857 22.8821 29.1619 22.9339 29.1252 22.976L23.5001 30.4792V9.19922H29.1335C29.18 9.19923 29.2259 9.21042 29.2673 9.23185C29.3086 9.25328 29.3442 9.28432 29.3711 9.32236C29.398 9.36041 29.4153 9.40434 29.4217 9.45048C29.4281 9.49662 29.4233 9.54362 29.4077 9.58752L25.0228 21.9628Z" fill="#FFBE40"/>
</svg>
