<svg width="32" height="32" viewBox="0 0 32 32" fill="none" xmlns="http://www.w3.org/2000/svg">
<g clip-path="url(#clip0_30_675)">
<path d="M30.4959 0H1.50411C0.916038 0 0.43927 0.476768 0.43927 1.06494V30.9352C0.43927 31.5232 0.916038 32.0001 1.50421 32.0001H30.4959C31.084 32.0001 31.5608 31.5233 31.5608 30.9352V1.06494C31.5607 0.476768 31.084 0 30.4959 0ZM29.4309 29.8702H2.56905V2.12978H29.4309V29.8702Z" fill="#85644F"/>
<path d="M5.45756 27.9168H26.5424C27.1305 27.9168 27.6074 27.4401 27.6074 26.8519V5.14813C27.6074 4.56007 27.1306 4.08319 26.5424 4.08319H5.45756C4.86949 4.08319 4.39262 4.55996 4.39262 5.14813V26.852C4.39272 27.44 4.86949 27.9168 5.45756 27.9168ZM15.3078 14.2429V6.21297H16.6923V14.2429C16.6923 14.831 17.169 15.3079 17.7572 15.3079H25.4777V16.6923H17.7572C17.1691 16.6923 16.6923 17.169 16.6923 17.7572V25.7872H15.3078V17.7572C15.3078 17.1691 14.8311 16.6923 14.2429 16.6923H6.5225V15.3079H14.243C14.831 15.3079 15.3078 14.831 15.3078 14.2429ZM6.5225 18.8219H13.1781V25.7869H6.5225V18.8219ZM18.8219 25.7871V18.822H25.4775V25.7871H18.8219ZM25.4775 13.1781H18.8219V6.21297H25.4775V13.1781ZM13.1781 6.21297V13.178H6.5225V6.21297H13.1781Z" fill="#85644F"/>
</g>
<defs>
<clipPath id="clip0_30_675">
<rect width="32" height="32" fill="white"/>
</clipPath>
</defs>
</svg>
