<svg width="25" height="38" viewBox="0 0 25 38" fill="none" xmlns="http://www.w3.org/2000/svg">
<path d="M19.3256 25.4824C19.7571 25.4824 20.1069 25.1554 20.1069 24.7521C20.1069 24.3488 19.7571 24.0218 19.3256 24.0218C18.8942 24.0218 18.5444 24.3488 18.5444 24.7521C18.5444 25.1554 18.8942 25.4824 19.3256 25.4824Z" fill="#85644F"/>
<path d="M24.8897 15.8373C24.7491 15.6182 24.4928 15.4824 24.2194 15.4824H14.844V13.0362C15.5627 12.4341 16.0159 11.5605 16.0159 10.5894V3.28636C16.0159 1.47426 14.4387 0 12.5001 0C10.5615 0 8.98435 1.47426 8.98435 3.28636V10.5894C8.98435 11.5605 9.43756 12.4341 10.1563 13.0362V15.4824H0.780884C0.508227 15.4824 0.251194 15.6182 0.110569 15.8373C-0.0300567 16.0564 -0.0370882 16.3325 0.0925997 16.5574L11.8111 37.0058C11.9478 37.2439 12.2119 37.3914 12.5001 37.3914C12.7892 37.3914 13.0525 37.2439 13.1884 37.0058L18.3535 27.9939C18.4527 27.8216 18.4738 27.6244 18.4129 27.4374C18.3527 27.2505 18.2184 27.0971 18.034 27.0051C17.9207 26.9481 17.7934 26.9182 17.666 26.9182C17.377 26.9182 17.1129 27.0657 16.977 27.3038L12.5002 35.1144L2.08558 16.943H10.1562V21.909C10.1562 23.117 11.2079 24.0999 12.5001 24.0999C13.7923 24.0999 14.8439 23.117 14.8439 21.909V16.943H22.9146L20.2973 21.5096C20.0934 21.8652 20.2371 22.3085 20.6168 22.4984C20.7301 22.5554 20.8574 22.5853 20.9848 22.5853C21.2738 22.5853 21.5379 22.4378 21.6746 22.1997V22.199L24.9076 16.5574C25.0374 16.3325 25.0296 16.0564 24.8897 15.8373V15.8373ZM10.5469 3.28636C10.5469 2.27964 11.4231 1.4606 12.5001 1.4606C13.5772 1.4606 14.4534 2.27964 14.4534 3.28636V10.5894C14.4534 11.5961 13.5772 12.4151 12.5001 12.4151C11.4231 12.4151 10.5469 11.5961 10.5469 10.5894V3.28636ZM13.2814 21.909C13.2814 22.3114 12.9306 22.6393 12.5001 22.6393C12.0697 22.6393 11.7189 22.3114 11.7189 21.909V13.7929C11.9704 13.8464 12.2316 13.8757 12.5001 13.8757C12.7687 13.8757 13.03 13.8465 13.2814 13.7929V21.909Z" fill="#85644F"/>
</svg>
