<svg width="28" height="29" viewBox="0 0 28 29" fill="none" xmlns="http://www.w3.org/2000/svg">
<path d="M27.9913 3.18559C28.0228 2.33451 27.7074 1.50092 27.1259 0.898601C26.5443 0.296395 25.7401 -0.0303827 24.9178 0.0022271C24.096 0.0347803 23.3177 0.424343 22.7824 1.07082L19.9688 4.46881L17.9516 2.37958L11.8591 8.62951L10.837 7.57088C11.0705 5.72033 10.3102 3.65781 8.78429 2.07742C7.36778 0.610322 5.45389 0.198905 4.43909 0.0842046C3.17979 -0.0580671 1.56201 0.0718061 0.79805 0.863104C0.0463915 1.64161 -0.0781834 3.3149 0.0559027 4.62133C0.164462 5.67872 0.557482 7.67109 1.9705 9.13451C3.31469 10.5267 5.01971 11.3037 6.6282 11.3036C6.8457 11.3036 7.06161 11.2894 7.27447 11.2605L8.32294 12.3464L2.29519 18.5895L4.36306 20.7312L1.04895 23.5944L1.04037 23.6018C0.416126 24.1563 0.0400507 24.9625 0.00862002 25.8135C-0.0228653 26.6646 0.292644 27.4982 0.87414 28.1004C1.42912 28.6753 2.18745 28.9991 2.96994 28.9991C3.00727 28.9991 3.04477 28.9983 3.08216 28.9968C3.9039 28.9642 4.68223 28.5747 5.21753 27.9282L8.0311 24.5302L10.0511 26.6223L16.0788 20.3793L23.6644 28.2358C24.1402 28.7286 24.7728 29 25.4456 29C26.1185 29 26.7511 28.7286 27.2268 28.2358C27.7026 27.7431 27.9647 27.0879 27.9647 26.391C27.9647 25.6941 27.7026 25.0389 27.2268 24.5462L19.6413 16.6896L25.7048 10.4096L23.6788 8.31123L26.9596 5.39723C27.5838 4.84281 27.9599 4.03668 27.9913 3.18559V3.18559ZM22.0153 4.61652L23.5362 6.1917L22.5113 7.10206L21.1363 5.67804L22.0153 4.61652ZM7.36406 9.51287C6.03583 9.83619 4.37574 9.21445 3.13453 7.92897C2.36685 7.13382 1.84193 5.86747 1.69434 4.45455C1.55665 3.13645 1.80514 2.23668 1.96213 2.06871C2.12361 1.90141 2.98995 1.63561 4.26051 1.77918C5.62132 1.93294 6.84592 2.48108 7.62021 3.28303C8.86136 4.56851 9.46166 6.288 9.14949 7.66362L9.04459 8.12576L12.6728 11.8835L11.4385 13.1619L7.81027 9.40416L7.36406 9.51287ZM12.6026 14.3677L13.8369 13.0892L15.1423 14.4412L13.9079 15.7196L12.6026 14.3677ZM6.86363 23.321L6.00232 24.3612L4.51518 22.8201L5.5319 21.9417L6.86363 23.321ZM3.01919 27.293C2.64896 27.3079 2.30033 27.1662 2.03817 26.8948C1.77606 26.6232 1.63946 26.2624 1.65368 25.8788C1.66778 25.4968 1.82914 25.1493 2.10825 24.8996L3.24587 23.9167L4.92744 25.6594L3.9679 26.8183C3.72657 27.1097 3.38963 27.2783 3.01919 27.293V27.293ZM10.0511 24.211L4.62341 18.5895L9.48708 13.5521L14.9148 19.1737L10.0511 24.211ZM26.3185 26.391C26.3185 26.6325 26.2277 26.8594 26.0628 27.0302C25.898 27.2009 25.6788 27.295 25.4457 27.295C25.2125 27.295 24.9934 27.2009 24.8285 27.0302L15.072 16.9252L16.3063 15.6468L26.0628 25.7518C26.2277 25.9225 26.3185 26.1495 26.3185 26.391V26.391ZM18.4772 15.484L13.0232 9.83517L17.946 4.78517L23.3765 10.4096L18.4772 15.484ZM26.3463 3.12032C26.3321 3.50399 26.1693 3.85296 25.8879 4.10291L24.7895 5.07855L23.0901 3.31847L24.0321 2.1808C24.2735 1.88935 24.6104 1.7207 24.9808 1.70603C25.3512 1.69109 25.6996 1.83279 25.9618 2.10432C26.2239 2.37584 26.3605 2.73664 26.3463 3.12032Z" fill="#85644F"/>
</svg>
