<svg width="28" height="27" viewBox="0 0 28 27" fill="none" xmlns="http://www.w3.org/2000/svg">
<path d="M26.0927 17.5783C24.6704 16.4781 23.3657 15.9433 22.104 15.9433C20.2788 15.9433 18.9646 17.0608 17.7748 18.2057C17.638 18.3375 17.4723 18.3989 17.2536 18.3989C16.251 18.399 14.4872 17.1905 12.0112 14.8069C9.09837 12.003 7.99707 10.2196 8.73761 9.50649C10.7451 7.5748 11.3718 5.63832 8.29819 1.95889C7.19786 0.640676 6.12131 0 5.00704 0C3.50432 0 2.36199 1.15622 1.35414 2.17642C1.17989 2.35277 1.01529 2.51937 0.853913 2.6747C-0.285206 3.77108 -0.284621 6.1625 0.85557 9.07208C2.10656 12.2645 4.57659 15.7373 7.81074 18.8508C10.3119 21.2581 13.0332 23.2035 15.6808 24.5097C17.9923 25.6502 20.2343 26.2612 21.994 26.2612C21.9942 26.2612 21.9944 26.2612 21.9947 26.2612C23.0959 26.2612 23.9904 26.03 24.5812 25.5598C25.7812 24.6048 28.0148 22.8358 27.9999 20.7346C27.9917 19.6077 27.3502 18.5516 26.0927 17.5783Z" fill="#214A4D"/>
</svg>
