<svg width="29" height="29" viewBox="0 0 29 29" fill="none" xmlns="http://www.w3.org/2000/svg">
<path d="M28.0347 8.00247L24.3091 4.27691L24.8013 3.7847L25.908 4.89186C26.2905 5.27492 26.9116 5.27492 27.2946 4.89186C27.6782 4.50879 27.6782 3.88829 27.2946 3.50472L25.4941 1.70422C25.1116 1.32115 24.4906 1.32115 24.1075 1.70422L22.922 2.88971L20.9974 0.965166C19.7872 -0.246667 17.8991 -0.327946 16.7887 0.781367L16.0855 1.48451C15.6225 1.21999 15.0959 1.07834 14.5467 1.07834C13.7158 1.07884 12.9359 1.40079 12.351 1.98578L12.2304 2.10637C11.0191 3.31769 11.0191 5.28817 12.2304 6.4995L22.501 16.7712C23.1066 17.3763 23.9014 17.6791 24.6967 17.6791C25.492 17.6791 26.2879 17.3763 26.893 16.7712L27.0136 16.6506C28.0237 15.64 28.1904 14.1015 27.5148 12.9158L28.2191 12.2113C29.3284 11.1013 29.2454 9.21322 28.0347 8.00247ZM25.6275 15.2629L25.5069 15.3835C25.0601 15.8308 24.3349 15.8308 23.8881 15.384L13.617 5.1123C13.4023 4.8982 13.2844 4.61081 13.2844 4.30319C13.2844 3.99557 13.4023 3.70817 13.617 3.49351L13.7376 3.37292C14.1668 2.94313 14.926 2.94313 15.3553 3.37292L17.6775 5.69565C18.0606 6.07815 18.6811 6.07922 19.0646 5.69565C19.4477 5.31315 19.4477 4.69209 19.0646 4.30851L17.5499 2.79382L18.1753 2.1685C18.5142 1.83064 19.1719 1.91351 19.6103 2.3523L26.647 9.39011C27.0853 9.8284 27.1698 10.4856 26.8308 10.8251L26.2058 11.4501L21.0829 6.32731C20.7004 5.94425 20.0794 5.94425 19.6963 6.32731C19.3132 6.71037 19.3132 7.33087 19.6963 7.71445L25.5071 13.5252C25.5088 13.5271 25.5103 13.529 25.5121 13.5308C25.5139 13.5326 25.5158 13.534 25.5176 13.5358L25.6269 13.6451C25.8415 13.8592 25.9595 14.1466 25.9595 14.4542C25.9595 14.7613 25.8416 15.0488 25.6275 15.2629Z" fill="#85644F"/>
<path d="M16.6978 13.3959L12.1829 17.9113L11.0905 16.819L15.6055 12.3031C15.9886 11.92 15.9886 11.299 15.6055 10.916C15.2224 10.5329 14.6019 10.5329 14.2184 10.916L9.70323 15.4316L6.50002 12.2282C5.28869 11.0175 3.31821 11.0175 2.10745 12.2282L1.98687 12.3488C0.976561 13.3596 0.810037 14.8986 1.48576 16.084L0.781433 16.7887C-0.32839 17.8985 -0.245524 19.7867 0.965233 20.9974L2.88955 22.9219L1.70417 24.1075C1.32111 24.4906 1.32111 25.1117 1.70417 25.4947L3.50467 27.2952C3.69595 27.4864 3.9467 27.5821 4.19796 27.5821C4.44922 27.5821 4.70002 27.4864 4.89124 27.2947C5.27431 26.9116 5.27431 26.2911 4.89124 25.9075L3.78465 24.8008L4.27646 24.309L8.00242 28.0352C8.64263 28.6754 9.47191 29.0001 10.2758 29.0001C10.9924 29.0001 11.6884 28.7418 12.2117 28.218L12.915 27.515C13.3903 27.786 13.9221 27.9221 14.4543 27.9221C15.2496 27.9221 16.0449 27.6193 16.6506 27.013L16.7712 26.8924C17.9819 25.6811 17.9819 23.7106 16.7712 22.4999L13.5698 19.2983L18.0845 14.7831C18.4676 14.4001 18.467 13.779 18.0845 13.396C17.7019 13.0129 17.0809 13.0129 16.6978 13.3959ZM15.7171 24.6978C15.7171 25.0048 15.5986 25.2923 15.3845 25.5064L15.2639 25.627C14.8346 26.0568 14.0744 26.0568 13.6451 25.627L13.531 25.5128C13.5309 25.5128 13.5309 25.5128 13.5309 25.5127C13.5308 25.5127 13.5308 25.5127 13.5307 25.5126L7.71451 19.6969C7.33202 19.3138 6.71095 19.3138 6.32789 19.6969C5.94482 20.08 5.94482 20.701 6.32789 21.084L11.4498 26.2059L10.8246 26.8308C10.485 27.1687 9.8279 27.0858 9.38905 26.647L2.3518 19.6097C1.91352 19.1714 1.82957 18.5142 2.16851 18.1747L2.79445 17.5488L4.30954 19.0635C4.6926 19.4466 5.31311 19.4466 5.69668 19.0635C6.07974 18.6805 6.07974 18.0594 5.69668 17.6764L3.37395 15.3542C3.15984 15.1401 3.04135 14.8527 3.04135 14.5456C3.04135 14.2386 3.15984 13.9511 3.37395 13.737L3.49453 13.6169C3.92325 13.1871 4.68405 13.1871 5.11282 13.6169L9.00553 17.5098C9.00666 17.5109 9.00757 17.5122 9.00865 17.5133C9.00972 17.5143 9.01102 17.5153 9.0121 17.5164L11.4811 19.9856C11.4836 19.9881 11.4856 19.9908 11.488 19.9933C11.4905 19.9958 11.4933 19.9978 11.4957 20.0002L15.3844 23.8891C15.5986 24.1033 15.7171 24.3907 15.7171 24.6978Z" fill="#85644F"/>
</svg>
