<svg width="26" height="31" viewBox="0 0 26 31" fill="none" xmlns="http://www.w3.org/2000/svg">
<path fill-rule="evenodd" clip-rule="evenodd" d="M13.0791 2.34394C13.0724 2.34251 13.0521 2.33811 13.0064 2.35723C10.0133 3.6083 8.28496 5.95984 7.28956 8.52099C6.28783 11.0984 6.05383 13.8329 6.03949 15.6935C6.03475 16.3103 5.7033 16.7684 5.29263 17.0364C4.9181 17.2808 4.48239 17.3729 4.10928 17.3943C3.72388 17.4166 3.31883 17.3688 2.94612 17.2572C2.72941 17.1923 2.49971 17.0986 2.2829 16.9667C2.25164 17.0851 2.23134 17.2121 2.2252 17.3345C2.21613 17.5153 2.21155 17.6975 2.21155 17.8807C2.21155 21.7503 4.25383 25.1458 7.3222 27.0467C6.97956 26.2998 6.78845 25.4705 6.78845 24.5938C6.78845 20.4451 8.59859 18.119 10.427 16.8751C10.8702 16.5736 11.3754 16.4637 11.8767 16.5655C12.3483 16.6612 12.7269 16.9249 13.0059 17.2057C13.5536 17.7562 13.9139 18.5628 14.0315 19.306C14.1155 19.8367 14.3448 20.2524 14.5913 20.4907C14.8302 20.7216 15.0169 20.7379 15.144 20.7038C15.4892 20.611 16.0125 20.4706 16.5244 20.473C17.0736 20.4754 17.7719 20.6477 18.2259 21.3325C18.8484 22.2713 19.2115 23.3918 19.2115 24.5938C19.2115 25.4705 19.0204 26.2998 18.6779 27.0467C21.352 25.3901 23.2466 22.5983 23.6895 19.3468C23.5923 19.3967 23.4918 19.444 23.3884 19.4875C23.0541 19.6279 22.6794 19.6595 22.318 19.5374C21.9668 19.4189 21.7098 19.1831 21.5432 18.9305C21.2215 18.4429 21.1667 17.8039 21.3738 17.2469C21.838 15.9979 22.2986 13.7474 21.0614 11.1359C21.044 11.0991 21.0324 11.0933 21.0278 11.0911C21.0152 11.0843 20.9696 11.0653 20.8782 11.068C20.6795 11.0739 20.4089 11.1786 20.2062 11.3725C19.3982 12.1452 18.4156 12.5712 17.3917 12.5374C16.3657 12.5036 15.4224 12.0121 14.6909 11.1867C13.2502 9.56066 12.5977 6.64635 13.26 2.76002C13.2876 2.59818 13.2269 2.46081 13.1524 2.38918C13.1181 2.35611 13.091 2.34652 13.0791 2.34394ZM13 28.6581C15.383 28.6581 17.25 26.8033 17.25 24.5938C17.25 23.806 17.0165 23.0712 16.6091 22.4466C16.5907 22.4435 16.5605 22.4399 16.5155 22.4398C16.3075 22.4388 16.0335 22.5011 15.6516 22.6037C14.7013 22.8589 13.8331 22.4895 13.2301 21.9068C12.6348 21.3315 12.2353 20.5058 12.0942 19.6143C12.0303 19.2107 11.8271 18.8056 11.617 18.5944C11.5736 18.5507 11.5397 18.5251 11.5169 18.5104C10.2031 19.4086 8.75 21.1383 8.75 24.5938C8.75 26.8033 10.617 28.6581 13 28.6581ZM13 30.625C5.96155 30.625 0.25 24.9223 0.25 17.8807C0.25 17.6645 0.255426 17.4495 0.266136 17.2358C0.297033 16.6194 0.496401 15.895 0.899329 15.3875C1.10426 15.1294 1.45224 14.8187 1.9571 14.7572C2.49826 14.6912 2.94527 14.9417 3.25414 15.2517C3.2677 15.2653 3.34253 15.3232 3.50733 15.3725C3.66349 15.4193 3.84065 15.4398 3.99688 15.4307C4.02858 15.4289 4.05663 15.426 4.08122 15.4227C4.1155 13.4459 4.38603 10.575 5.4619 7.80679C6.5914 4.90067 8.63345 2.05411 12.2517 0.541773C13.1057 0.1848 13.9543 0.434853 14.5104 0.969852C15.0488 1.48779 15.332 2.27869 15.1936 3.09133C14.58 6.69098 15.2781 8.88819 16.1573 9.88025C16.5857 10.3639 17.0446 10.558 17.4561 10.5716C17.8695 10.5852 18.3597 10.4204 18.8524 9.94917C19.3773 9.44722 20.1 9.12326 20.8206 9.10197C21.5755 9.07968 22.4139 9.4066 22.8332 10.292C24.1327 13.0353 23.9214 15.4869 23.4713 17.1277C23.5244 17.0815 23.5751 17.0352 23.6232 16.9895C24.0188 16.6126 24.5451 16.5801 24.9337 16.7228C25.3314 16.8689 25.75 17.2688 25.75 17.8808C25.75 24.9223 20.0386 30.625 13 30.625Z" fill="#85644F"/>
</svg>
