<svg width="69" height="69" viewBox="0 0 69 69" fill="none" xmlns="http://www.w3.org/2000/svg">
<g clip-path="url(#clip0_30_693)">
<path d="M16.9805 62.4133C17.539 62.4133 17.9912 61.9611 17.9912 61.4026V33.9609H40.9688C41.5273 33.9609 41.9795 33.5087 41.9795 32.9502C41.9795 32.3917 41.5273 31.9395 40.9688 31.9395H39.0294L51.6063 1.45399C51.7342 1.14393 51.6995 0.790169 51.5142 0.510109C51.3283 0.230576 51.0162 0.0610657 50.6808 0.0579072L44.1042 0C44.101 0 44.0984 0 44.0952 0C43.632 0 43.2271 0.315857 43.1145 0.765953L35.336 31.9395H33.6635L28.1081 9.6747C27.9733 9.133 27.4248 8.80346 26.8831 8.93822C26.3414 9.07352 26.0119 9.62206 26.1466 10.1637L30.6966 28.3982L19.8332 2.06623L24.1173 2.02833L25.1033 5.98075C25.2385 6.52245 25.7871 6.85094 26.3288 6.7167C26.8705 6.58141 27.1995 6.03287 27.0647 5.49117L25.8855 0.765953C25.7729 0.315857 25.3686 0 24.9048 0C24.9022 0 24.899 0 24.8958 0L18.3197 0.0579072C17.9838 0.0610657 17.6711 0.230576 17.4858 0.510109C17.3005 0.790169 17.2663 1.14393 17.3942 1.45399L29.9706 31.9395H23.1123V29.5811H26.951C27.5064 29.5811 27.9955 29.2247 28.1686 28.6945C28.3434 28.1613 28.1571 27.5806 27.7059 27.2506L23.0139 23.8156C22.469 23.4161 21.7352 23.4161 21.1893 23.8156L16.4977 27.2506C16.0466 27.5812 15.8602 28.1613 16.035 28.6951C16.2082 29.2252 16.6973 29.5811 17.2526 29.5811H21.0908V31.9395H16.9805C16.4225 31.9395 15.9697 32.3917 15.9697 32.9502V61.4026C15.9697 61.9611 16.4225 62.4133 16.9805 62.4133V62.4133ZM44.8833 2.02833L49.1668 2.06623L38.3029 28.3987L44.8833 2.02833ZM22.1016 25.6528L24.7058 27.5596H19.4973L22.1016 25.6528Z" fill="#85644F"/>
<path d="M38.2061 38.2061C38.2061 37.6475 37.7539 37.1953 37.1953 37.1953H31.8047C31.2461 37.1953 30.7939 37.6475 30.7939 38.2061V43.5967C30.7939 44.1552 31.2461 44.6074 31.8047 44.6074H37.1953C37.7539 44.6074 38.2061 44.1552 38.2061 43.5967V38.2061ZM36.1846 42.5859H32.8154V39.2168H36.1846V42.5859Z" fill="#85644F"/>
<path d="M27.4248 38.2061C27.4248 37.6475 26.9726 37.1953 26.4141 37.1953H21.0234C20.4654 37.1953 20.0127 37.6475 20.0127 38.2061V43.5967C20.0127 44.1552 20.4654 44.6074 21.0234 44.6074H26.4141C26.9726 44.6074 27.4248 44.1552 27.4248 43.5967V38.2061ZM25.4033 42.5859H22.0342V39.2168H25.4033V42.5859Z" fill="#85644F"/>
<path d="M48.9873 38.2061C48.9873 37.6475 48.5346 37.1953 47.9766 37.1953H42.5859C42.0274 37.1953 41.5752 37.6475 41.5752 38.2061V43.5967C41.5752 44.1552 42.0274 44.6074 42.5859 44.6074H47.9766C48.5346 44.6074 48.9873 44.1552 48.9873 43.5967V38.2061ZM46.9658 42.5859H43.5967V39.2168H46.9658V42.5859Z" fill="#85644F"/>
<path d="M38.2061 48.7178C38.2061 48.1592 37.7539 47.707 37.1953 47.707H31.8047C31.2461 47.707 30.7939 48.1592 30.7939 48.7178V54.1084C30.7939 54.6669 31.2461 55.1191 31.8047 55.1191H37.1953C37.7539 55.1191 38.2061 54.6669 38.2061 54.1084V48.7178ZM36.1846 53.0977H32.8154V49.7285H36.1846V53.0977Z" fill="#85644F"/>
<path d="M27.4248 48.7178C27.4248 48.1592 26.9726 47.707 26.4141 47.707H21.0234C20.4654 47.707 20.0127 48.1592 20.0127 48.7178V54.1084C20.0127 54.6669 20.4654 55.1191 21.0234 55.1191H26.4141C26.9726 55.1191 27.4248 54.6669 27.4248 54.1084V48.7178ZM25.4033 53.0977H22.0342V49.7285H25.4033V53.0977Z" fill="#85644F"/>
<path d="M48.9873 48.7178C48.9873 48.1592 48.5346 47.707 47.9766 47.707H42.5859C42.0274 47.707 41.5752 48.1592 41.5752 48.7178V54.1084C41.5752 54.6669 42.0274 55.1191 42.5859 55.1191H47.9766C48.5346 55.1191 48.9873 54.6669 48.9873 54.1084V48.7178ZM46.9658 53.0977H43.5967V49.7285H46.9658V53.0977Z" fill="#85644F"/>
<path d="M37.1953 58.084H31.8047C31.2461 58.084 30.7939 58.5362 30.7939 59.0947V64.4854C30.7939 65.0439 31.2461 65.4961 31.8047 65.4961H37.1953C37.7539 65.4961 38.2061 65.0439 38.2061 64.4854V59.0947C38.2061 58.5362 37.7533 58.084 37.1953 58.084ZM36.1846 63.4746H32.8154V60.1055H36.1846V63.4746Z" fill="#85644F"/>
<path d="M26.4141 58.084H21.0234C20.4654 58.084 20.0127 58.5362 20.0127 59.0947V64.4854C20.0127 65.0439 20.4654 65.4961 21.0234 65.4961H26.4141C26.9726 65.4961 27.4248 65.0439 27.4248 64.4854V59.0947C27.4248 58.5362 26.9726 58.084 26.4141 58.084ZM25.4033 63.4746H22.0342V60.1055H25.4033V63.4746Z" fill="#85644F"/>
<path d="M47.9766 58.084H42.5859C42.0274 58.084 41.5752 58.5362 41.5752 59.0947V64.4854C41.5752 65.0439 42.0274 65.4961 42.5859 65.4961H47.9766C48.5346 65.4961 48.9873 65.0439 48.9873 64.4854V59.0947C48.9873 58.5362 48.5346 58.084 47.9766 58.084ZM46.9658 63.4746H43.5967V60.1055H46.9658V63.4746Z" fill="#85644F"/>
<path d="M11.265 12.5679L9.01404 12.2437L8.00909 10.2248C8.00909 10.2243 8.00909 10.2243 8.00909 10.2243C7.70376 9.61205 7.08784 9.23145 6.40138 9.23145C5.71544 9.23145 5.09952 9.61205 4.79472 10.2243L3.78924 12.2437L1.53876 12.5679C0.855453 12.6664 0.299019 13.1344 0.0873949 13.7893C-0.123176 14.4415 0.0526506 15.1427 0.54644 15.6197L2.16994 17.1889L1.7867 19.402C1.67036 20.0748 1.94148 20.7434 2.49422 21.1471C3.05066 21.5536 3.77555 21.6078 4.38673 21.2893L6.4019 20.2391L8.41707 21.2893C8.68134 21.4272 8.96666 21.4951 9.2504 21.4951C9.62312 21.4951 9.99372 21.3777 10.3096 21.1471C10.8623 20.7434 11.1329 20.0748 11.0166 19.402L10.6339 17.1889L12.2568 15.6197C12.7506 15.1427 12.9265 14.4415 12.7159 13.7893C12.5043 13.1344 11.9483 12.6664 11.265 12.5679ZM9.13933 15.8218C8.71345 16.2335 8.51972 16.8262 8.62027 17.4085L8.94455 19.2846L7.23366 18.3929C6.97308 18.2571 6.68723 18.1891 6.40138 18.1891C6.11605 18.1891 5.8302 18.2571 5.56962 18.3929L3.85873 19.2852L4.18301 17.4085C4.28408 16.8262 4.08983 16.2335 3.66447 15.8223L2.29734 14.501L4.19459 14.2278C4.7784 14.1435 5.28324 13.7793 5.54488 13.2528L6.40138 11.5319L7.25787 13.2528C7.52003 13.7793 8.02488 14.1435 8.60869 14.2278L10.5059 14.501L9.13933 15.8218Z" fill="#85644F"/>
<path d="M68.9126 17.967C68.701 17.3121 68.1446 16.8441 67.4613 16.7457L65.2108 16.4214L64.2053 14.4025C63.9005 13.7898 63.2846 13.4097 62.5981 13.4092C61.9117 13.4092 61.2957 13.7898 60.9909 14.4025L59.986 16.4214L57.735 16.7457C57.0517 16.8441 56.4958 17.3121 56.2841 17.967C56.0736 18.6192 56.2489 19.3204 56.7427 19.7974L58.3662 21.3667L57.9829 23.5798C57.8671 24.2525 58.1377 24.9211 58.6904 25.3249C59.2469 25.7313 59.9723 25.7855 60.5829 25.467L62.5981 24.4168L64.6133 25.467C64.8775 25.6049 65.1629 25.6729 65.4466 25.6729C65.8199 25.6729 66.1899 25.5555 66.5058 25.3249C67.0585 24.9211 67.3291 24.2525 67.2128 23.5798L66.8301 21.3667L68.4536 19.7974C68.9474 19.3204 69.1232 18.6192 68.9126 17.967V17.967ZM65.3355 19.9995C64.9102 20.4112 64.7159 21.004 64.8165 21.5862L65.1413 23.4624L63.4299 22.5706C62.9092 22.299 62.287 22.299 61.7664 22.5706L60.0549 23.4624L60.3797 21.5862C60.4803 21.004 60.2866 20.4107 59.8607 19.9995L58.4936 18.6787L60.3908 18.4055C60.9746 18.3213 61.4795 17.957 61.7416 17.4306L62.5981 15.7097L63.4546 17.4306C63.7162 17.957 64.2211 18.3213 64.8049 18.4055L66.7021 18.6787L65.3355 19.9995Z" fill="#85644F"/>
<path d="M51.7474 29.581C52.3027 29.581 52.7923 29.2246 52.9655 28.6945C53.1398 28.1613 52.9534 27.5806 52.5023 27.2505L47.8107 23.8156C47.2654 23.416 46.532 23.416 45.9861 23.8156L41.2941 27.2505C40.8429 27.5811 40.6571 28.1613 40.8314 28.6951C41.0045 29.2252 41.4941 29.581 42.049 29.581H45.8877V31.9394H45.2812C44.7227 31.9394 44.2705 32.3916 44.2705 32.9502C44.2705 33.5087 44.7227 33.9609 45.2812 33.9609H51.0088V66.9785H17.9912V65.6814C17.9912 65.1228 17.539 64.6706 16.9805 64.6706C16.4225 64.6706 15.9697 65.1228 15.9697 65.6814V67.9892C15.9697 68.5478 16.4225 69 16.9805 69H52.019C52.5775 69 53.0297 68.5478 53.0297 67.9892V32.9502C53.0297 32.3916 52.5775 31.9394 52.019 31.9394H47.9087V29.581H51.7474ZM46.8984 25.6528L49.5027 27.5596H44.2942L46.8984 25.6528Z" fill="#85644F"/>
</g>
<defs>
<clipPath id="clip0_30_693">
<rect width="69" height="69" fill="white"/>
</clipPath>
</defs>
</svg>
