<svg width="29" height="23" viewBox="0 0 29 23" fill="none" xmlns="http://www.w3.org/2000/svg">
<path d="M27.1051 16.79V5.49311L24.0797 1.6447H22.6687L21.8875 2.63839C19.8742 0.952099 17.235 0 14.5 0C11.7649 0 9.12577 0.952099 7.11248 2.63839L6.33135 1.64475H4.9202L1.89491 5.49317V16.79C0.782264 17.2275 0 18.2486 0 19.4354C0 21.0197 1.39364 22.3086 3.10674 22.3086H25.8933C27.6063 22.3086 29 21.0197 29 19.4354C29 18.2486 28.2177 17.2275 27.1051 16.79V16.79ZM16.0647 16.5623H12.9353V10.1833C12.9353 9.38538 13.6372 8.7362 14.5 8.7362C15.3628 8.7362 16.0647 9.38538 16.0647 10.1833V16.5623ZM15.4073 18.1337V20.7371H13.5927V18.1337H15.4073ZM14.5 7.16474C12.7002 7.16474 11.2361 8.51887 11.2361 10.1833V16.5623H9.35669V7.70878C10.4105 5.9964 12.3513 4.94483 14.5001 4.94483C16.6489 4.94483 18.5896 5.9964 19.6434 7.70878V16.5623H17.764V10.1833C17.7639 8.51882 16.2997 7.16474 14.5 7.16474V7.16474ZM3.59413 14.8037H7.65742V16.5623H3.59413V14.8037ZM7.65742 7.56991V13.2322H3.59413V7.56991H7.65742ZM25.4059 13.2322H21.3426V7.56991H25.4059V13.2322ZM21.3426 14.8037H25.4059V16.5623H21.7782H21.3426V14.8037ZM23.3742 3.41962L25.4015 5.99845H21.3469L23.3742 3.41962ZM14.5 1.57147C16.8742 1.57147 19.1633 2.4199 20.8818 3.91782L19.7702 5.33172C19.4028 5.00612 18.9997 4.71351 18.5656 4.45967C17.35 3.74905 15.9442 3.37341 14.5 3.37341C13.0558 3.37341 11.65 3.74905 10.4344 4.45967C10.0002 4.71351 9.59719 5.00617 9.2297 5.33172L8.11824 3.91782C9.83672 2.41985 12.1258 1.57147 14.5 1.57147V1.57147ZM5.62577 3.41962L7.65305 5.99845H3.59849L5.62577 3.41962ZM1.69922 19.4354C1.69922 18.7177 2.33059 18.1337 3.10674 18.1337H11.8935V20.7371H3.10674C2.33059 20.7371 1.69922 20.1532 1.69922 19.4354V19.4354ZM25.8933 20.7371H17.1065V18.1337H25.8933C26.6694 18.1337 27.3008 18.7176 27.3008 19.4354C27.3008 20.1532 26.6694 20.7371 25.8933 20.7371V20.7371Z" fill="#85644F"/>
<path d="M4.77618 8.65356H6.4754V10.2734H4.77618V8.65356Z" fill="#85644F"/>
<path d="M22.5246 8.65356H24.2238V10.2734H22.5246V8.65356Z" fill="#85644F"/>
</svg>
