<svg width="79" height="36" viewBox="0 0 79 36" fill="none" xmlns="http://www.w3.org/2000/svg">
<path d="M2.47662 26.008L13.9068 0L25.337 26.008H21.165L20.3268 23.9557H7.52497L6.64865 26.008H2.47662ZM8.89659 20.6472H18.9171L13.9068 8.72241L8.89659 20.6472Z" fill="#214A4D"/>
<path d="M50.6196 11.8186C50.2624 12.8801 49.7337 13.8355 49.0384 14.6848C48.3383 15.534 47.481 16.255 46.4666 16.8433C46.4142 16.8919 46.3523 16.9273 46.2761 16.9494C46.1999 16.976 46.1332 17.0113 46.0856 17.0556L51.0196 26.0788H46.6952L42.3708 18.241C42.066 18.2896 41.7612 18.325 41.4564 18.3471C41.1516 18.3737 40.8182 18.3825 40.4657 18.3825H35.4555V26.0788H31.3597V0H40.4657C41.6088 0 42.6803 0.137117 43.6853 0.406928C44.6997 0.681161 45.6284 1.0527 46.4666 1.52156C48.524 2.72465 49.9052 4.4187 50.6196 6.59931C50.6577 6.71873 50.6863 6.82489 50.7148 6.91777C50.7386 7.01508 50.7767 7.12123 50.8291 7.23624V7.41316C50.8768 7.53259 50.9101 7.66086 50.9244 7.8024C50.9339 7.94394 50.953 8.08548 50.9815 8.22702V8.2624C51.0053 8.40394 51.0196 8.54548 51.0196 8.68702C51.0196 8.82856 51.0196 8.98337 51.0196 9.14703V9.25318C51.0196 9.39472 51.0196 9.53626 51.0196 9.6778C51.0196 9.81934 51.0053 9.96088 50.9815 10.1024V10.1732C50.953 10.3147 50.9339 10.4519 50.9244 10.5801C50.9101 10.7128 50.8768 10.8455 50.8291 10.987V11.1286C50.7244 11.4028 50.6577 11.6328 50.6196 11.8186ZM40.9611 15.0386C41.7993 15.0386 42.566 14.875 43.2661 14.5432C43.9758 14.2159 44.5854 13.778 45.095 13.234C45.5998 12.6944 46.0094 12.0751 46.3142 11.3763C46.619 10.6686 46.7714 9.93877 46.7714 9.18241C46.7714 8.4526 46.619 7.73163 46.3142 7.02393C46.0094 6.31623 45.5998 5.69699 45.095 5.16621C44.5854 4.62659 43.9758 4.1887 43.2661 3.85697C42.566 3.52966 41.7993 3.36158 40.9611 3.36158H35.4936V15.0386H40.9611Z" fill="#214A4D"/>
<path d="M75.0746 0.0336914L67.1306 9.99457L75.9128 26.0063H71.6074L64.5779 13.1969L61.0917 17.5316V26.0063H57.0339V0.0336914H61.0917V11.8169L70.4263 0.0336914H75.0746Z" fill="#214A4D"/>
<path d="M78.6351 30.9824C77.8826 30.5932 77.1348 30.2083 76.3824 29.8235C75.1965 29.2087 74.0106 28.5983 72.8247 27.9879C72.5532 27.8464 72.2818 27.7049 72.0055 27.5633C71.5102 27.3112 70.8816 27.6252 70.8816 28.1693C70.8816 28.9433 70.8816 29.713 70.8816 30.4826C70.8816 30.6197 70.8816 30.7524 70.8816 30.8851C70.872 30.8851 70.8673 30.8851 70.8577 30.8851C70.1672 30.8851 52.798 30.8851 52.3551 30.8851C52.2646 30.5578 52.1217 30.2393 51.9074 29.9695C51.5217 29.4697 51.0264 29.1114 50.4072 28.8991C49.2785 28.501 47.8783 28.8549 47.1115 29.7306C46.8067 30.0801 46.5924 30.4649 46.4781 30.8851C45.7161 30.8851 43.8587 30.8851 43.692 30.8851C43.6015 30.5533 43.4538 30.2393 43.2443 29.9695C42.8585 29.4697 42.3632 29.1114 41.7441 28.8991C40.6106 28.501 39.2151 28.8549 38.4484 29.7306C38.1436 30.0801 37.9292 30.4649 37.8102 30.8851C37.6054 30.8851 35.748 30.8851 35.0288 30.8851C34.9431 30.5578 34.7955 30.2393 34.5812 29.9695C34.1954 29.4697 33.7001 29.1114 33.0809 28.8991C31.9522 28.501 30.552 28.8549 29.7852 29.7306C29.4804 30.0801 29.2661 30.4649 29.1518 30.8851C28.5279 30.8851 26.6705 30.8807 26.3657 30.8807C26.2752 30.5533 26.1323 30.2393 25.9228 29.9695C25.5322 29.4697 25.0369 29.1114 24.4225 28.8991C23.2891 28.501 21.8889 28.8549 21.1221 29.7306C20.8173 30.0801 20.603 30.4649 20.4887 30.8851C19.9695 30.8851 18.1121 30.8851 17.7025 30.8851C17.6168 30.5578 17.4692 30.2393 17.2596 29.9695C16.8691 29.4697 16.3738 29.1114 15.7594 28.8991C14.6259 28.501 13.2257 28.8549 12.4589 29.7306C12.1541 30.0801 11.9446 30.4649 11.8255 30.8851C11.3778 30.8851 0.576289 30.89 1.51156e-05 30.89C1.51156e-05 30.89 1.51156e-05 30.9753 1.51156e-05 31.2407C1.51156e-05 30.9753 1.51156e-05 31.2407 1.51156e-05 31.3937C1.51156e-05 31.7398 1.51156e-05 31.5884 1.51156e-05 31.5884C1.51156e-05 31.8582 1.51156e-05 31.8582 1.51156e-05 31.8582C0 31.9997 0 32.1412 0 32.158C0 32.158 1.51156e-05 31.8582 0 32.1412C0 32.1891 0.00284471 32.1398 1.77318e-05 32.2916C3.37195e-05 32.1976 3.47553e-05 32.1915 1.77318e-05 32.2916C0.000272968 32.2776 3.57316e-05 32.1858 1.77318e-05 32.2916C0.409601 32.2916 11.1016 32.2916 11.816 32.2916C11.8874 32.5614 12.0065 32.818 12.1541 33.0524C12.4589 33.5213 12.9114 33.9282 13.4448 34.1538C14.0687 34.4236 14.7307 34.4988 15.407 34.3705C16.5405 34.1626 17.412 33.309 17.6978 32.2916C17.9407 32.2916 20.3982 32.2916 20.4791 32.2916C20.5553 32.5614 20.6696 32.818 20.8173 33.0524C21.1221 33.5213 21.5793 33.9238 22.1127 34.1538C22.7366 34.4192 23.3938 34.4944 24.0701 34.3705C25.2036 34.1626 26.0752 33.309 26.3609 32.2872C26.5705 32.2872 28.4231 32.2872 29.1423 32.2872C29.2185 32.557 29.3328 32.818 29.4852 33.0524C29.7852 33.5213 30.2424 33.9238 30.7758 34.1538C31.3997 34.4192 32.057 34.4944 32.7333 34.3705C33.8668 34.1626 34.7383 33.309 35.0241 32.2872C35.648 32.2872 37.5054 32.2916 37.8102 32.2916C37.8816 32.5614 37.9959 32.818 38.1483 33.0524C38.4484 33.5213 38.9056 33.9238 39.439 34.1538C40.0629 34.4192 40.7201 34.4944 41.3964 34.3705C42.5299 34.1626 43.4015 33.309 43.6872 32.2872C43.7301 32.2872 46.2781 32.2872 46.4733 32.2872C46.5448 32.557 46.6591 32.818 46.8115 33.0524C47.1115 33.5213 47.5687 33.9238 48.1021 34.1538C48.726 34.4192 49.388 34.4944 50.0595 34.3705C51.193 34.1626 52.0646 33.309 52.3551 32.2872C52.4742 32.2872 70.7482 32.2872 70.8863 32.2916C70.8863 32.9153 70.8863 33.5434 70.8863 34.167C70.8863 34.4457 70.8863 34.7244 70.8863 35.003C70.8863 35.0074 70.8863 35.0119 70.8863 35.0163C70.8816 35.1357 70.9149 35.2551 70.9863 35.3613C71.0054 35.3922 71.0292 35.4188 71.053 35.4453C71.0625 35.4497 71.0673 35.4586 71.0721 35.463C71.0768 35.4674 71.0768 35.4719 71.0816 35.4719C71.2197 35.6178 71.4197 35.7151 71.634 35.7063C71.6626 35.7063 71.696 35.7019 71.7245 35.6974C71.8246 35.6886 71.9198 35.6576 72.0103 35.609C72.7628 35.2242 73.5105 34.8394 74.263 34.4501C75.4489 33.8397 76.6348 33.2249 77.8207 32.6145C78.0969 32.473 78.3684 32.3314 78.6398 32.1943C79.1209 31.9422 79.1208 31.2345 78.6351 30.9824ZM24.8512 32.1413C24.8036 32.2386 24.7512 32.3314 24.6845 32.4199C24.6702 32.4376 24.6607 32.4553 24.6464 32.473C24.6035 32.5172 24.5607 32.5659 24.513 32.6101C24.4654 32.6499 24.4225 32.6897 24.3702 32.7295C24.3511 32.7428 24.3321 32.7561 24.313 32.7693C24.2178 32.8313 24.1177 32.8799 24.013 32.9241C23.8891 32.9684 23.7653 32.9993 23.632 33.0215C23.4938 33.0347 23.3557 33.0347 23.2176 33.0215C23.089 32.9993 22.9604 32.9684 22.8366 32.9241C22.7366 32.8799 22.6318 32.8313 22.5366 32.7693C22.5175 32.7605 22.4985 32.7472 22.4842 32.7339C22.4318 32.6941 22.3842 32.6543 22.3365 32.6101C22.2937 32.5659 22.2508 32.5216 22.2079 32.4774C22.1937 32.4597 22.1794 32.442 22.1651 32.4243C22.1032 32.3314 22.046 32.2386 21.9984 32.1413C21.9555 32.0262 21.9222 31.9068 21.8984 31.7874C21.8841 31.6547 21.8841 31.5264 21.8984 31.3937C21.9222 31.2743 21.9555 31.1549 21.9984 31.0399C22.046 30.9426 22.1032 30.8453 22.1651 30.7568C22.1794 30.7435 22.1889 30.7259 22.2032 30.7082C22.2508 30.6595 22.2889 30.6153 22.3365 30.571C22.3842 30.5268 22.4318 30.487 22.4794 30.4516C22.4985 30.4383 22.5175 30.4251 22.5366 30.4118C22.6318 30.3499 22.7318 30.3012 22.8366 30.2526C22.9604 30.2128 23.089 30.1774 23.2176 30.1597C23.3557 30.1464 23.4938 30.1464 23.632 30.1597C23.7653 30.1774 23.8891 30.2128 24.013 30.2526C24.1177 30.3012 24.2178 30.3499 24.313 30.4118C24.3321 30.4207 24.3511 30.4339 24.3702 30.4472C24.4178 30.487 24.4654 30.5268 24.513 30.571C24.5607 30.6108 24.6035 30.6551 24.6464 30.7037C24.6607 30.7214 24.6702 30.7391 24.6845 30.7568C24.7512 30.8453 24.8036 30.9426 24.8512 31.0399C24.8988 31.1549 24.9321 31.2743 24.956 31.3982C24.9607 31.4512 24.9655 31.5087 24.9655 31.5662C24.9655 31.5751 24.9655 31.5839 24.9655 31.5928C24.9655 31.6547 24.9607 31.7211 24.956 31.783C24.9321 31.9068 24.894 32.0218 24.8512 32.1413ZM42.2822 31.783C42.2584 31.9024 42.2203 32.0218 42.1775 32.1413C42.1298 32.2386 42.0775 32.3314 42.0108 32.4199C41.9965 32.4376 41.987 32.4553 41.9727 32.473C41.9298 32.5172 41.887 32.5659 41.8393 32.6101C41.7917 32.6499 41.7488 32.6897 41.6964 32.7295C41.6774 32.7428 41.6583 32.7561 41.6393 32.7693C41.544 32.8313 41.444 32.8799 41.3393 32.9241C41.2154 32.9684 41.0916 32.9993 40.9582 33.0215C40.8201 33.0347 40.682 33.0347 40.5439 33.0215C40.4153 32.9993 40.2867 32.9684 40.1629 32.9241C40.0629 32.8799 39.9581 32.8313 39.8676 32.7693C39.8486 32.7605 39.8295 32.7472 39.8105 32.7339C39.7628 32.6941 39.7105 32.6543 39.6628 32.6101C39.62 32.5659 39.5771 32.5216 39.5342 32.4774C39.5199 32.4597 39.5057 32.442 39.4914 32.4243C39.4295 32.3314 39.3771 32.2386 39.3294 32.1413C39.2818 32.0262 39.2485 31.9068 39.2247 31.7874C39.2104 31.6547 39.2104 31.5264 39.2247 31.3937C39.2485 31.2743 39.2818 31.1549 39.3294 31.0399C39.3771 30.9426 39.4295 30.8453 39.4914 30.7568C39.5057 30.7435 39.5199 30.7259 39.5295 30.7082C39.5723 30.6595 39.6152 30.6153 39.6628 30.571C39.7105 30.5268 39.7581 30.487 39.8057 30.4516C39.8248 30.4383 39.8438 30.4251 39.8629 30.4118C39.9581 30.3499 40.0581 30.3012 40.1629 30.2526C40.2867 30.2128 40.4106 30.1774 40.5439 30.1597C40.682 30.1464 40.8201 30.1464 40.9582 30.1597C41.0868 30.1774 41.2154 30.2128 41.3393 30.2526C41.444 30.3012 41.544 30.3499 41.6393 30.4118C41.6583 30.4207 41.6774 30.4339 41.6917 30.4472C41.7441 30.487 41.7917 30.5268 41.8393 30.571C41.8822 30.6108 41.9251 30.6551 41.9679 30.7037C41.9822 30.7214 41.9965 30.7391 42.0108 30.7568C42.0775 30.8453 42.1298 30.9426 42.1775 31.0399C42.2203 31.1549 42.2584 31.2743 42.2822 31.3982C42.287 31.4512 42.287 31.5087 42.2918 31.5662C42.2918 31.5751 42.2918 31.5839 42.2918 31.5884C42.287 31.6547 42.287 31.7166 42.2822 31.783ZM75.6299 32.1413C74.544 32.703 73.4581 33.2603 72.377 33.8176C72.377 33.4416 72.377 33.0701 72.377 32.6941C72.377 31.5839 72.377 30.4693 72.377 29.3591C72.7485 29.5537 73.1247 29.7439 73.501 29.9385C74.5678 30.487 75.6346 31.0399 76.7015 31.5928C76.3443 31.7741 75.9871 31.9555 75.6299 32.1413Z" fill="#214A4D"/>
</svg>
