<svg width="284" height="92" viewBox="0 0 284 92" fill="none" xmlns="http://www.w3.org/2000/svg">
<path d="M118.87 74V58.38H120.85V74H118.87ZM139.523 74V62.076L134.375 71.25H133.165L127.995 62.076V74H126.015V58.38H128.105L133.759 68.522L139.435 58.38H141.503V74H139.523ZM153.009 74.11C151.909 74.11 150.912 73.89 150.017 73.45C149.123 73.01 148.345 72.416 147.685 71.668C147.04 70.9053 146.541 70.0547 146.189 69.116C145.837 68.1627 145.661 67.1873 145.661 66.19C145.661 65.1487 145.845 64.1587 146.211 63.22C146.593 62.2667 147.113 61.4233 147.773 60.69C148.448 59.942 149.233 59.3553 150.127 58.93C151.022 58.49 151.997 58.27 153.053 58.27C154.153 58.27 155.151 58.4973 156.045 58.952C156.94 59.4067 157.71 60.0153 158.355 60.778C159.001 61.5407 159.499 62.3913 159.851 63.33C160.203 64.2687 160.379 65.2293 160.379 66.212C160.379 67.2533 160.196 68.2507 159.829 69.204C159.463 70.1427 158.942 70.986 158.267 71.734C157.607 72.4673 156.83 73.0467 155.935 73.472C155.041 73.8973 154.065 74.11 153.009 74.11ZM147.663 66.19C147.663 66.982 147.788 67.752 148.037 68.5C148.301 69.2333 148.668 69.886 149.137 70.458C149.607 71.03 150.171 71.4847 150.831 71.822C151.491 72.1593 152.225 72.328 153.031 72.328C153.867 72.328 154.615 72.152 155.275 71.8C155.935 71.448 156.493 70.9787 156.947 70.392C157.417 69.8053 157.769 69.1453 158.003 68.412C158.253 67.6787 158.377 66.938 158.377 66.19C158.377 65.398 158.245 64.6353 157.981 63.902C157.732 63.1687 157.365 62.516 156.881 61.944C156.412 61.3573 155.847 60.9027 155.187 60.58C154.542 60.2427 153.823 60.074 153.031 60.074C152.195 60.074 151.447 60.25 150.787 60.602C150.127 60.9393 149.563 61.4013 149.093 61.988C148.639 62.5747 148.287 63.2347 148.037 63.968C147.788 64.6867 147.663 65.4273 147.663 66.19ZM153.735 56.51L152.459 56.07L153.735 53.848H155.671L153.735 56.51ZM164.399 58.38L169.569 71.514L174.717 58.38H176.807L170.471 74H168.667L162.309 58.38H164.399ZM190.946 72.24V74H180.342V58.38H190.748V60.14H182.322V65.2H189.648V66.85H182.322V72.24H190.946ZM195.092 74V58.38H197.072V74H195.092ZM211.411 61.658C211.235 61.4527 211 61.2547 210.707 61.064C210.414 60.8733 210.084 60.7047 209.717 60.558C209.35 60.3967 208.947 60.272 208.507 60.184C208.082 60.0813 207.634 60.03 207.165 60.03C205.962 60.03 205.075 60.2573 204.503 60.712C203.931 61.1667 203.645 61.79 203.645 62.582C203.645 63.1393 203.792 63.5793 204.085 63.902C204.378 64.2247 204.826 64.4887 205.427 64.694C206.043 64.8993 206.82 65.112 207.759 65.332C208.844 65.5667 209.783 65.8527 210.575 66.19C211.367 66.5273 211.976 66.982 212.401 67.554C212.826 68.1113 213.039 68.8593 213.039 69.798C213.039 70.546 212.892 71.1987 212.599 71.756C212.32 72.2987 211.924 72.7533 211.411 73.12C210.898 73.472 210.296 73.736 209.607 73.912C208.918 74.0733 208.17 74.154 207.363 74.154C206.571 74.154 205.794 74.0733 205.031 73.912C204.283 73.736 203.572 73.4867 202.897 73.164C202.222 72.8413 201.592 72.438 201.005 71.954L201.951 70.282C202.186 70.5313 202.486 70.7807 202.853 71.03C203.234 71.2647 203.66 71.4847 204.129 71.69C204.613 71.8953 205.134 72.064 205.691 72.196C206.248 72.3133 206.82 72.372 207.407 72.372C208.522 72.372 209.387 72.174 210.003 71.778C210.619 71.3673 210.927 70.7733 210.927 69.996C210.927 69.4093 210.751 68.94 210.399 68.588C210.062 68.236 209.556 67.9427 208.881 67.708C208.206 67.4733 207.385 67.2387 206.417 67.004C205.361 66.74 204.474 66.454 203.755 66.146C203.036 65.8233 202.494 65.4053 202.127 64.892C201.775 64.3787 201.599 63.7113 201.599 62.89C201.599 61.8927 201.841 61.0493 202.325 60.36C202.809 59.6707 203.476 59.15 204.327 58.798C205.178 58.446 206.138 58.27 207.209 58.27C207.913 58.27 208.566 58.3433 209.167 58.49C209.783 58.6367 210.355 58.842 210.883 59.106C211.411 59.37 211.895 59.6853 212.335 60.052L211.411 61.658Z" fill="white"/>
<path d="M127.73 31.686H121.828V47H118.266V31.686H112.364V28.54H127.73V31.686ZM131.712 47V28.54H139.876C140.725 28.54 141.505 28.7133 142.216 29.06C142.944 29.4067 143.568 29.8747 144.088 30.464C144.625 31.0533 145.032 31.712 145.31 32.44C145.604 33.168 145.752 33.9133 145.752 34.676C145.752 35.456 145.613 36.21 145.336 36.938C145.076 37.6487 144.694 38.2727 144.192 38.81C143.689 39.3473 143.1 39.7633 142.424 40.058L146.636 47H142.684L138.888 40.812H135.3V47H131.712ZM135.3 37.666H139.798C140.248 37.666 140.647 37.536 140.994 37.276C141.34 36.9987 141.618 36.6347 141.826 36.184C142.034 35.7333 142.138 35.2307 142.138 34.676C142.138 34.0867 142.016 33.5753 141.774 33.142C141.531 32.6913 141.219 32.336 140.838 32.076C140.474 31.816 140.075 31.686 139.642 31.686H135.3V37.666ZM155.711 28.54H159.351L166.137 47H162.445L160.729 42.398H154.281L152.591 47H148.899L155.711 28.54ZM160.079 39.876L157.531 32.258L154.879 39.876H160.079ZM184.905 47V34.884L180.173 43.906H178.171L173.439 34.884V47H169.851V28.54H173.699L179.159 39.044L184.671 28.54H188.493V47H184.905ZM199.056 28.54H202.696L209.482 47H205.79L204.074 42.398H197.626L195.936 47H192.244L199.056 28.54ZM203.424 39.876L200.876 32.258L198.224 39.876H203.424ZM216.784 35.144V47H213.196V28.54H216.056L225.598 40.708V28.566H229.186V47H226.196L216.784 35.144ZM234.716 47V28.54H241.424C243.435 28.54 245.116 28.956 246.468 29.788C247.82 30.6027 248.834 31.712 249.51 33.116C250.186 34.5027 250.524 36.0453 250.524 37.744C250.524 39.616 250.152 41.2453 249.406 42.632C248.661 44.0187 247.604 45.0933 246.234 45.856C244.882 46.6187 243.279 47 241.424 47H234.716ZM246.91 37.744C246.91 36.548 246.694 35.4993 246.26 34.598C245.827 33.6793 245.203 32.9687 244.388 32.466C243.574 31.946 242.586 31.686 241.424 31.686H238.304V43.854H241.424C242.603 43.854 243.6 43.594 244.414 43.074C245.229 42.5367 245.844 41.8087 246.26 40.89C246.694 39.954 246.91 38.9053 246.91 37.744ZM259.325 28.54H262.965L269.751 47H266.059L264.343 42.398H257.895L256.205 47H252.513L259.325 28.54ZM263.693 39.876L261.145 32.258L258.493 39.876H263.693ZM273.465 47V28.54H277.053V47H273.465ZM276.403 26.98L274.167 26.304L275.571 23.21H278.821L276.403 26.98Z" fill="white"/>
<path d="M33.7788 2.09469C32.452 2.78943 30.7031 4.17891 29.9191 5.25259L28.5319 7.21048L27.2654 5.94733C25.3356 4.05259 22.3201 3.29469 19.6062 4.05259C16.5304 4.9368 16.2892 5.69469 18.8825 6.26312C21.5361 6.76838 23.9484 7.84206 23.9484 8.59996C23.9484 8.85259 22.501 9.10522 20.8124 9.10522C16.4701 9.10522 13.2134 11.0631 11.4041 14.7894C10.6804 16.3052 10.0773 18.1368 10.0773 18.8315C10.0773 19.9684 10.1979 19.9684 11.766 18.4526C13.3943 16.7473 19.3649 13.5263 20.8124 13.5263C21.1742 13.5263 21.5361 13.7789 21.5361 14.1579C21.5361 14.4736 21.2948 14.7894 21.0536 14.7894C20.149 14.7894 11.2232 26.3473 8.87113 30.5789C2.47835 41.8842 0.669076 56.5368 4.04639 69.6737C5.67474 75.9894 6.39845 77.1263 8.08711 76.0526C9.2933 75.2316 9.2933 75.2316 7.72526 70.4316C6.33814 66.1368 6.21753 64.621 6.15722 56.1579C6.15722 48.7052 6.39845 45.8631 7.24278 42.8947C8.6299 38.3473 11.8866 31.3368 14.118 28.2421L15.7464 26.0315L16.5304 28.8736C16.9526 30.3894 17.6763 32.0315 18.1588 32.4105C18.8222 32.9789 19.0634 32.6 19.3649 30.0736C19.7268 27.2315 23.2247 18.4526 24.3706 17.7579C24.6118 17.5684 24.7325 21.8 24.6722 27.1052C24.4309 38.1579 25.5165 48.0105 27.8685 55.7789C28.7129 58.4315 29.3763 60.8315 29.3763 61.2105C29.3763 61.5263 27.6876 62.7894 25.5768 63.8631C23.5263 65 20.4505 67.3368 18.8222 69.1052L15.9273 72.2L19.184 71.3158C27.4464 69.0421 38.8448 68.6631 58.0232 70.1158L63.451 70.5579L62.0036 68.9158C58.9278 65.3789 46.5644 60.3263 41.016 60.2631H39.0258V56.2842C39.0258 50.9158 40.5335 41.1894 42.1015 36.3894C43.4886 32.0947 44.6345 31.021 43.7902 34.8105C43.1268 37.9052 43.1268 42.0105 43.7902 43.1473C44.5139 44.3473 46.0216 41.2526 46.9263 36.8947C47.2881 35.0631 47.8309 33.8631 48.0721 34.1789C48.7355 34.8736 49.8814 40.8105 49.9417 43.7158L50.002 46.0526L51.4495 42.8947C53.1984 39.0421 53.1984 38.0315 51.6907 34.4315C51.0273 32.9158 50.6051 31.5263 50.7257 31.4C51.0876 30.9579 55.2489 35.5052 56.5757 37.7789L57.7216 39.7368V37.2736C57.7216 34.1158 55.852 30.9579 52.7763 29.0631C50.1227 27.421 50.2433 27.1052 53.7412 26.4736C55.3092 26.1579 55.7917 25.8421 55.1886 25.4631C53.9824 24.6421 49.0371 24.7684 47.8309 25.7158C46.9263 26.4105 46.5041 26.2842 44.8154 24.5789C43.7902 23.5684 42.4634 21.3579 41.8603 19.7789C41.3175 18.2 39.6892 15.7368 38.302 14.2842C36.5531 12.3894 36.1309 11.6315 36.8546 11.6315C38.4227 11.6315 44.7551 15.1684 47.1675 17.3789C48.6752 18.7684 49.2783 19.0842 49.2783 18.3894C49.2783 16.5579 48.1324 14.221 45.901 11.6947C43.1268 8.41048 43.4886 8.22101 52.7763 8.59996C58.385 8.85259 60.8577 9.2947 64.8381 10.6842C76.5984 14.8526 85.886 23.3158 91.2536 34.6842C93.6056 39.7368 95.8974 46.9368 95.3546 47.5684C95.2943 47.6947 94.4499 47.1894 93.485 46.4947C92.5804 45.8631 91.1932 45.0421 90.4092 44.7894C89.1427 44.4105 89.2633 44.6631 91.2536 47.4421C92.4597 49.0842 94.3293 52.3052 95.3546 54.5789C96.9829 58.1158 97.2242 59.3789 97.2242 63.7368C97.1639 68.0947 96.9226 69.2316 95.4149 72.1368C90.5902 81.3579 80.036 86.7263 66.5268 86.7894C59.8324 86.7894 50.0623 85.2737 43.6696 83.2526C33.2964 79.9684 27.8082 79.0842 19.7268 79.3368C10.801 79.6526 6.76031 80.9789 2.90052 84.8947C-0.0546347 87.9263 -0.356181 89.3789 2.35773 87.2316C6.94124 83.6316 10.7407 82.1789 16.1685 81.8631C22.1995 81.5473 26.3608 82.3684 39.6892 86.4105C53.9221 90.7052 58.385 91.4631 69.4819 91.4631C79.9154 91.4631 83.8355 90.7684 90.2886 87.5473C99.6968 82.8737 105.245 70.5579 102.773 59.9473C102.23 57.6737 101.265 55.021 100.662 54.0737C100.059 53.1263 99.2144 50.2842 98.8525 47.821C95.6561 27.3579 81.4835 11.3789 62.2448 6.51575C56.3345 5.06312 45.8407 4.9368 40.5335 6.26312C33.2361 8.0947 32.2108 6.95785 38.0608 3.67364C40.6541 2.22101 41.3175 1.58943 40.5335 1.27364C38.7845 0.578904 36.3721 0.894694 33.7788 2.09469ZM37.4577 22.0526C38.3624 24.0105 39.0861 25.7158 38.9654 25.7789C38.8448 25.9052 37.6386 26.1579 36.2515 26.3473L33.7788 26.7894L33.6582 23.4421C33.5979 21.5473 33.2964 19.0842 32.9948 17.8842C32.1505 14.9789 32.1505 14.9789 34.0804 16.8736C34.985 17.821 36.4928 20.1579 37.4577 22.0526ZM28.351 19.7789C28.9541 25.5263 32.9948 35.8842 32.9948 31.5263C32.9948 30.1368 35.166 29.2526 38.0005 29.4421L40.5335 29.6315L38.6036 30.8315C36.0706 32.4736 34.0804 36.2631 34.3216 39.1684L34.5026 41.3789L36.7943 38.0315C38.1211 36.2 39.8701 34.1158 40.7144 33.4842C42.2221 32.2842 42.2221 32.2842 41.7397 33.4842C38.6639 41 36.0103 52.4947 36.0103 58.1789C36.0103 59.8842 35.7691 60.3263 34.985 60.1368C32.9345 59.7579 28.351 42.6421 26.9639 30.0736C26.2402 24.1368 26.602 16.0526 27.5067 16.0526C27.8082 16.0526 28.1701 17.6947 28.351 19.7789Z" fill="white"/>
<path d="M66.7681 35.6315C64.8382 36.0736 64.8985 36.0736 67.9139 36.1999C70.6279 36.263 71.3516 36.5157 72.6784 38.0946L74.3067 39.863L75.9954 38.5999C77.5031 37.3999 77.9253 37.3367 81.0614 38.0315C82.9309 38.4104 84.5593 38.663 84.7402 38.5367C84.8608 38.4104 83.4737 37.7157 81.6041 36.9578C78.8902 35.8841 77.9856 35.8209 76.3572 36.3893C74.7892 36.9578 74.1258 36.8946 72.799 36.0104C70.9897 34.9367 70.1454 34.8736 66.7681 35.6315Z" fill="white"/>
<path d="M86.4891 56.2211C88.2984 59.6316 88.1778 62.5369 85.9463 67.1474C84.1973 70.6211 79.7948 73.6527 74.6685 74.9158C69.7834 76.1158 54.5252 75.8632 47.7706 74.5369C40.2319 73.0211 30.7031 72.579 24.3103 73.4632C19.4252 74.1579 7.24279 77.6948 7.78557 78.2632C7.90619 78.3895 10.017 77.9474 12.4897 77.1895C18.3397 75.5474 31.7283 74.9158 38.302 76.0527C40.835 76.4948 46.6247 77.6948 51.0876 78.7684C61.8829 81.2948 72.5577 81.5474 79.1917 79.4C87.635 76.6211 92.0979 71.6948 92.0979 65.1895C92.0979 61.4632 91.0123 58.6842 88.7205 56.2842C85.5845 53 84.7401 53 86.4891 56.2211Z" fill="white"/>
</svg>
