<svg width="188" height="175" viewBox="0 0 188 175" fill="none" xmlns="http://www.w3.org/2000/svg">
<path d="M31.4519 119.644H26.0039V133.78H22.7159V119.644H17.2679V116.74H31.4519V119.644ZM35.1272 133.78V116.74H42.6632C43.4472 116.74 44.1672 116.9 44.8233 117.22C45.4953 117.54 46.0713 117.972 46.5512 118.516C47.0473 119.06 47.4233 119.668 47.6792 120.34C47.9513 121.012 48.0873 121.7 48.0873 122.404C48.0873 123.124 47.9593 123.82 47.7033 124.492C47.4633 125.148 47.1112 125.724 46.6473 126.22C46.1833 126.716 45.6393 127.1 45.0153 127.372L48.9032 133.78H45.2553L41.7513 128.068H38.4392V133.78H35.1272ZM38.4392 125.164H42.5913C43.0073 125.164 43.3753 125.044 43.6953 124.804C44.0153 124.548 44.2713 124.212 44.4633 123.796C44.6553 123.38 44.7513 122.916 44.7513 122.404C44.7513 121.86 44.6393 121.388 44.4153 120.988C44.1913 120.572 43.9033 120.244 43.5512 120.004C43.2153 119.764 42.8472 119.644 42.4472 119.644H38.4392V125.164ZM57.2802 116.74H60.6402L66.9042 133.78H63.4962L61.9122 129.532H55.9602L54.4002 133.78H50.9922L57.2802 116.74ZM61.3122 127.204L58.9602 120.172L56.5122 127.204H61.3122ZM84.2292 133.78V122.596L79.8612 130.924H78.0132L73.6452 122.596V133.78H70.3332V116.74H73.8852L78.9252 126.436L84.0132 116.74H87.5412V133.78H84.2292ZM97.2908 116.74H100.651L106.915 133.78H103.507L101.923 129.532H95.9708L94.4108 133.78H91.0028L97.2908 116.74ZM101.323 127.204L98.9708 120.172L96.5228 127.204H101.323ZM113.656 122.836V133.78H110.344V116.74H112.984L121.792 127.972V116.764H125.104V133.78H122.344L113.656 122.836ZM130.208 133.78V116.74H136.4C138.256 116.74 139.808 117.124 141.056 117.892C142.304 118.644 143.24 119.668 143.864 120.964C144.488 122.244 144.8 123.668 144.8 125.236C144.8 126.964 144.456 128.468 143.768 129.748C143.08 131.028 142.104 132.02 140.84 132.724C139.592 133.428 138.112 133.78 136.4 133.78H130.208ZM141.464 125.236C141.464 124.132 141.264 123.164 140.864 122.332C140.464 121.484 139.888 120.828 139.136 120.364C138.384 119.884 137.472 119.644 136.4 119.644H133.52V130.876H136.4C137.488 130.876 138.408 130.636 139.16 130.156C139.912 129.66 140.48 128.988 140.864 128.14C141.264 127.276 141.464 126.308 141.464 125.236ZM152.924 116.74H156.284L162.548 133.78H159.14L157.556 129.532H151.604L150.044 133.78H146.636L152.924 116.74ZM156.956 127.204L154.604 120.172L152.156 127.204H156.956ZM165.977 133.78V116.74H169.289V133.78H165.977ZM168.689 115.3L166.625 114.676L167.921 111.82H170.921L168.689 115.3ZM51.7121 158.78V144.58H53.5121V158.78H51.7121ZM70.4874 158.78V147.94L65.8074 156.28H64.7074L60.0074 147.94V158.78H58.2074V144.58H60.1074L65.2474 153.8L70.4074 144.58H72.2874V158.78H70.4874ZM82.7479 158.88C81.7479 158.88 80.8412 158.68 80.0279 158.28C79.2146 157.88 78.5079 157.34 77.9079 156.66C77.3212 155.966 76.8679 155.193 76.5479 154.34C76.2279 153.473 76.0679 152.586 76.0679 151.68C76.0679 150.733 76.2346 149.833 76.5679 148.98C76.9146 148.113 77.3879 147.346 77.9879 146.68C78.6012 146 79.3146 145.466 80.1279 145.08C80.9412 144.68 81.8279 144.48 82.7879 144.48C83.7879 144.48 84.6946 144.686 85.5079 145.1C86.3212 145.513 87.0212 146.066 87.6079 146.76C88.1946 147.453 88.6479 148.226 88.9679 149.08C89.2879 149.933 89.4479 150.806 89.4479 151.7C89.4479 152.646 89.2812 153.553 88.9479 154.42C88.6146 155.273 88.1412 156.04 87.5279 156.72C86.9279 157.386 86.2212 157.913 85.4079 158.3C84.5946 158.686 83.7079 158.88 82.7479 158.88ZM77.8879 151.68C77.8879 152.4 78.0012 153.1 78.2279 153.78C78.4679 154.446 78.8012 155.04 79.2279 155.56C79.6546 156.08 80.1679 156.493 80.7679 156.8C81.3679 157.106 82.0346 157.26 82.7679 157.26C83.5279 157.26 84.2079 157.1 84.8079 156.78C85.4079 156.46 85.9146 156.033 86.3279 155.5C86.7546 154.966 87.0746 154.366 87.2879 153.7C87.5146 153.033 87.6279 152.36 87.6279 151.68C87.6279 150.96 87.5079 150.266 87.2679 149.6C87.0412 148.933 86.7079 148.34 86.2679 147.82C85.8412 147.286 85.3279 146.873 84.7279 146.58C84.1412 146.273 83.4879 146.12 82.7679 146.12C82.0079 146.12 81.3279 146.28 80.7279 146.6C80.1279 146.906 79.6146 147.326 79.1879 147.86C78.7746 148.393 78.4546 148.993 78.2279 149.66C78.0012 150.313 77.8879 150.986 77.8879 151.68ZM83.4079 142.88L82.2479 142.48L83.4079 140.46H85.1679L83.4079 142.88ZM93.102 144.58L97.802 156.52L102.482 144.58H104.382L98.622 158.78H96.982L91.202 144.58H93.102ZM117.236 157.18V158.78H107.596V144.58H117.056V146.18H109.396V150.78H116.056V152.28H109.396V157.18H117.236ZM121.005 158.78V144.58H122.805V158.78H121.005ZM135.84 147.56C135.68 147.373 135.467 147.193 135.2 147.02C134.934 146.846 134.634 146.693 134.3 146.56C133.967 146.413 133.6 146.3 133.2 146.22C132.814 146.126 132.407 146.08 131.98 146.08C130.887 146.08 130.08 146.286 129.56 146.7C129.04 147.113 128.78 147.68 128.78 148.4C128.78 148.906 128.914 149.306 129.18 149.6C129.447 149.893 129.854 150.133 130.4 150.32C130.96 150.506 131.667 150.7 132.52 150.9C133.507 151.113 134.36 151.373 135.08 151.68C135.8 151.986 136.354 152.4 136.74 152.92C137.127 153.426 137.32 154.106 137.32 154.96C137.32 155.64 137.187 156.233 136.92 156.74C136.667 157.233 136.307 157.646 135.84 157.98C135.374 158.3 134.827 158.54 134.2 158.7C133.574 158.846 132.894 158.92 132.16 158.92C131.44 158.92 130.734 158.846 130.04 158.7C129.36 158.54 128.714 158.313 128.1 158.02C127.487 157.726 126.914 157.36 126.38 156.92L127.24 155.4C127.454 155.626 127.727 155.853 128.06 156.08C128.407 156.293 128.794 156.493 129.22 156.68C129.66 156.866 130.134 157.02 130.64 157.14C131.147 157.246 131.667 157.3 132.2 157.3C133.214 157.3 134 157.12 134.56 156.76C135.12 156.386 135.4 155.846 135.4 155.14C135.4 154.606 135.24 154.18 134.92 153.86C134.614 153.54 134.154 153.273 133.54 153.06C132.927 152.846 132.18 152.633 131.3 152.42C130.34 152.18 129.534 151.92 128.88 151.64C128.227 151.346 127.734 150.966 127.4 150.5C127.08 150.033 126.92 149.426 126.92 148.68C126.92 147.773 127.14 147.006 127.58 146.38C128.02 145.753 128.627 145.28 129.4 144.96C130.174 144.64 131.047 144.48 132.02 144.48C132.66 144.48 133.254 144.546 133.8 144.68C134.36 144.813 134.88 145 135.36 145.24C135.84 145.48 136.28 145.766 136.68 146.1L135.84 147.56Z" fill="#214A4D"/>
<path d="M70.0763 1.37706C68.534 2.18462 66.501 3.79973 65.5897 5.04778L63.9773 7.32362L62.5052 5.85533C60.2619 3.6529 56.7567 2.77193 53.6021 3.6529C50.0268 4.68071 49.7464 5.56168 52.7608 6.22241C55.8454 6.80972 58.6495 8.05776 58.6495 8.93873C58.6495 9.23239 56.967 9.52605 55.0041 9.52605C49.9567 9.52605 46.1711 11.8019 44.0681 16.1333C43.2268 17.8953 42.5258 20.0243 42.5258 20.8319C42.5258 22.1533 42.666 22.1533 44.4887 20.3914C46.3815 18.4092 53.3217 14.6651 55.0041 14.6651C55.4247 14.6651 55.8454 14.9587 55.8454 15.3992C55.8454 15.7663 55.565 16.1333 55.2845 16.1333C54.233 16.1333 43.8577 29.5682 41.1237 34.4869C33.6928 47.6281 31.5897 64.6602 35.5155 79.9304C37.4083 87.2718 38.2495 88.5933 40.2124 87.3452C41.6144 86.3908 41.6144 86.3908 39.7918 80.8113C38.1794 75.8192 38.0392 74.0572 37.9691 64.2197C37.9691 55.5568 38.2495 52.2532 39.2309 48.8027C40.8433 43.5169 44.6289 35.3679 47.2227 31.7706L49.1155 29.2011L50.0268 32.5047C50.5175 34.2667 51.3588 36.1754 51.9196 36.6159C52.6907 37.2767 52.9711 36.8362 53.3217 33.8996C53.7423 30.596 57.8083 20.3914 59.1402 19.5838C59.4206 19.3636 59.5608 24.2823 59.4907 30.4491C59.2103 43.2966 60.4722 54.7493 63.2062 63.7792C64.1876 66.8626 64.9588 69.6524 64.9588 70.0928C64.9588 70.4599 62.9959 71.9282 60.5423 73.1763C58.1588 74.4977 54.5835 77.214 52.6907 79.2696L49.3258 82.8669L53.1113 81.8391C62.7155 79.1962 75.965 78.7557 98.2577 80.4443L104.567 80.9582L102.885 79.0494C99.3093 74.9382 84.9381 69.065 78.4887 68.9916H76.1753V64.3665C76.1753 58.1263 77.9278 46.8205 79.7505 41.241C81.3629 36.2489 82.6948 35.0008 81.7134 39.4057C80.9423 43.003 80.9423 47.7749 81.7134 49.0964C82.5546 50.4912 84.3072 46.8939 85.3588 41.8283C85.7794 39.6993 86.4103 38.3045 86.6907 38.6715C87.4619 39.4791 88.7938 46.38 88.8639 49.7571L88.934 52.4734L90.6165 48.8027C92.6495 44.3244 92.6495 43.1498 90.8969 38.9652C90.1258 37.2032 89.635 35.5881 89.7753 35.4413C90.1959 34.9274 95.033 40.2132 96.5753 42.8561L97.9072 45.132V42.2688C97.9072 38.5981 95.734 34.9274 92.1588 32.725C89.0742 30.8162 89.2144 30.4491 93.2804 29.715C95.1031 29.3479 95.6639 28.9808 94.9629 28.5404C93.5608 27.586 87.8124 27.7328 86.4103 28.834C85.3588 29.6416 84.868 29.4947 82.9052 27.5126C81.7134 26.3379 80.1711 23.7684 79.4701 21.9331C78.8392 20.0977 76.9464 17.2346 75.334 15.546C73.301 13.3436 72.8103 12.4626 73.6515 12.4626C75.4742 12.4626 82.8351 16.5738 85.6392 19.1433C87.3918 20.7584 88.0928 21.1255 88.0928 20.318C88.0928 18.1889 86.7608 15.4726 84.167 12.536C80.9423 8.71849 81.3629 8.49825 92.1588 8.93873C98.6783 9.23239 101.553 9.74629 106.179 11.3614C119.849 16.2068 130.645 26.0443 136.885 39.2588C139.619 45.132 142.282 53.5012 141.652 54.2354C141.581 54.3822 140.6 53.7949 139.478 52.9873C138.427 52.2532 136.814 51.2988 135.903 51.0051C134.431 50.5646 134.571 50.8583 136.885 54.0885C138.287 55.9973 140.46 59.7414 141.652 62.3843C143.544 66.4955 143.825 67.9638 143.825 73.0294C143.755 78.095 143.474 79.4165 141.722 82.7935C136.113 93.512 123.845 99.7522 108.142 99.8256C100.361 99.8256 89.0041 98.0637 81.5732 95.7144C69.5155 91.8969 63.1361 90.8691 53.7423 91.1628C43.367 91.5298 38.6701 93.0715 34.1835 97.6232C30.7485 101.147 30.398 102.836 33.5526 100.34C38.8804 96.1549 43.2969 94.4664 49.6062 94.0993C56.6165 93.7323 61.4536 94.6866 76.9464 99.3852C93.4907 104.377 98.6783 105.258 111.577 105.258C123.705 105.258 128.262 104.451 135.763 100.707C146.699 95.274 153.148 80.9582 150.274 68.6246C149.643 65.9816 148.522 62.8982 147.821 61.797C147.12 60.6958 146.138 57.3922 145.718 54.529C142.002 30.7428 125.528 12.169 103.165 6.51606C96.2948 4.82753 84.0969 4.68071 77.9278 6.22241C69.4454 8.35142 68.2536 7.02996 75.0536 3.21242C78.068 1.52389 78.8392 0.789747 77.9278 0.422676C75.8948 -0.384882 73.0907 -0.0178102 70.0763 1.37706ZM74.3526 24.576C75.4041 26.8518 76.2454 28.834 76.1052 28.9074C75.965 29.0543 74.5629 29.3479 72.9505 29.5682L70.0763 30.0821L69.9361 26.1911C69.866 23.9887 69.5155 21.1255 69.165 19.7306C68.1835 16.3536 68.1835 16.3536 70.4268 18.556C71.4784 19.6572 73.2309 22.3736 74.3526 24.576ZM63.767 21.9331C64.468 28.6138 69.165 40.6537 69.165 35.5881C69.165 33.973 71.6887 32.9452 74.9835 33.1655L77.9278 33.3857L75.6845 34.7806C72.7402 36.6893 70.4268 41.0942 70.7072 44.4713L70.9175 47.0408L73.5814 43.1498C75.1237 41.0208 77.1567 38.5981 78.1381 37.864C79.8907 36.4691 79.8907 36.4691 79.3299 37.864C75.7546 46.6003 72.6701 59.9617 72.6701 66.569C72.6701 68.5511 72.3897 69.065 71.4784 68.8448C69.0948 68.4043 63.767 48.509 62.1546 33.8996C61.3134 26.9987 61.734 17.6016 62.7856 17.6016C63.1361 17.6016 63.5567 19.5104 63.767 21.9331Z" fill="url(#paint0_linear_64_989)"/>
<path d="M108.423 40.36C106.179 40.8739 106.25 40.8739 109.755 41.0208C112.909 41.0942 113.751 41.3878 115.293 43.2232L117.186 45.2788L119.148 43.8105C120.901 42.4156 121.392 42.3422 125.037 43.1498C127.21 43.5903 129.103 43.8839 129.313 43.7371C129.454 43.5903 127.841 42.7827 125.668 41.9017C122.513 40.6537 121.462 40.5803 119.569 41.241C117.746 41.9017 116.975 41.8283 115.433 40.8005C113.33 39.5525 112.348 39.4791 108.423 40.36Z" fill="url(#paint1_linear_64_989)"/>
<path d="M131.346 64.2931C133.449 68.2575 133.309 71.6346 130.715 76.9938C128.682 81.0316 123.565 84.5555 117.606 86.0238C111.928 87.4186 94.1917 87.125 86.3402 85.5833C77.5773 83.8213 66.501 83.3074 59.0701 84.3352C53.3917 85.1428 39.2309 89.254 39.8618 89.9147C40.0021 90.0615 42.4557 89.5476 45.3299 88.6667C52.1299 86.7579 67.6928 86.0238 75.334 87.3452C78.2783 87.8591 85.0082 89.254 90.1959 90.502C102.744 93.4386 115.153 93.7323 122.864 91.2362C132.678 88.0059 137.866 82.2796 137.866 74.718C137.866 70.3865 136.604 67.1563 133.94 64.3665C130.295 60.549 129.313 60.549 131.346 64.2931Z" fill="url(#paint2_linear_64_989)"/>
<defs>
<linearGradient id="paint0_linear_64_989" x1="84.5" y1="94.7798" x2="83.5" y2="6.27979" gradientUnits="userSpaceOnUse">
<stop stop-color="#71FAF2"/>
<stop offset="0.432292" stop-color="#214A4D"/>
</linearGradient>
<linearGradient id="paint1_linear_64_989" x1="116.861" y1="44.7304" x2="116.846" y2="40.0983" gradientUnits="userSpaceOnUse">
<stop stop-color="#71FAF2"/>
<stop offset="0.432292" stop-color="#214A4D"/>
</linearGradient>
<linearGradient id="paint2_linear_64_989" x1="83.3854" y1="89.7956" x2="83.2766" y2="63.3663" gradientUnits="userSpaceOnUse">
<stop stop-color="#71FAF2"/>
<stop offset="0.432292" stop-color="#214A4D"/>
</linearGradient>
</defs>
</svg>
